<?xml version="1.0" encoding="UTF-8" standalone="no"?>
<!DOCTYPE svg PUBLIC "-//W3C//DTD SVG 1.1//EN"
 "http://www.w3.org/Graphics/SVG/1.1/DTD/svg11.dtd">
<!-- Generated by graphviz version 2.26.3 (20100126.1600)
 -->
<!-- Title: _anonymous_0 Pages: 1 -->
<svg width="3528pt" height="566pt"
 viewBox="0.00 0.00 3528.00 566.00" xmlns="http://www.w3.org/2000/svg" xmlns:xlink="http://www.w3.org/1999/xlink">
<g id="graph1" class="graph" transform="scale(1 1) rotate(0) translate(4 562)">
<title>_anonymous_0</title>
<polygon fill="white" stroke="white" points="-4,5 -4,-562 3525,-562 3525,5 -4,5"/>
<!-- root -->
<g id="node1" class="node"><title>root</title>
<polyline fill="none" stroke="#2e3436" points="42,-399 12,-399 "/>
<path fill="none" stroke="#2e3436" d="M12,-399C6,-399 1.77636e-14,-393 1.42109e-14,-387"/>
<polyline fill="none" stroke="#2e3436" points="1.42109e-14,-387 7.10543e-15,-375 "/>
<path fill="none" stroke="#2e3436" d="M7.10543e-15,-375C3.55271e-15,-369 6,-363 12,-363"/>
<polyline fill="none" stroke="#2e3436" points="12,-363 42,-363 "/>
<path fill="none" stroke="#2e3436" d="M42,-363C48,-363 54,-369 54,-375"/>
<polyline fill="none" stroke="#2e3436" points="54,-375 54,-387 "/>
<path fill="none" stroke="#2e3436" d="M54,-387C54,-393 48,-399 42,-399"/>
<text text-anchor="middle" x="27" y="-377.9" font-family="Helvetica,sans-Serif" font-size="14.00">root</text>
</g>
<!-- N1 -->
<g id="node18" class="node"><title>N1</title>
<polygon fill="none" stroke="#2e3436" points="772.5,-298.5 772.5,-383.5 1015.5,-383.5 1015.5,-298.5 772.5,-298.5"/>
<polygon fill="#2e3436" stroke="#2e3436" points="774,-359 774,-382 1015,-382 1015,-359 774,-359"/>
<polygon fill="#2e3436" stroke="#2e3436" points="774,-359 774,-382 775,-382 775,-359 774,-359"/>
<polygon fill="#2e3436" stroke="#2e3436" points="774,-382 774,-381 1015,-381 1015,-382 774,-382"/>
<polygon fill="#2e3436" stroke="#2e3436" points="1015,-382 1015,-359 1014,-359 1014,-382 1015,-382"/>
<polygon fill="#2e3436" stroke="#2e3436" points="1015,-359 1015,-360 774,-360 774,-359 1015,-359"/>
<text text-anchor="start" x="797.5" y="-367.233" font-family="Helvetica,sans-Serif" font-size="14.00" fill="white">o.g.l.k.user.UserUserItemScorer</text>
<polygon fill="none" stroke="#2e3436" points="774,-339 774,-359 1015,-359 1015,-339 774,-339"/>
<text text-anchor="start" x="777" y="-345.733" font-family="Helvetica,sans-Serif" font-size="14.00">o.g.l.d.dao.UserEventDAO</text>
<polygon fill="none" stroke="#2e3436" points="774,-319 774,-339 1015,-339 1015,-319 774,-319"/>
<text text-anchor="start" x="777" y="-325.733" font-family="Helvetica,sans-Serif" font-size="14.00">o.g.l.k.user.NeighborhoodFinder</text>
<polygon fill="none" stroke="#2e3436" points="774,-299 774,-319 1015,-319 1015,-299 774,-299"/>
<text text-anchor="start" x="777" y="-305.733" font-family="Helvetica,sans-Serif" font-size="14.00">o.g.l.t.normalize.UserVectorNormalizer</text>
</g>
<!-- root&#45;&gt;N1 -->
<g id="edge8" class="edge"><title>root&#45;&gt;N1:H</title>
<path fill="none" stroke="#2e3436" d="M54.4549,-380.007C115.955,-377.838 269.468,-372.732 398,-371 561.669,-368.795 605.122,-370.91 763.875,-370.997"/>
<polygon fill="#2e3436" stroke="#2e3436" points="774,-371 763.999,-375.497 769,-370.999 764,-370.997 764,-370.997 764,-370.997 769,-370.999 764.001,-366.497 774,-371 774,-371"/>
</g>
<!-- N12 -->
<g id="node24" class="node"><title>N12</title>
<polygon fill="#2e3436" stroke="#2e3436" points="361,-513 91,-513 91,-477 361,-477 361,-513"/>
<text text-anchor="middle" x="226" y="-491.9" font-family="Helvetica,sans-Serif" font-size="14.00" fill="white">o.g.l.basic.TopNGlobalItemRecommender</text>
</g>
<!-- root&#45;&gt;N12 -->
<g id="edge13" class="edge"><title>root&#45;&gt;N12</title>
<path fill="none" stroke="#2e3436" d="M44.206,-399.095C56.214,-410.984 73.066,-426.268 90,-437 112.777,-451.435 139.763,-463.79 163.668,-473.342"/>
<polygon fill="#2e3436" stroke="#2e3436" points="173.007,-476.995 162.055,-477.543 168.351,-475.174 163.694,-473.352 163.694,-473.352 163.694,-473.352 168.351,-475.174 165.334,-469.161 173.007,-476.995 173.007,-476.995"/>
</g>
<!-- N15 -->
<g id="node29" class="node"><title>N15</title>
<polygon fill="#2e3436" stroke="#2e3436" points="341,-428 111,-428 111,-392 341,-392 341,-428"/>
<text text-anchor="middle" x="226" y="-406.9" font-family="Helvetica,sans-Serif" font-size="14.00" fill="white">o.g.l.basic.TopNItemRecommender</text>
</g>
<!-- root&#45;&gt;N15 -->
<g id="edge18" class="edge"><title>root&#45;&gt;N15</title>
<path fill="none" stroke="#2e3436" d="M54.2528,-384.972C66.8885,-386.813 82.8967,-389.146 100.035,-391.643"/>
<polygon fill="#2e3436" stroke="#2e3436" points="110.239,-393.13 99.6942,-396.141 105.291,-392.409 100.343,-391.688 100.343,-391.688 100.343,-391.688 105.291,-392.409 100.992,-387.235 110.239,-393.13 110.239,-393.13"/>
</g>
<!-- N16 -->
<g id="node40" class="node"><title>N16</title>
<polygon fill="#2e3436" stroke="#2e3436" points="313,-312 139,-312 139,-276 313,-276 313,-312"/>
<text text-anchor="middle" x="226" y="-290.9" font-family="Helvetica,sans-Serif" font-size="14.00" fill="white">o.g.lenskit.RatingPredictor</text>
</g>
<!-- root&#45;&gt;N16 -->
<g id="edge26" class="edge"><title>root&#45;&gt;N16</title>
<path fill="none" stroke="#2e3436" d="M49.9531,-362.983C61.4888,-354.553 75.97,-344.88 90,-338 108.108,-329.121 128.425,-321.444 147.724,-315.103"/>
<polygon fill="#2e3436" stroke="#2e3436" points="157.402,-312.003 149.251,-319.339 152.64,-313.528 147.879,-315.053 147.879,-315.053 147.879,-315.053 152.64,-313.528 146.506,-310.767 157.402,-312.003 157.402,-312.003"/>
</g>
<!-- N3P -->
<g id="node3" class="node"><title>N3P</title>
<ellipse fill="none" stroke="#2e3436" stroke-dasharray="5,2" cx="3279" cy="-292" rx="241.123" ry="19.0919"/>
<text text-anchor="middle" x="3279" y="-288.9" font-family="Helvetica,sans-Serif" font-size="14.00">org.grouplens.grapht.util.InstanceProvider@5964e5d3</text>
</g>
<!-- N3 -->
<g id="node4" class="node"><title>N3</title>
<polygon fill="#2e3436" stroke="#2e3436" points="3002,-310 2854,-310 2854,-274 3002,-274 3002,-310"/>
<text text-anchor="middle" x="2928" y="-288.9" font-family="Helvetica,sans-Serif" font-size="14.00" fill="white">o.g.l.d.dao.EventDAO</text>
</g>
<!-- N3&#45;&gt;N3P -->
<g id="edge3" class="edge"><title>N3:e&#45;&gt;N3P</title>
<path fill="none" stroke="#2e3436" stroke-dasharray="1,5" d="M3012.18,-292C3020.57,-292 3029.09,-292 3037.66,-292"/>
<polygon fill="#2e3436" stroke="#2e3436" points="3012,-288.5 3002,-292 3012,-295.5 3012,-288.5"/>
</g>
<!-- N2 -->
<g id="node6" class="node"><title>N2</title>
<polygon fill="none" stroke="#2e3436" points="2176,-343.5 2176,-388.5 2416,-388.5 2416,-343.5 2176,-343.5"/>
<polygon fill="#2e3436" stroke="#2e3436" points="2177,-364 2177,-387 2415,-387 2415,-364 2177,-364"/>
<polygon fill="#2e3436" stroke="#2e3436" points="2177,-364 2177,-387 2178,-387 2178,-364 2177,-364"/>
<polygon fill="#2e3436" stroke="#2e3436" points="2177,-387 2177,-386 2415,-386 2415,-387 2177,-387"/>
<polygon fill="#2e3436" stroke="#2e3436" points="2415,-387 2415,-364 2414,-364 2414,-387 2415,-387"/>
<polygon fill="#2e3436" stroke="#2e3436" points="2415,-364 2415,-365 2177,-365 2177,-364 2415,-364"/>
<text text-anchor="start" x="2181.5" y="-372.233" font-family="Helvetica,sans-Serif" font-size="14.00" fill="white">o.g.l.d.dao.PrefetchingUserEventDAO</text>
<polygon fill="none" stroke="#2e3436" points="2177,-344 2177,-364 2415,-364 2415,-344 2177,-344"/>
<text text-anchor="start" x="2180" y="-350.733" font-family="Helvetica,sans-Serif" font-size="14.00">o.g.l.d.dao.EventDAO</text>
</g>
<!-- N2&#45;&gt;N3 -->
<g id="edge28" class="edge"><title>N2:1&#45;&gt;N3</title>
<path fill="none" stroke="#2e3436" d="M2415,-354C2594.31,-354 2642.62,-372.358 2818,-335 2839.45,-330.432 2862.17,-322.177 2881.36,-314.113"/>
<polygon fill="#2e3436" stroke="#2e3436" points="2890.76,-310.061 2883.36,-318.152 2886.17,-312.04 2881.58,-314.019 2881.58,-314.019 2881.58,-314.019 2886.17,-312.04 2879.8,-309.887 2890.76,-310.061 2890.76,-310.061"/>
</g>
<!-- N5 -->
<g id="node7" class="node"><title>N5</title>
<polygon fill="none" stroke="#2e3436" points="2537,-281.5 2537,-326.5 2775,-326.5 2775,-281.5 2537,-281.5"/>
<polygon fill="#2e3436" stroke="#2e3436" points="2538,-302 2538,-325 2774,-325 2774,-302 2538,-302"/>
<polygon fill="#2e3436" stroke="#2e3436" points="2538,-302 2538,-325 2539,-325 2539,-302 2538,-302"/>
<polygon fill="#2e3436" stroke="#2e3436" points="2538,-325 2538,-324 2774,-324 2774,-325 2538,-325"/>
<polygon fill="#2e3436" stroke="#2e3436" points="2774,-325 2774,-302 2773,-302 2773,-325 2774,-325"/>
<polygon fill="#2e3436" stroke="#2e3436" points="2774,-302 2774,-303 2538,-303 2538,-302 2774,-302"/>
<text text-anchor="start" x="2542.5" y="-310.233" font-family="Helvetica,sans-Serif" font-size="14.00" fill="white">o.g.l.d.dao.PrefetchingItemEventDAO</text>
<polygon fill="none" stroke="#2e3436" points="2538,-282 2538,-302 2774,-302 2774,-282 2538,-282"/>
<text text-anchor="start" x="2541" y="-288.733" font-family="Helvetica,sans-Serif" font-size="14.00">o.g.l.d.dao.EventDAO</text>
</g>
<!-- N5&#45;&gt;N3 -->
<g id="edge34" class="edge"><title>N5:1&#45;&gt;N3</title>
<path fill="none" stroke="#2e3436" d="M2774,-292C2796.61,-292 2821.08,-292 2843.72,-292"/>
<polygon fill="#2e3436" stroke="#2e3436" points="2853.98,-292 2843.98,-296.5 2848.98,-292 2843.98,-292 2843.98,-292 2843.98,-292 2848.98,-292 2843.98,-287.5 2853.98,-292 2853.98,-292"/>
</g>
<!-- N7 -->
<g id="node8" class="node"><title>N7</title>
<polygon fill="none" stroke="#2e3436" points="1788.5,-243.5 1788.5,-288.5 2045.5,-288.5 2045.5,-243.5 1788.5,-243.5"/>
<polygon fill="#4e9a06" stroke="#4e9a06" points="1790,-264 1790,-287 2045,-287 2045,-264 1790,-264"/>
<polygon fill="#2e3436" stroke="#2e3436" points="1790,-264 1790,-287 1791,-287 1791,-264 1790,-264"/>
<polygon fill="#2e3436" stroke="#2e3436" points="1790,-287 1790,-286 2045,-286 2045,-287 1790,-287"/>
<polygon fill="#2e3436" stroke="#2e3436" points="2045,-287 2045,-264 2044,-264 2044,-287 2045,-287"/>
<polygon fill="#2e3436" stroke="#2e3436" points="2045,-264 2045,-265 1790,-265 1790,-264 2045,-264"/>
<text text-anchor="start" x="1800.5" y="-272.233" font-family="Helvetica,sans-Serif" font-size="14.00" fill="white">o.g.l.v.similarity.CosineVectorSimilarity</text>
<polygon fill="none" stroke="#2e3436" points="1790,-244 1790,-264 2045,-264 2045,-244 1790,-244"/>
<text text-anchor="start" x="1793" y="-250.733" font-family="Helvetica,sans-Serif" font-size="14.00">@o.g.l.v.similarity.SimilarityDamping: 0.0</text>
</g>
<!-- N6 -->
<g id="node9" class="node"><title>N6</title>
<polygon fill="none" stroke="#2e3436" points="1415,-243.5 1415,-288.5 1619,-288.5 1619,-243.5 1415,-243.5"/>
<polygon fill="#4e9a06" stroke="#4e9a06" points="1416,-264 1416,-287 1618,-287 1618,-264 1416,-264"/>
<polygon fill="#2e3436" stroke="#2e3436" points="1416,-264 1416,-287 1417,-287 1417,-264 1416,-264"/>
<polygon fill="#2e3436" stroke="#2e3436" points="1416,-287 1416,-286 1618,-286 1618,-287 1416,-287"/>
<polygon fill="#2e3436" stroke="#2e3436" points="1618,-287 1618,-264 1617,-264 1617,-287 1618,-287"/>
<polygon fill="#2e3436" stroke="#2e3436" points="1618,-264 1618,-265 1416,-265 1416,-264 1618,-264"/>
<text text-anchor="start" x="1420.5" y="-272.233" font-family="Helvetica,sans-Serif" font-size="14.00" fill="white">o.g.l.k.user.UserVectorSimilarity</text>
<polygon fill="none" stroke="#2e3436" points="1416,-244 1416,-264 1618,-264 1618,-244 1416,-244"/>
<text text-anchor="start" x="1419" y="-250.733" font-family="Helvetica,sans-Serif" font-size="14.00">o.g.l.v.similarity.VectorSimilarity</text>
</g>
<!-- N6&#45;&gt;N7 -->
<g id="edge38" class="edge"><title>N6:1&#45;&gt;N7:H</title>
<path fill="none" stroke="#2e3436" d="M1618,-254C1691.61,-254 1711.21,-274.068 1779.96,-275.871"/>
<polygon fill="#2e3436" stroke="#2e3436" points="1790,-276 1779.94,-280.371 1785,-275.936 1780,-275.871 1780,-275.871 1780,-275.871 1785,-275.936 1780.06,-271.372 1790,-276 1790,-276"/>
</g>
<!-- N10P -->
<g id="node11" class="node"><title>N10P</title>
<polygon fill="none" stroke="#2e3436" points="2494,-195.5 2494,-240.5 2818,-240.5 2818,-195.5 2494,-195.5"/>
<polygon fill="#2e3436" stroke="#2e3436" points="2495,-216 2495,-239 2817,-239 2817,-216 2495,-216"/>
<polygon fill="#2e3436" stroke="#2e3436" points="2495,-216 2495,-239 2496,-239 2496,-216 2495,-216"/>
<polygon fill="#2e3436" stroke="#2e3436" points="2495,-239 2495,-238 2817,-238 2817,-239 2495,-239"/>
<polygon fill="#2e3436" stroke="#2e3436" points="2817,-239 2817,-216 2816,-216 2816,-239 2817,-239"/>
<polygon fill="#2e3436" stroke="#2e3436" points="2817,-216 2817,-217 2495,-217 2495,-216 2817,-216"/>
<text text-anchor="start" x="2499.5" y="-224.233" font-family="Helvetica,sans-Serif" font-size="14.00" fill="white">o.g.l.baseline.GlobalMeanRatingItemScorer$Builder</text>
<polygon fill="none" stroke="#2e3436" points="2495,-196 2495,-216 2817,-216 2817,-196 2495,-196"/>
<text text-anchor="start" x="2498" y="-202.733" font-family="Helvetica,sans-Serif" font-size="14.00">o.g.l.d.dao.EventDAO</text>
</g>
<!-- N10P&#45;&gt;N3 -->
<g id="edge44" class="edge"><title>N10P:1&#45;&gt;N3</title>
<path fill="none" stroke="#2e3436" stroke-dasharray="5,2" d="M2817,-206C2856.42,-206 2890.33,-240.319 2909.96,-265.598"/>
<polygon fill="#2e3436" stroke="#2e3436" points="2916.06,-273.762 2906.47,-268.442 2913.07,-269.756 2910.08,-265.75 2910.08,-265.75 2910.08,-265.75 2913.07,-269.756 2913.68,-263.057 2916.06,-273.762 2916.06,-273.762"/>
</g>
<!-- N10 -->
<g id="node12" class="node"><title>N10</title>
<polygon fill="#4e9a06" stroke="#2e3436" points="2436,-224 2156,-224 2156,-188 2436,-188 2436,-224"/>
<text text-anchor="middle" x="2296" y="-202.9" font-family="Helvetica,sans-Serif" font-size="14.00" fill="white">o.g.l.baseline.GlobalMeanRatingItemScorer</text>
</g>
<!-- N10&#45;&gt;N10P -->
<g id="edge6" class="edge"><title>N10:e&#45;&gt;N10P</title>
<path fill="none" stroke="#2e3436" stroke-dasharray="1,5" d="M2446.18,-206.042C2461.79,-206.167 2477.87,-206.567 2493.86,-207.151"/>
<polygon fill="#2e3436" stroke="#2e3436" points="2446.01,-202.541 2436,-206 2445.99,-209.541 2446.01,-202.541"/>
</g>
<!-- N11 -->
<g id="node14" class="node"><title>N11</title>
<polygon fill="#4e9a06" stroke="#2e3436" points="2457,-158 2135,-158 2135,-122 2457,-122 2457,-158"/>
<text text-anchor="middle" x="2296" y="-136.9" font-family="Helvetica,sans-Serif" font-size="14.00" fill="white">o.g.l.d.history.RatingVectorUserHistorySummarizer</text>
</g>
<!-- N9 -->
<g id="node15" class="node"><title>N9</title>
<polygon fill="none" stroke="#2e3436" points="1736.5,-121.5 1736.5,-226.5 2097.5,-226.5 2097.5,-121.5 1736.5,-121.5"/>
<polygon fill="#2e3436" stroke="#2e3436" points="1738,-202 1738,-225 2097,-225 2097,-202 1738,-202"/>
<polygon fill="#2e3436" stroke="#2e3436" points="1738,-202 1738,-225 1739,-225 1739,-202 1738,-202"/>
<polygon fill="#2e3436" stroke="#2e3436" points="1738,-225 1738,-224 2097,-224 2097,-225 1738,-225"/>
<polygon fill="#2e3436" stroke="#2e3436" points="2097,-225 2097,-202 2096,-202 2096,-225 2097,-225"/>
<polygon fill="#2e3436" stroke="#2e3436" points="2097,-202 2097,-203 1738,-203 1738,-202 2097,-202"/>
<text text-anchor="start" x="1810.5" y="-210.233" font-family="Helvetica,sans-Serif" font-size="14.00" fill="white">o.g.l.baseline.UserMeanItemScorer</text>
<polygon fill="none" stroke="#2e3436" points="1738,-182 1738,-202 2097,-202 2097,-182 1738,-182"/>
<text text-anchor="start" x="1741" y="-188.733" font-family="Helvetica,sans-Serif" font-size="14.00">o.g.l.d.dao.UserEventDAO</text>
<polygon fill="none" stroke="#2e3436" points="1738,-162 1738,-182 2097,-182 2097,-162 1738,-162"/>
<text text-anchor="start" x="1741" y="-168.733" font-family="Helvetica,sans-Serif" font-size="14.00">@o.g.l.baseline.UserMeanBaseline: o.g.lenskit.ItemScorer</text>
<polygon fill="none" stroke="#2e3436" points="1738,-142 1738,-162 2097,-162 2097,-142 1738,-142"/>
<text text-anchor="start" x="1741" y="-148.733" font-family="Helvetica,sans-Serif" font-size="14.00">o.g.l.d.history.UserHistorySummarizer</text>
<polygon fill="none" stroke="#2e3436" points="1738,-122 1738,-142 2097,-142 2097,-122 1738,-122"/>
<text text-anchor="start" x="1741" y="-128.733" font-family="Helvetica,sans-Serif" font-size="14.00">@o.g.l.baseline.MeanDamping: 0.0</text>
</g>
<!-- N9&#45;&gt;N2 -->
<g id="edge42" class="edge"><title>N9:1&#45;&gt;N2:H</title>
<path fill="none" stroke="#2e3436" d="M2097,-192C2138.1,-192 2133.52,-348.373 2167.48,-372.806"/>
<polygon fill="#2e3436" stroke="#2e3436" points="2177,-376 2166.09,-377.085 2172.26,-374.409 2167.52,-372.818 2167.52,-372.818 2167.52,-372.818 2172.26,-374.409 2168.95,-368.552 2177,-376 2177,-376"/>
</g>
<!-- N9&#45;&gt;N10 -->
<g id="edge46" class="edge"><title>N9:2&#45;&gt;N10</title>
<path fill="none" stroke="#2e3436" d="M2097,-172C2136.25,-172 2179.23,-178.505 2215.18,-185.824"/>
<polygon fill="#2e3436" stroke="#2e3436" points="2225.12,-187.905 2214.41,-190.261 2220.23,-186.881 2215.33,-185.856 2215.33,-185.856 2215.33,-185.856 2220.23,-186.881 2216.25,-181.452 2225.12,-187.905 2225.12,-187.905"/>
</g>
<!-- N9&#45;&gt;N11 -->
<g id="edge48" class="edge"><title>N9:3&#45;&gt;N11</title>
<path fill="none" stroke="#2e3436" d="M2097,-152C2105.96,-152 2115.14,-151.877 2124.41,-151.657"/>
<polygon fill="#2e3436" stroke="#2e3436" points="2134.5,-151.38 2124.62,-156.153 2129.5,-151.517 2124.5,-151.654 2124.5,-151.654 2124.5,-151.654 2129.5,-151.517 2124.38,-147.156 2134.5,-151.38 2134.5,-151.38"/>
</g>
<!-- N8 -->
<g id="node16" class="node"><title>N8</title>
<polygon fill="none" stroke="#2e3436" points="1334.5,-181.5 1334.5,-226.5 1699.5,-226.5 1699.5,-181.5 1334.5,-181.5"/>
<polygon fill="#a40000" stroke="#a40000" points="1336,-202 1336,-225 1699,-225 1699,-202 1336,-202"/>
<polygon fill="#2e3436" stroke="#2e3436" points="1336,-202 1336,-225 1337,-225 1337,-202 1336,-202"/>
<polygon fill="#2e3436" stroke="#2e3436" points="1336,-225 1336,-224 1699,-224 1699,-225 1336,-225"/>
<polygon fill="#2e3436" stroke="#2e3436" points="1699,-225 1699,-202 1698,-202 1698,-225 1699,-225"/>
<polygon fill="#2e3436" stroke="#2e3436" points="1699,-202 1699,-203 1336,-203 1336,-202 1699,-202"/>
<text text-anchor="start" x="1340.5" y="-210.233" font-family="Helvetica,sans-Serif" font-size="14.00" fill="white">o.g.l.t.normalize.BaselineSubtractingUserVectorNormalizer</text>
<polygon fill="none" stroke="#2e3436" points="1336,-182 1336,-202 1699,-202 1699,-182 1336,-182"/>
<text text-anchor="start" x="1339" y="-188.733" font-family="Helvetica,sans-Serif" font-size="14.00">@o.g.l.baseline.BaselineScorer: o.g.lenskit.ItemScorer</text>
</g>
<!-- N8&#45;&gt;N9 -->
<g id="edge50" class="edge"><title>N8:1&#45;&gt;N9:H</title>
<path fill="none" stroke="#2e3436" d="M1699,-192C1714.86,-192 1717.57,-205.97 1728.09,-211.646"/>
<polygon fill="#2e3436" stroke="#2e3436" points="1738,-214 1727.23,-216.067 1733.14,-212.844 1728.27,-211.689 1728.27,-211.689 1728.27,-211.689 1733.14,-212.844 1729.31,-207.311 1738,-214 1738,-214"/>
</g>
<!-- N4 -->
<g id="node17" class="node"><title>N4</title>
<polygon fill="none" stroke="#2e3436" points="1052,-239.5 1052,-364.5 1298,-364.5 1298,-239.5 1052,-239.5"/>
<polygon fill="#2e3436" stroke="#2e3436" points="1053,-340 1053,-363 1297,-363 1297,-340 1053,-340"/>
<polygon fill="#2e3436" stroke="#2e3436" points="1053,-340 1053,-363 1054,-363 1054,-340 1053,-340"/>
<polygon fill="#2e3436" stroke="#2e3436" points="1053,-363 1053,-362 1297,-362 1297,-363 1053,-363"/>
<polygon fill="#2e3436" stroke="#2e3436" points="1297,-363 1297,-340 1296,-340 1296,-363 1297,-363"/>
<polygon fill="#2e3436" stroke="#2e3436" points="1297,-340 1297,-341 1053,-341 1053,-340 1297,-340"/>
<text text-anchor="start" x="1057.5" y="-348.233" font-family="Helvetica,sans-Serif" font-size="14.00" fill="white">o.g.l.k.user.SimpleNeighborhoodFinder</text>
<polygon fill="none" stroke="#2e3436" points="1053,-320 1053,-340 1297,-340 1297,-320 1053,-320"/>
<text text-anchor="start" x="1056" y="-326.733" font-family="Helvetica,sans-Serif" font-size="14.00">o.g.l.d.dao.UserEventDAO</text>
<polygon fill="none" stroke="#2e3436" points="1053,-300 1053,-320 1297,-320 1297,-300 1053,-300"/>
<text text-anchor="start" x="1056" y="-306.733" font-family="Helvetica,sans-Serif" font-size="14.00">o.g.l.d.dao.ItemEventDAO</text>
<polygon fill="none" stroke="#2e3436" points="1053,-280 1053,-300 1297,-300 1297,-280 1053,-280"/>
<text text-anchor="start" x="1056" y="-286.733" font-family="Helvetica,sans-Serif" font-size="14.00">o.g.l.k.user.UserSimilarity</text>
<polygon fill="none" stroke="#2e3436" points="1053,-260 1053,-280 1297,-280 1297,-260 1053,-260"/>
<text text-anchor="start" x="1056" y="-266.733" font-family="Helvetica,sans-Serif" font-size="14.00">o.g.l.t.normalize.UserVectorNormalizer</text>
<polygon fill="none" stroke="#2e3436" points="1053,-240 1053,-260 1297,-260 1297,-240 1053,-240"/>
<text text-anchor="start" x="1056" y="-246.733" font-family="Helvetica,sans-Serif" font-size="14.00">@o.g.l.knn.NeighborhoodSize: 30</text>
</g>
<!-- N4&#45;&gt;N2 -->
<g id="edge32" class="edge"><title>N4:1&#45;&gt;N2:H</title>
<path fill="none" stroke="#2e3436" d="M1297,-330C1685.2,-330 1783.63,-375.195 2166.74,-375.989"/>
<polygon fill="#2e3436" stroke="#2e3436" points="2177,-376 2167,-380.49 2172,-375.995 2167,-375.99 2167,-375.99 2167,-375.99 2172,-375.995 2167,-371.49 2177,-376 2177,-376"/>
</g>
<!-- N4&#45;&gt;N5 -->
<g id="edge36" class="edge"><title>N4:2&#45;&gt;N5:H</title>
<path fill="none" stroke="#2e3436" d="M1297,-310C1845.19,-310 1984.74,-313.951 2527.95,-314"/>
<polygon fill="#2e3436" stroke="#2e3436" points="2538,-314 2528,-318.499 2533,-314 2528,-313.999 2528,-313.999 2528,-313.999 2533,-314 2528,-309.499 2538,-314 2538,-314"/>
</g>
<!-- N4&#45;&gt;N6 -->
<g id="edge40" class="edge"><title>N4:3&#45;&gt;N6:H</title>
<path fill="none" stroke="#2e3436" d="M1297,-290C1346.72,-290 1360.91,-277.798 1405.91,-276.177"/>
<polygon fill="#2e3436" stroke="#2e3436" points="1416,-276 1406.08,-280.675 1411,-276.088 1406,-276.175 1406,-276.175 1406,-276.175 1411,-276.088 1405.92,-271.676 1416,-276 1416,-276"/>
</g>
<!-- N4&#45;&gt;N8 -->
<g id="edge52" class="edge"><title>N4:4&#45;&gt;N8:H</title>
<path fill="none" stroke="#2e3436" d="M1297,-270C1323.06,-270 1310.73,-228.643 1326,-217.011"/>
<polygon fill="#2e3436" stroke="#2e3436" points="1336,-214 1327.72,-221.192 1331.21,-215.441 1326.42,-216.883 1326.42,-216.883 1326.42,-216.883 1331.21,-215.441 1325.13,-212.574 1336,-214 1336,-214"/>
</g>
<!-- N1&#45;&gt;N2 -->
<g id="edge30" class="edge"><title>N1:1&#45;&gt;N2:H</title>
<path fill="none" stroke="#2e3436" d="M1015,-349C1034.6,-349 1033.23,-367.369 1052,-373 1343.19,-460.33 1431.99,-376.889 1736,-378 1896.89,-378.588 1937.12,-380.036 2098,-378 2129.42,-377.602 2139.74,-376.316 2166.71,-376.049"/>
<polygon fill="#2e3436" stroke="#2e3436" points="2177,-376 2167.02,-380.547 2172,-376.024 2167,-376.047 2167,-376.047 2167,-376.047 2172,-376.024 2166.98,-371.548 2177,-376 2177,-376"/>
</g>
<!-- N1&#45;&gt;N8 -->
<g id="edge56" class="edge"><title>N1:3&#45;&gt;N8:H</title>
<path fill="none" stroke="#2e3436" d="M1015,-309C1053.37,-309 1020.2,-252.469 1052,-231 1153.94,-162.182 1206.63,-211.153 1325.79,-213.883"/>
<polygon fill="#2e3436" stroke="#2e3436" points="1336,-214 1325.95,-218.385 1331,-213.943 1326,-213.885 1326,-213.885 1326,-213.885 1331,-213.943 1326.05,-209.386 1336,-214 1336,-214"/>
</g>
<!-- N1&#45;&gt;N4 -->
<g id="edge54" class="edge"><title>N1:2&#45;&gt;N4:H</title>
<path fill="none" stroke="#2e3436" d="M1015,-329C1030.73,-329 1032.99,-343.605 1043.24,-349.539"/>
<polygon fill="#2e3436" stroke="#2e3436" points="1053,-352 1042.2,-353.918 1048.15,-350.777 1043.3,-349.554 1043.3,-349.554 1043.3,-349.554 1048.15,-350.777 1044.4,-345.191 1053,-352 1053,-352"/>
</g>
<!-- N13 -->
<g id="node20" class="node"><title>N13</title>
<polygon fill="none" stroke="#2e3436" points="792,-457.5 792,-502.5 996,-502.5 996,-457.5 792,-457.5"/>
<polygon fill="#2e3436" stroke="#2e3436" points="793,-478 793,-501 995,-501 995,-478 793,-478"/>
<polygon fill="#2e3436" stroke="#2e3436" points="793,-478 793,-501 794,-501 794,-478 793,-478"/>
<polygon fill="#2e3436" stroke="#2e3436" points="793,-501 793,-500 995,-500 995,-501 793,-501"/>
<polygon fill="#2e3436" stroke="#2e3436" points="995,-501 995,-478 994,-478 994,-501 995,-501"/>
<polygon fill="#2e3436" stroke="#2e3436" points="995,-478 995,-479 793,-479 793,-478 995,-478"/>
<text text-anchor="start" x="797.5" y="-486.233" font-family="Helvetica,sans-Serif" font-size="14.00" fill="white">o.g.l.d.dao.PrefetchingItemDAO</text>
<polygon fill="none" stroke="#2e3436" points="793,-458 793,-478 995,-478 995,-458 793,-458"/>
<text text-anchor="start" x="796" y="-464.733" font-family="Helvetica,sans-Serif" font-size="14.00">o.g.l.d.dao.EventDAO</text>
</g>
<!-- N13&#45;&gt;N3 -->
<g id="edge58" class="edge"><title>N13:1&#45;&gt;N3</title>
<path fill="none" stroke="#2e3436" d="M995,-468C1227,-468 1285,-468 1517,-468 1517,-468 1517,-468 2296,-468 2532.91,-468 2597.89,-447.623 2818,-360 2845.87,-348.907 2874.61,-330.873 2895.72,-316.164"/>
<polygon fill="#2e3436" stroke="#2e3436" points="2903.99,-310.3 2898.43,-319.755 2899.91,-313.192 2895.83,-316.085 2895.83,-316.085 2895.83,-316.085 2899.91,-313.192 2893.23,-312.414 2903.99,-310.3 2903.99,-310.3"/>
</g>
<!-- N14 -->
<g id="node21" class="node"><title>N14</title>
<ellipse fill="none" stroke="#2e3436" cx="894" cy="-539" rx="27" ry="19.0919"/>
<text text-anchor="middle" x="894" y="-535.9" font-family="Helvetica,sans-Serif" font-size="14.00">null</text>
</g>
<!-- N12P -->
<g id="node23" class="node"><title>N12P</title>
<polygon fill="none" stroke="#2e3436" points="405,-481.5 405,-546.5 729,-546.5 729,-481.5 405,-481.5"/>
<polygon fill="#2e3436" stroke="#2e3436" points="406,-522 406,-545 728,-545 728,-522 406,-522"/>
<polygon fill="#2e3436" stroke="#2e3436" points="406,-522 406,-545 407,-545 407,-522 406,-522"/>
<polygon fill="#2e3436" stroke="#2e3436" points="406,-545 406,-544 728,-544 728,-545 406,-545"/>
<polygon fill="#2e3436" stroke="#2e3436" points="728,-545 728,-522 727,-522 727,-545 728,-545"/>
<polygon fill="#2e3436" stroke="#2e3436" points="728,-522 728,-523 406,-523 406,-522 728,-522"/>
<text text-anchor="start" x="410.5" y="-530.233" font-family="Helvetica,sans-Serif" font-size="14.00" fill="white">o.g.l.basic.TopNGlobalItemRecommender$Provider</text>
<polygon fill="none" stroke="#2e3436" points="406,-502 406,-522 728,-522 728,-502 406,-502"/>
<text text-anchor="start" x="409" y="-508.733" font-family="Helvetica,sans-Serif" font-size="14.00">o.g.l.d.dao.ItemDAO</text>
<polygon fill="none" stroke="#2e3436" points="406,-482 406,-502 728,-502 728,-482 406,-482"/>
<text text-anchor="start" x="409" y="-488.733" font-family="Helvetica,sans-Serif" font-size="14.00">o.g.lenskit.GlobalItemScorer</text>
</g>
<!-- N12P&#45;&gt;N13 -->
<g id="edge60" class="edge"><title>N12P:1&#45;&gt;N13:H</title>
<path fill="none" stroke="#2e3436" d="M728,-512C754.806,-512 761.143,-495.006 782.992,-490.89"/>
<polygon fill="#2e3436" stroke="#2e3436" points="793,-490 783.438,-495.368 788.02,-490.443 783.039,-490.886 783.039,-490.886 783.039,-490.886 788.02,-490.443 782.641,-486.403 793,-490 793,-490"/>
</g>
<!-- N12P&#45;&gt;N14 -->
<g id="edge62" class="edge"><title>N12P:2&#45;&gt;N14</title>
<path fill="none" stroke="#2e3436" d="M728,-492C749.301,-492 751.758,-504.368 772,-511 800.189,-520.236 833.002,-527.583 857.494,-532.43"/>
<polygon fill="#2e3436" stroke="#2e3436" points="867.444,-534.352 856.771,-536.873 862.534,-533.404 857.625,-532.455 857.625,-532.455 857.625,-532.455 862.534,-533.404 858.479,-528.037 867.444,-534.352 867.444,-534.352"/>
</g>
<!-- N12&#45;&gt;N12P -->
<g id="edge11" class="edge"><title>N12:e&#45;&gt;N12P</title>
<path fill="none" stroke="#2e3436" stroke-dasharray="1,5" d="M372.211,-495.076C382.941,-495.232 393.897,-495.622 404.872,-496.189"/>
<polygon fill="#2e3436" stroke="#2e3436" points="372.026,-491.574 362,-495 371.974,-498.574 372.026,-491.574"/>
</g>
<!-- N15P -->
<g id="node28" class="node"><title>N15P</title>
<polygon fill="none" stroke="#2e3436" points="425,-379.5 425,-464.5 709,-464.5 709,-379.5 425,-379.5"/>
<polygon fill="#2e3436" stroke="#2e3436" points="426,-440 426,-463 708,-463 708,-440 426,-440"/>
<polygon fill="#2e3436" stroke="#2e3436" points="426,-440 426,-463 427,-463 427,-440 426,-440"/>
<polygon fill="#2e3436" stroke="#2e3436" points="426,-463 426,-462 708,-462 708,-463 426,-463"/>
<polygon fill="#2e3436" stroke="#2e3436" points="708,-463 708,-440 707,-440 707,-463 708,-463"/>
<polygon fill="#2e3436" stroke="#2e3436" points="708,-440 708,-441 426,-441 426,-440 708,-440"/>
<text text-anchor="start" x="430.5" y="-448.233" font-family="Helvetica,sans-Serif" font-size="14.00" fill="white">o.g.l.basic.TopNItemRecommender$Provider</text>
<polygon fill="none" stroke="#2e3436" points="426,-420 426,-440 708,-440 708,-420 426,-420"/>
<text text-anchor="start" x="429" y="-426.733" font-family="Helvetica,sans-Serif" font-size="14.00">o.g.l.d.dao.UserEventDAO</text>
<polygon fill="none" stroke="#2e3436" points="426,-400 426,-420 708,-420 708,-400 426,-400"/>
<text text-anchor="start" x="429" y="-406.733" font-family="Helvetica,sans-Serif" font-size="14.00">o.g.l.d.dao.ItemDAO</text>
<polygon fill="none" stroke="#2e3436" points="426,-380 426,-400 708,-400 708,-380 426,-380"/>
<text text-anchor="start" x="429" y="-386.733" font-family="Helvetica,sans-Serif" font-size="14.00">o.g.lenskit.ItemScorer</text>
</g>
<!-- N15P&#45;&gt;N2 -->
<g id="edge64" class="edge"><title>N15P:1&#45;&gt;N2:H</title>
<path fill="none" stroke="#2e3436" d="M708,-430C915.556,-430 967.444,-430 1175,-430 1175,-430 1175,-430 1517,-430 1775.77,-430 1841.5,-426.205 2098,-392 2129.9,-387.746 2139.33,-378.221 2166.9,-376.33"/>
<polygon fill="#2e3436" stroke="#2e3436" points="2177,-376 2167.15,-380.824 2172,-376.163 2167.01,-376.327 2167.01,-376.327 2167.01,-376.327 2172,-376.163 2166.86,-371.829 2177,-376 2177,-376"/>
</g>
<!-- N15P&#45;&gt;N1 -->
<g id="edge68" class="edge"><title>N15P:3&#45;&gt;N1:H</title>
<path fill="none" stroke="#2e3436" d="M708,-390C734.828,-390 741.901,-375.323 763.945,-371.768"/>
<polygon fill="#2e3436" stroke="#2e3436" points="774,-371 764.372,-376.249 769.015,-371.381 764.029,-371.762 764.029,-371.762 764.029,-371.762 769.015,-371.381 763.686,-367.275 774,-371 774,-371"/>
</g>
<!-- N15P&#45;&gt;N13 -->
<g id="edge66" class="edge"><title>N15P:2&#45;&gt;N13:H</title>
<path fill="none" stroke="#2e3436" d="M708,-410C756.231,-410 743.41,-479.146 783.055,-488.869"/>
<polygon fill="#2e3436" stroke="#2e3436" points="793,-490 782.556,-493.341 788.032,-489.435 783.064,-488.87 783.064,-488.87 783.064,-488.87 788.032,-489.435 783.573,-484.399 793,-490 793,-490"/>
</g>
<!-- N15&#45;&gt;N15P -->
<g id="edge16" class="edge"><title>N15:e&#45;&gt;N15P</title>
<path fill="none" stroke="#2e3436" stroke-dasharray="1,5" d="M352.126,-410.039C375.92,-410.221 400.795,-411.016 424.831,-412.118"/>
<polygon fill="#2e3436" stroke="#2e3436" points="352.014,-406.539 342,-410 351.986,-413.539 352.014,-406.539"/>
</g>
<!-- N18P -->
<g id="node33" class="node"><title>N18P</title>
<polygon fill="none" stroke="#2e3436" points="2500,-59.5 2500,-124.5 2812,-124.5 2812,-59.5 2500,-59.5"/>
<polygon fill="#2e3436" stroke="#2e3436" points="2501,-100 2501,-123 2811,-123 2811,-100 2501,-100"/>
<polygon fill="#2e3436" stroke="#2e3436" points="2501,-100 2501,-123 2502,-123 2502,-100 2501,-100"/>
<polygon fill="#2e3436" stroke="#2e3436" points="2501,-123 2501,-122 2811,-122 2811,-123 2501,-123"/>
<polygon fill="#2e3436" stroke="#2e3436" points="2811,-123 2811,-100 2810,-100 2810,-123 2811,-123"/>
<polygon fill="#2e3436" stroke="#2e3436" points="2811,-100 2811,-101 2501,-101 2501,-100 2811,-100"/>
<text text-anchor="start" x="2505.5" y="-108.233" font-family="Helvetica,sans-Serif" font-size="14.00" fill="white">o.g.l.baseline.ItemMeanRatingItemScorer$Builder</text>
<polygon fill="none" stroke="#2e3436" points="2501,-80 2501,-100 2811,-100 2811,-80 2501,-80"/>
<text text-anchor="start" x="2504" y="-86.7333" font-family="Helvetica,sans-Serif" font-size="14.00">o.g.l.d.dao.EventDAO</text>
<polygon fill="none" stroke="#2e3436" points="2501,-60 2501,-80 2811,-80 2811,-60 2501,-60"/>
<text text-anchor="start" x="2504" y="-66.7333" font-family="Helvetica,sans-Serif" font-size="14.00">@o.g.l.baseline.MeanDamping: 0.0</text>
</g>
<!-- N18P&#45;&gt;N3 -->
<g id="edge74" class="edge"><title>N18P:1&#45;&gt;N3</title>
<path fill="none" stroke="#2e3436" stroke-dasharray="5,2" d="M2811,-90C2890.22,-90 2916.67,-207.768 2924.76,-263.46"/>
<polygon fill="#2e3436" stroke="#2e3436" points="2926.14,-273.718 2920.34,-264.408 2925.47,-268.762 2924.8,-263.807 2924.8,-263.807 2924.8,-263.807 2925.47,-268.762 2929.26,-263.206 2926.14,-273.718 2926.14,-273.718"/>
</g>
<!-- N18 -->
<g id="node34" class="node"><title>N18</title>
<polygon fill="#4e9a06" stroke="#2e3436" points="2429,-80 2163,-80 2163,-44 2429,-44 2429,-80"/>
<text text-anchor="middle" x="2296" y="-58.9" font-family="Helvetica,sans-Serif" font-size="14.00" fill="white">o.g.l.baseline.ItemMeanRatingItemScorer</text>
</g>
<!-- N18&#45;&gt;N18P -->
<g id="edge21" class="edge"><title>N18:e&#45;&gt;N18P</title>
<path fill="none" stroke="#2e3436" stroke-dasharray="1,5" d="M2440.16,-62.097C2459.72,-62.4637 2479.95,-63.8462 2499.83,-65.83"/>
<polygon fill="#2e3436" stroke="#2e3436" points="2440.03,-58.5957 2430,-62 2439.97,-65.5954 2440.03,-58.5957"/>
</g>
<!-- N17 -->
<g id="node36" class="node"><title>N17</title>
<polygon fill="none" stroke="#2e3436" points="1736.5,0.5 1736.5,-104.5 2097.5,-104.5 2097.5,0.5 1736.5,0.5"/>
<polygon fill="#2e3436" stroke="#2e3436" points="1738,-80 1738,-103 2097,-103 2097,-80 1738,-80"/>
<polygon fill="#2e3436" stroke="#2e3436" points="1738,-80 1738,-103 1739,-103 1739,-80 1738,-80"/>
<polygon fill="#2e3436" stroke="#2e3436" points="1738,-103 1738,-102 2097,-102 2097,-103 1738,-103"/>
<polygon fill="#2e3436" stroke="#2e3436" points="2097,-103 2097,-80 2096,-80 2096,-103 2097,-103"/>
<polygon fill="#2e3436" stroke="#2e3436" points="2097,-80 2097,-81 1738,-81 1738,-80 2097,-80"/>
<text text-anchor="start" x="1810.5" y="-88.2333" font-family="Helvetica,sans-Serif" font-size="14.00" fill="white">o.g.l.baseline.UserMeanItemScorer</text>
<polygon fill="none" stroke="#2e3436" points="1738,-60 1738,-80 2097,-80 2097,-60 1738,-60"/>
<text text-anchor="start" x="1741" y="-66.7333" font-family="Helvetica,sans-Serif" font-size="14.00">o.g.l.d.dao.UserEventDAO</text>
<polygon fill="none" stroke="#2e3436" points="1738,-40 1738,-60 2097,-60 2097,-40 1738,-40"/>
<text text-anchor="start" x="1741" y="-46.7333" font-family="Helvetica,sans-Serif" font-size="14.00">@o.g.l.baseline.UserMeanBaseline: o.g.lenskit.ItemScorer</text>
<polygon fill="none" stroke="#2e3436" points="1738,-20 1738,-40 2097,-40 2097,-20 1738,-20"/>
<text text-anchor="start" x="1741" y="-26.7333" font-family="Helvetica,sans-Serif" font-size="14.00">o.g.l.d.history.UserHistorySummarizer</text>
<polygon fill="none" stroke="#2e3436" points="1738,-0 1738,-20 2097,-20 2097,-0 1738,-0"/>
<text text-anchor="start" x="1741" y="-6.73333" font-family="Helvetica,sans-Serif" font-size="14.00">@o.g.l.baseline.MeanDamping: 0.0</text>
</g>
<!-- N17&#45;&gt;N2 -->
<g id="edge72" class="edge"><title>N17:1&#45;&gt;N2:H</title>
<path fill="none" stroke="#2e3436" d="M2097,-70C2134.14,-70 2124.54,-197.082 2134,-233 2149.95,-293.541 2115.01,-367.118 2166.72,-375.258"/>
<polygon fill="#2e3436" stroke="#2e3436" points="2177,-376 2166.7,-379.769 2172.01,-375.64 2167.03,-375.28 2167.03,-375.28 2167.03,-375.28 2172.01,-375.64 2167.35,-370.792 2177,-376 2177,-376"/>
</g>
<!-- N17&#45;&gt;N11 -->
<g id="edge78" class="edge"><title>N17:3&#45;&gt;N11</title>
<path fill="none" stroke="#2e3436" d="M2097,-30C2127.95,-30 2109.51,-70.0758 2134,-89 2150.62,-101.839 2170.53,-111.482 2190.61,-118.713"/>
<polygon fill="#2e3436" stroke="#2e3436" points="2200.15,-121.97 2189.24,-122.999 2195.42,-120.355 2190.69,-118.74 2190.69,-118.74 2190.69,-118.74 2195.42,-120.355 2192.14,-114.481 2200.15,-121.97 2200.15,-121.97"/>
</g>
<!-- N17&#45;&gt;N18 -->
<g id="edge76" class="edge"><title>N17:2&#45;&gt;N18</title>
<path fill="none" stroke="#2e3436" d="M2097,-50C2114.9,-50 2133.68,-50.4896 2152.27,-51.2709"/>
<polygon fill="#2e3436" stroke="#2e3436" points="2162.26,-51.7193 2152.07,-55.7665 2157.27,-51.4952 2152.27,-51.271 2152.27,-51.271 2152.27,-51.271 2157.27,-51.4952 2152.47,-46.7755 2162.26,-51.7193 2162.26,-51.7193"/>
</g>
<!-- N19 -->
<g id="node37" class="node"><title>N19</title>
<ellipse fill="none" stroke="#2e3436" cx="894" cy="-107" rx="27" ry="19.0919"/>
<text text-anchor="middle" x="894" y="-103.9" font-family="Helvetica,sans-Serif" font-size="14.00">null</text>
</g>
<!-- N16P -->
<g id="node39" class="node"><title>N16P</title>
<polygon fill="none" stroke="#2e3436" points="398.5,-181.5 398.5,-266.5 735.5,-266.5 735.5,-181.5 398.5,-181.5"/>
<polygon fill="#2e3436" stroke="#2e3436" points="400,-242 400,-265 735,-265 735,-242 400,-242"/>
<polygon fill="#2e3436" stroke="#2e3436" points="400,-242 400,-265 401,-265 401,-242 400,-242"/>
<polygon fill="#2e3436" stroke="#2e3436" points="400,-265 400,-264 735,-264 735,-265 400,-265"/>
<polygon fill="#2e3436" stroke="#2e3436" points="735,-265 735,-242 734,-242 734,-265 735,-265"/>
<polygon fill="#2e3436" stroke="#2e3436" points="735,-242 735,-243 400,-243 400,-242 735,-242"/>
<text text-anchor="start" x="438.5" y="-250.233" font-family="Helvetica,sans-Serif" font-size="14.00" fill="white">o.g.l.basic.SimpleRatingPredictor$Provider</text>
<polygon fill="none" stroke="#2e3436" points="400,-222 400,-242 735,-242 735,-222 400,-222"/>
<text text-anchor="start" x="403" y="-228.733" font-family="Helvetica,sans-Serif" font-size="14.00">o.g.lenskit.ItemScorer</text>
<polygon fill="none" stroke="#2e3436" points="400,-202 400,-222 735,-222 735,-202 400,-202"/>
<text text-anchor="start" x="403" y="-208.733" font-family="Helvetica,sans-Serif" font-size="14.00">@o.g.l.baseline.BaselineScorer: o.g.lenskit.ItemScorer</text>
<polygon fill="none" stroke="#2e3436" points="400,-182 400,-202 735,-202 735,-182 400,-182"/>
<text text-anchor="start" x="403" y="-188.733" font-family="Helvetica,sans-Serif" font-size="14.00">o.g.l.d.pref.PreferenceDomain</text>
</g>
<!-- N16P&#45;&gt;N1 -->
<g id="edge70" class="edge"><title>N16P:1&#45;&gt;N1:H</title>
<path fill="none" stroke="#2e3436" d="M735,-232C795.278,-232 720.091,-354.678 763.965,-369.533"/>
<polygon fill="#2e3436" stroke="#2e3436" points="774,-371 763.454,-374.006 769.053,-370.277 764.105,-369.553 764.105,-369.553 764.105,-369.553 769.053,-370.277 764.756,-365.101 774,-371 774,-371"/>
</g>
<!-- N16P&#45;&gt;N17 -->
<g id="edge80" class="edge"><title>N16P:2&#45;&gt;N17:H</title>
<path fill="none" stroke="#2e3436" d="M735,-212C1180.56,-212 1287.43,-93.8095 1727.87,-92.0205"/>
<polygon fill="#2e3436" stroke="#2e3436" points="1738,-92 1728.01,-96.5203 1733,-92.0102 1728,-92.0203 1728,-92.0203 1728,-92.0203 1733,-92.0102 1727.99,-87.5204 1738,-92 1738,-92"/>
</g>
<!-- N16P&#45;&gt;N19 -->
<g id="edge82" class="edge"><title>N16P:3&#45;&gt;N19</title>
<path fill="none" stroke="#2e3436" d="M735,-192C763.364,-192 748.723,-156.209 772,-140 797.163,-122.478 831.208,-114.252 856.941,-110.395"/>
<polygon fill="#2e3436" stroke="#2e3436" points="867.058,-109.036 857.746,-114.827 862.103,-109.702 857.147,-110.367 857.147,-110.367 857.147,-110.367 862.103,-109.702 856.548,-105.907 867.058,-109.036 867.058,-109.036"/>
</g>
<!-- N16&#45;&gt;N16P -->
<g id="edge24" class="edge"><title>N16:e&#45;&gt;N16P</title>
<path fill="none" stroke="#2e3436" stroke-dasharray="1,5" d="M323.137,-293.83C370.839,-292.252 421.037,-279.912 463.407,-266.032"/>
<polygon fill="#2e3436" stroke="#2e3436" points="322.94,-290.333 313,-294 323.057,-297.332 322.94,-290.333"/>
</g>
</g>
</svg>
