<?xml version="1.0" encoding="UTF-8" standalone="no"?>
<!DOCTYPE svg PUBLIC "-//W3C//DTD SVG 1.1//EN"
 "http://www.w3.org/Graphics/SVG/1.1/DTD/svg11.dtd">
<!-- Generated by graphviz version 2.26.3 (20100126.1600)
 -->
<!-- Title: _anonymous_0 Pages: 1 -->
<svg width="4202pt" height="543pt"
 viewBox="0.00 0.00 4202.00 543.00" xmlns="http://www.w3.org/2000/svg" xmlns:xlink="http://www.w3.org/1999/xlink">
<g id="graph1" class="graph" transform="scale(1 1) rotate(0) translate(4 539)">
<title>_anonymous_0</title>
<polygon fill="white" stroke="white" points="-4,5 -4,-539 4199,-539 4199,5 -4,5"/>
<!-- root -->
<g id="node1" class="node"><title>root</title>
<polyline fill="none" stroke="#2e3436" points="42,-359 12,-359 "/>
<path fill="none" stroke="#2e3436" d="M12,-359C6,-359 1.77636e-14,-353 1.42109e-14,-347"/>
<polyline fill="none" stroke="#2e3436" points="1.42109e-14,-347 7.10543e-15,-335 "/>
<path fill="none" stroke="#2e3436" d="M7.10543e-15,-335C3.55271e-15,-329 6,-323 12,-323"/>
<polyline fill="none" stroke="#2e3436" points="12,-323 42,-323 "/>
<path fill="none" stroke="#2e3436" d="M42,-323C48,-323 54,-329 54,-335"/>
<polyline fill="none" stroke="#2e3436" points="54,-335 54,-347 "/>
<path fill="none" stroke="#2e3436" d="M54,-347C54,-353 48,-359 42,-359"/>
<text text-anchor="middle" x="27" y="-337.9" font-family="Helvetica,sans-Serif" font-size="14.00">root</text>
</g>
<!-- N5 -->
<g id="node25" class="node"><title>N5</title>
<polygon fill="none" stroke="#2e3436" points="772.5,-163.5 772.5,-308.5 1015.5,-308.5 1015.5,-163.5 772.5,-163.5"/>
<polygon fill="#2e3436" stroke="#2e3436" points="774,-284 774,-307 1015,-307 1015,-284 774,-284"/>
<polygon fill="#2e3436" stroke="#2e3436" points="774,-284 774,-307 775,-307 775,-284 774,-284"/>
<polygon fill="#2e3436" stroke="#2e3436" points="774,-307 774,-306 1015,-306 1015,-307 774,-307"/>
<polygon fill="#2e3436" stroke="#2e3436" points="1015,-307 1015,-284 1014,-284 1014,-307 1015,-307"/>
<polygon fill="#2e3436" stroke="#2e3436" points="1015,-284 1015,-285 774,-285 774,-284 1015,-284"/>
<text text-anchor="start" x="812.5" y="-292.233" font-family="Helvetica,sans-Serif" font-size="14.00" fill="white">o.g.l.k.item.ItemItemScorer</text>
<polygon fill="none" stroke="#2e3436" points="774,-264 774,-284 1015,-284 1015,-264 774,-264"/>
<text text-anchor="start" x="777" y="-270.733" font-family="Helvetica,sans-Serif" font-size="14.00">o.g.l.d.dao.UserEventDAO</text>
<polygon fill="none" stroke="#2e3436" points="774,-244 774,-264 1015,-264 1015,-244 774,-244"/>
<text text-anchor="start" x="777" y="-250.733" font-family="Helvetica,sans-Serif" font-size="14.00">o.g.l.k.i.model.ItemItemModel</text>
<polygon fill="none" stroke="#2e3436" points="774,-224 774,-244 1015,-244 1015,-224 774,-224"/>
<text text-anchor="start" x="777" y="-230.733" font-family="Helvetica,sans-Serif" font-size="14.00">o.g.l.d.history.UserHistorySummarizer</text>
<polygon fill="none" stroke="#2e3436" points="774,-204 774,-224 1015,-224 1015,-204 774,-204"/>
<text text-anchor="start" x="777" y="-210.733" font-family="Helvetica,sans-Serif" font-size="14.00">o.g.l.k.item.NeighborhoodScorer</text>
<polygon fill="none" stroke="#2e3436" points="774,-184 774,-204 1015,-204 1015,-184 774,-184"/>
<text text-anchor="start" x="777" y="-190.733" font-family="Helvetica,sans-Serif" font-size="14.00">o.g.l.k.item.ItemScoreAlgorithm</text>
<polygon fill="none" stroke="#2e3436" points="774,-164 774,-184 1015,-184 1015,-164 774,-164"/>
<text text-anchor="start" x="777" y="-170.733" font-family="Helvetica,sans-Serif" font-size="14.00">o.g.l.t.normalize.UserVectorNormalizer</text>
</g>
<!-- root&#45;&gt;N5 -->
<g id="edge23" class="edge"><title>root&#45;&gt;N5:H</title>
<path fill="none" stroke="#2e3436" d="M54.0409,-332.829C65.087,-329.834 78.053,-326.751 90,-325 387.675,-281.367 467.932,-295.668 763.833,-295.994"/>
<polygon fill="#2e3436" stroke="#2e3436" points="774,-296 763.997,-300.494 769,-295.997 764,-295.994 764,-295.994 764,-295.994 769,-295.997 764.003,-291.494 774,-296 774,-296"/>
</g>
<!-- N1 -->
<g id="node28" class="node"><title>N1</title>
<polygon fill="#2e3436" stroke="#2e3436" points="341,-417 111,-417 111,-381 341,-381 341,-417"/>
<text text-anchor="middle" x="226" y="-395.9" font-family="Helvetica,sans-Serif" font-size="14.00" fill="white">o.g.l.basic.TopNItemRecommender</text>
</g>
<!-- root&#45;&gt;N1 -->
<g id="edge14" class="edge"><title>root&#45;&gt;N1</title>
<path fill="none" stroke="#2e3436" d="M54.2528,-348.943C79.9399,-356.43 119.565,-367.979 154.284,-378.098"/>
<polygon fill="#2e3436" stroke="#2e3436" points="163.93,-380.909 153.071,-382.431 159.13,-379.51 154.33,-378.111 154.33,-378.111 154.33,-378.111 159.13,-379.51 155.589,-373.791 163.93,-380.909 163.93,-380.909"/>
</g>
<!-- N17 -->
<g id="node34" class="node"><title>N17</title>
<polygon fill="#2e3436" stroke="#2e3436" points="313,-184 139,-184 139,-148 313,-148 313,-184"/>
<text text-anchor="middle" x="226" y="-162.9" font-family="Helvetica,sans-Serif" font-size="14.00" fill="white">o.g.lenskit.RatingPredictor</text>
</g>
<!-- root&#45;&gt;N17 -->
<g id="edge19" class="edge"><title>root&#45;&gt;N17</title>
<path fill="none" stroke="#2e3436" d="M46.767,-322.924C59.1331,-311.663 75.4275,-296.912 90,-284 126.627,-251.547 169.315,-214.659 196.955,-190.896"/>
<polygon fill="#2e3436" stroke="#2e3436" points="204.68,-184.259 200.027,-194.189 200.887,-187.518 197.095,-190.776 197.095,-190.776 197.095,-190.776 200.887,-187.518 194.162,-187.363 204.68,-184.259 204.68,-184.259"/>
</g>
<!-- N19 -->
<g id="node37" class="node"><title>N19</title>
<polygon fill="none" stroke="#2e3436" points="786.5,-325.5 786.5,-390.5 1001.5,-390.5 1001.5,-325.5 786.5,-325.5"/>
<polygon fill="#2e3436" stroke="#2e3436" points="788,-366 788,-389 1001,-389 1001,-366 788,-366"/>
<polygon fill="#2e3436" stroke="#2e3436" points="788,-366 788,-389 789,-389 789,-366 788,-366"/>
<polygon fill="#2e3436" stroke="#2e3436" points="788,-389 788,-388 1001,-388 1001,-389 788,-389"/>
<polygon fill="#2e3436" stroke="#2e3436" points="1001,-389 1001,-366 1000,-366 1000,-389 1001,-389"/>
<polygon fill="#2e3436" stroke="#2e3436" points="1001,-366 1001,-367 788,-367 788,-366 1001,-366"/>
<text text-anchor="start" x="792.5" y="-374.233" font-family="Helvetica,sans-Serif" font-size="14.00" fill="white">o.g.l.k.item.ItemItemGlobalScorer</text>
<polygon fill="none" stroke="#2e3436" points="788,-346 788,-366 1001,-366 1001,-346 788,-346"/>
<text text-anchor="start" x="791" y="-352.733" font-family="Helvetica,sans-Serif" font-size="14.00">o.g.l.k.i.model.ItemItemModel</text>
<polygon fill="none" stroke="#2e3436" points="788,-326 788,-346 1001,-346 1001,-326 788,-326"/>
<text text-anchor="start" x="791" y="-332.733" font-family="Helvetica,sans-Serif" font-size="14.00">o.g.l.k.item.ItemScoreAlgorithm</text>
</g>
<!-- root&#45;&gt;N19 -->
<g id="edge21" class="edge"><title>root&#45;&gt;N19:H</title>
<path fill="none" stroke="#2e3436" d="M54.0246,-338.784C148.728,-331.637 474.025,-312.324 736,-360 756.302,-363.695 761.953,-373.969 777.914,-377.09"/>
<polygon fill="#2e3436" stroke="#2e3436" points="788,-378 777.636,-381.583 783.02,-377.55 778.04,-377.101 778.04,-377.101 778.04,-377.101 783.02,-377.55 778.445,-372.619 788,-378 788,-378"/>
</g>
<!-- N20 -->
<g id="node42" class="node"><title>N20</title>
<polygon fill="#2e3436" stroke="#2e3436" points="361,-502 91,-502 91,-466 361,-466 361,-502"/>
<text text-anchor="middle" x="226" y="-480.9" font-family="Helvetica,sans-Serif" font-size="14.00" fill="white">o.g.l.basic.TopNGlobalItemRecommender</text>
</g>
<!-- root&#45;&gt;N20 -->
<g id="edge28" class="edge"><title>root&#45;&gt;N20</title>
<path fill="none" stroke="#2e3436" d="M36.5963,-359.16C47.3818,-378.065 66.4957,-407.453 90,-426 109.395,-441.304 133.431,-453.299 155.876,-462.31"/>
<polygon fill="#2e3436" stroke="#2e3436" points="165.38,-465.99 154.429,-466.575 160.717,-464.184 156.054,-462.379 156.054,-462.379 156.054,-462.379 160.717,-464.184 157.679,-458.182 165.38,-465.99 165.38,-465.99"/>
</g>
<!-- N3P -->
<g id="node3" class="node"><title>N3P</title>
<ellipse fill="none" stroke="#2e3436" stroke-dasharray="5,2" cx="3958" cy="-332" rx="236.174" ry="19.0919"/>
<text text-anchor="middle" x="3958" y="-328.9" font-family="Helvetica,sans-Serif" font-size="14.00">org.grouplens.grapht.util.InstanceProvider@e47831d</text>
</g>
<!-- N3 -->
<g id="node4" class="node"><title>N3</title>
<polygon fill="#2e3436" stroke="#2e3436" points="3686,-350 3538,-350 3538,-314 3686,-314 3686,-350"/>
<text text-anchor="middle" x="3612" y="-328.9" font-family="Helvetica,sans-Serif" font-size="14.00" fill="white">o.g.l.d.dao.EventDAO</text>
</g>
<!-- N3&#45;&gt;N3P -->
<g id="edge3" class="edge"><title>N3:e&#45;&gt;N3P</title>
<path fill="none" stroke="#2e3436" stroke-dasharray="1,5" d="M3696.2,-332C3704.62,-332 3713.15,-332 3721.75,-332"/>
<polygon fill="#2e3436" stroke="#2e3436" points="3696,-328.5 3686,-332 3696,-335.5 3696,-328.5"/>
</g>
<!-- N2 -->
<g id="node6" class="node"><title>N2</title>
<polygon fill="none" stroke="#2e3436" points="2872,-321.5 2872,-366.5 3112,-366.5 3112,-321.5 2872,-321.5"/>
<polygon fill="#2e3436" stroke="#2e3436" points="2873,-342 2873,-365 3111,-365 3111,-342 2873,-342"/>
<polygon fill="#2e3436" stroke="#2e3436" points="2873,-342 2873,-365 2874,-365 2874,-342 2873,-342"/>
<polygon fill="#2e3436" stroke="#2e3436" points="2873,-365 2873,-364 3111,-364 3111,-365 2873,-365"/>
<polygon fill="#2e3436" stroke="#2e3436" points="3111,-365 3111,-342 3110,-342 3110,-365 3111,-365"/>
<polygon fill="#2e3436" stroke="#2e3436" points="3111,-342 3111,-343 2873,-343 2873,-342 3111,-342"/>
<text text-anchor="start" x="2877.5" y="-350.233" font-family="Helvetica,sans-Serif" font-size="14.00" fill="white">o.g.l.d.dao.PrefetchingUserEventDAO</text>
<polygon fill="none" stroke="#2e3436" points="2873,-322 2873,-342 3111,-342 3111,-322 2873,-322"/>
<text text-anchor="start" x="2876" y="-328.733" font-family="Helvetica,sans-Serif" font-size="14.00">o.g.l.d.dao.EventDAO</text>
</g>
<!-- N2&#45;&gt;N3 -->
<g id="edge30" class="edge"><title>N2:1&#45;&gt;N3</title>
<path fill="none" stroke="#2e3436" d="M3111,-332C3257.53,-332 3428.16,-332 3527.72,-332"/>
<polygon fill="#2e3436" stroke="#2e3436" points="3537.73,-332 3527.73,-336.5 3532.73,-332 3527.73,-332 3527.73,-332 3527.73,-332 3532.73,-332 3527.73,-327.5 3537.73,-332 3537.73,-332"/>
</g>
<!-- N4 -->
<g id="node7" class="node"><title>N4</title>
<polygon fill="none" stroke="#2e3436" points="792,-471.5 792,-516.5 996,-516.5 996,-471.5 792,-471.5"/>
<polygon fill="#2e3436" stroke="#2e3436" points="793,-492 793,-515 995,-515 995,-492 793,-492"/>
<polygon fill="#2e3436" stroke="#2e3436" points="793,-492 793,-515 794,-515 794,-492 793,-492"/>
<polygon fill="#2e3436" stroke="#2e3436" points="793,-515 793,-514 995,-514 995,-515 793,-515"/>
<polygon fill="#2e3436" stroke="#2e3436" points="995,-515 995,-492 994,-492 994,-515 995,-515"/>
<polygon fill="#2e3436" stroke="#2e3436" points="995,-492 995,-493 793,-493 793,-492 995,-492"/>
<text text-anchor="start" x="797.5" y="-500.233" font-family="Helvetica,sans-Serif" font-size="14.00" fill="white">o.g.l.d.dao.PrefetchingItemDAO</text>
<polygon fill="none" stroke="#2e3436" points="793,-472 793,-492 995,-492 995,-472 793,-472"/>
<text text-anchor="start" x="796" y="-478.733" font-family="Helvetica,sans-Serif" font-size="14.00">o.g.l.d.dao.EventDAO</text>
</g>
<!-- N4&#45;&gt;N3 -->
<g id="edge34" class="edge"><title>N4:1&#45;&gt;N3</title>
<path fill="none" stroke="#2e3436" d="M995,-482C1239.44,-482 1300.56,-482 1545,-482 1545,-482 1545,-482 2992,-482 3207.32,-482 3453.21,-395.476 3559.03,-353.856"/>
<polygon fill="#2e3436" stroke="#2e3436" points="3568.52,-350.094 3560.88,-357.961 3563.87,-351.935 3559.23,-353.777 3559.23,-353.777 3559.23,-353.777 3563.87,-351.935 3557.57,-349.594 3568.52,-350.094 3568.52,-350.094"/>
</g>
<!-- N8 -->
<g id="node8" class="node"><title>N8</title>
<polygon fill="none" stroke="#2e3436" points="2084.5,-329.5 2084.5,-374.5 2341.5,-374.5 2341.5,-329.5 2084.5,-329.5"/>
<polygon fill="#4e9a06" stroke="#4e9a06" points="2086,-350 2086,-373 2341,-373 2341,-350 2086,-350"/>
<polygon fill="#2e3436" stroke="#2e3436" points="2086,-350 2086,-373 2087,-373 2087,-350 2086,-350"/>
<polygon fill="#2e3436" stroke="#2e3436" points="2086,-373 2086,-372 2341,-372 2341,-373 2086,-373"/>
<polygon fill="#2e3436" stroke="#2e3436" points="2341,-373 2341,-350 2340,-350 2340,-373 2341,-373"/>
<polygon fill="#2e3436" stroke="#2e3436" points="2341,-350 2341,-351 2086,-351 2086,-350 2341,-350"/>
<text text-anchor="start" x="2096.5" y="-358.233" font-family="Helvetica,sans-Serif" font-size="14.00" fill="white">o.g.l.v.similarity.CosineVectorSimilarity</text>
<polygon fill="none" stroke="#2e3436" points="2086,-330 2086,-350 2341,-350 2341,-330 2086,-330"/>
<text text-anchor="start" x="2089" y="-336.733" font-family="Helvetica,sans-Serif" font-size="14.00">@o.g.l.v.similarity.SimilarityDamping: 0.0</text>
</g>
<!-- N7 -->
<g id="node9" class="node"><title>N7</title>
<polygon fill="none" stroke="#2e3436" points="1754.5,-333.5 1754.5,-378.5 1957.5,-378.5 1957.5,-333.5 1754.5,-333.5"/>
<polygon fill="#4e9a06" stroke="#4e9a06" points="1756,-354 1756,-377 1957,-377 1957,-354 1756,-354"/>
<polygon fill="#2e3436" stroke="#2e3436" points="1756,-354 1756,-377 1757,-377 1757,-354 1756,-354"/>
<polygon fill="#2e3436" stroke="#2e3436" points="1756,-377 1756,-376 1957,-376 1957,-377 1756,-377"/>
<polygon fill="#2e3436" stroke="#2e3436" points="1957,-377 1957,-354 1956,-354 1956,-377 1957,-377"/>
<polygon fill="#2e3436" stroke="#2e3436" points="1957,-354 1957,-355 1756,-355 1756,-354 1957,-354"/>
<text text-anchor="start" x="1760.5" y="-362.233" font-family="Helvetica,sans-Serif" font-size="14.00" fill="white">o.g.l.k.item.ItemVectorSimilarity</text>
<polygon fill="none" stroke="#2e3436" points="1756,-334 1756,-354 1957,-354 1957,-334 1756,-334"/>
<text text-anchor="start" x="1759" y="-340.733" font-family="Helvetica,sans-Serif" font-size="14.00">o.g.l.v.similarity.VectorSimilarity</text>
</g>
<!-- N7&#45;&gt;N8 -->
<g id="edge40" class="edge"><title>N7:1&#45;&gt;N8:H</title>
<path fill="none" stroke="#2e3436" d="M1957,-344C2011.38,-344 2026.35,-359.886 2075.96,-361.81"/>
<polygon fill="#2e3436" stroke="#2e3436" points="2086,-362 2075.92,-366.31 2081,-361.905 2076,-361.811 2076,-361.811 2076,-361.811 2081,-361.905 2076.09,-357.312 2086,-362 2086,-362"/>
</g>
<!-- N12P -->
<g id="node11" class="node"><title>N12P</title>
<polygon fill="none" stroke="#2e3436" points="3190,-239.5 3190,-304.5 3502,-304.5 3502,-239.5 3190,-239.5"/>
<polygon fill="#2e3436" stroke="#2e3436" points="3191,-280 3191,-303 3501,-303 3501,-280 3191,-280"/>
<polygon fill="#2e3436" stroke="#2e3436" points="3191,-280 3191,-303 3192,-303 3192,-280 3191,-280"/>
<polygon fill="#2e3436" stroke="#2e3436" points="3191,-303 3191,-302 3501,-302 3501,-303 3191,-303"/>
<polygon fill="#2e3436" stroke="#2e3436" points="3501,-303 3501,-280 3500,-280 3500,-303 3501,-303"/>
<polygon fill="#2e3436" stroke="#2e3436" points="3501,-280 3501,-281 3191,-281 3191,-280 3501,-280"/>
<text text-anchor="start" x="3195.5" y="-288.233" font-family="Helvetica,sans-Serif" font-size="14.00" fill="white">o.g.l.baseline.ItemMeanRatingItemScorer$Builder</text>
<polygon fill="none" stroke="#2e3436" points="3191,-260 3191,-280 3501,-280 3501,-260 3191,-260"/>
<text text-anchor="start" x="3194" y="-266.733" font-family="Helvetica,sans-Serif" font-size="14.00">o.g.l.d.dao.EventDAO</text>
<polygon fill="none" stroke="#2e3436" points="3191,-240 3191,-260 3501,-260 3501,-240 3191,-240"/>
<text text-anchor="start" x="3194" y="-246.733" font-family="Helvetica,sans-Serif" font-size="14.00">@o.g.l.baseline.MeanDamping: 0.0</text>
</g>
<!-- N12P&#45;&gt;N3 -->
<g id="edge48" class="edge"><title>N12P:1&#45;&gt;N3</title>
<path fill="none" stroke="#2e3436" stroke-dasharray="5,2" d="M3501,-270C3532.96,-270 3564.27,-289.831 3585.45,-307.061"/>
<polygon fill="#2e3436" stroke="#2e3436" points="3593.32,-313.733 3582.78,-310.702 3589.51,-310.501 3585.69,-307.269 3585.69,-307.269 3585.69,-307.269 3589.51,-310.501 3588.6,-303.836 3593.32,-313.733 3593.32,-313.733"/>
</g>
<!-- N12 -->
<g id="node12" class="node"><title>N12</title>
<polygon fill="#4e9a06" stroke="#2e3436" points="3125,-264 2859,-264 2859,-228 3125,-228 3125,-264"/>
<text text-anchor="middle" x="2992" y="-242.9" font-family="Helvetica,sans-Serif" font-size="14.00" fill="white">o.g.l.baseline.ItemMeanRatingItemScorer</text>
</g>
<!-- N12&#45;&gt;N12P -->
<g id="edge6" class="edge"><title>N12:e&#45;&gt;N12P</title>
<path fill="none" stroke="#2e3436" stroke-dasharray="1,5" d="M3136.25,-246.09C3153.78,-246.394 3171.87,-247.443 3189.73,-248.957"/>
<polygon fill="#2e3436" stroke="#2e3436" points="3136.03,-242.588 3126,-246 3135.97,-249.588 3136.03,-242.588"/>
</g>
<!-- N13 -->
<g id="node14" class="node"><title>N13</title>
<polygon fill="#4e9a06" stroke="#2e3436" points="3153,-160 2831,-160 2831,-124 3153,-124 3153,-160"/>
<text text-anchor="middle" x="2992" y="-138.9" font-family="Helvetica,sans-Serif" font-size="14.00" fill="white">o.g.l.d.history.RatingVectorUserHistorySummarizer</text>
</g>
<!-- N11 -->
<g id="node15" class="node"><title>N11</title>
<polygon fill="none" stroke="#2e3436" points="2432.5,-169.5 2432.5,-274.5 2793.5,-274.5 2793.5,-169.5 2432.5,-169.5"/>
<polygon fill="#2e3436" stroke="#2e3436" points="2434,-250 2434,-273 2793,-273 2793,-250 2434,-250"/>
<polygon fill="#2e3436" stroke="#2e3436" points="2434,-250 2434,-273 2435,-273 2435,-250 2434,-250"/>
<polygon fill="#2e3436" stroke="#2e3436" points="2434,-273 2434,-272 2793,-272 2793,-273 2434,-273"/>
<polygon fill="#2e3436" stroke="#2e3436" points="2793,-273 2793,-250 2792,-250 2792,-273 2793,-273"/>
<polygon fill="#2e3436" stroke="#2e3436" points="2793,-250 2793,-251 2434,-251 2434,-250 2793,-250"/>
<text text-anchor="start" x="2506.5" y="-258.233" font-family="Helvetica,sans-Serif" font-size="14.00" fill="white">o.g.l.baseline.UserMeanItemScorer</text>
<polygon fill="none" stroke="#2e3436" points="2434,-230 2434,-250 2793,-250 2793,-230 2434,-230"/>
<text text-anchor="start" x="2437" y="-236.733" font-family="Helvetica,sans-Serif" font-size="14.00">o.g.l.d.dao.UserEventDAO</text>
<polygon fill="none" stroke="#2e3436" points="2434,-210 2434,-230 2793,-230 2793,-210 2434,-210"/>
<text text-anchor="start" x="2437" y="-216.733" font-family="Helvetica,sans-Serif" font-size="14.00">@o.g.l.baseline.UserMeanBaseline: o.g.lenskit.ItemScorer</text>
<polygon fill="none" stroke="#2e3436" points="2434,-190 2434,-210 2793,-210 2793,-190 2434,-190"/>
<text text-anchor="start" x="2437" y="-196.733" font-family="Helvetica,sans-Serif" font-size="14.00">o.g.l.d.history.UserHistorySummarizer</text>
<polygon fill="none" stroke="#2e3436" points="2434,-170 2434,-190 2793,-190 2793,-170 2434,-170"/>
<text text-anchor="start" x="2437" y="-176.733" font-family="Helvetica,sans-Serif" font-size="14.00">@o.g.l.baseline.MeanDamping: 0.0</text>
</g>
<!-- N11&#45;&gt;N2 -->
<g id="edge46" class="edge"><title>N11:1&#45;&gt;N2:H</title>
<path fill="none" stroke="#2e3436" d="M2793,-240C2851.15,-240 2816.02,-340.613 2862.87,-352.797"/>
<polygon fill="#2e3436" stroke="#2e3436" points="2873,-354 2862.54,-357.289 2868.03,-353.41 2863.07,-352.82 2863.07,-352.82 2863.07,-352.82 2868.03,-353.41 2863.6,-348.352 2873,-354 2873,-354"/>
</g>
<!-- N11&#45;&gt;N12 -->
<g id="edge50" class="edge"><title>N11:2&#45;&gt;N12</title>
<path fill="none" stroke="#2e3436" d="M2793,-220C2822.38,-220 2853.99,-222.82 2883.17,-226.603"/>
<polygon fill="#2e3436" stroke="#2e3436" points="2893.39,-227.978 2882.88,-231.103 2888.43,-227.31 2883.48,-226.643 2883.48,-226.643 2883.48,-226.643 2888.43,-227.31 2884.08,-222.184 2893.39,-227.978 2893.39,-227.978"/>
</g>
<!-- N11&#45;&gt;N13 -->
<g id="edge52" class="edge"><title>N11:3&#45;&gt;N13</title>
<path fill="none" stroke="#2e3436" d="M2793,-200C2846.52,-200 2905.03,-180.421 2944.66,-164.015"/>
<polygon fill="#2e3436" stroke="#2e3436" points="2954.06,-160.034 2946.61,-168.076 2949.46,-161.983 2944.85,-163.932 2944.85,-163.932 2944.85,-163.932 2949.46,-161.983 2943.1,-159.788 2954.06,-160.034 2954.06,-160.034"/>
</g>
<!-- N10 -->
<g id="node16" class="node"><title>N10</title>
<polygon fill="none" stroke="#2e3436" points="2030.5,-229.5 2030.5,-274.5 2395.5,-274.5 2395.5,-229.5 2030.5,-229.5"/>
<polygon fill="#a40000" stroke="#a40000" points="2032,-250 2032,-273 2395,-273 2395,-250 2032,-250"/>
<polygon fill="#2e3436" stroke="#2e3436" points="2032,-250 2032,-273 2033,-273 2033,-250 2032,-250"/>
<polygon fill="#2e3436" stroke="#2e3436" points="2032,-273 2032,-272 2395,-272 2395,-273 2032,-273"/>
<polygon fill="#2e3436" stroke="#2e3436" points="2395,-273 2395,-250 2394,-250 2394,-273 2395,-273"/>
<polygon fill="#2e3436" stroke="#2e3436" points="2395,-250 2395,-251 2032,-251 2032,-250 2395,-250"/>
<text text-anchor="start" x="2036.5" y="-258.233" font-family="Helvetica,sans-Serif" font-size="14.00" fill="white">o.g.l.t.normalize.BaselineSubtractingUserVectorNormalizer</text>
<polygon fill="none" stroke="#2e3436" points="2032,-230 2032,-250 2395,-250 2395,-230 2032,-230"/>
<text text-anchor="start" x="2035" y="-236.733" font-family="Helvetica,sans-Serif" font-size="14.00">@o.g.l.baseline.BaselineScorer: o.g.lenskit.ItemScorer</text>
</g>
<!-- N10&#45;&gt;N11 -->
<g id="edge54" class="edge"><title>N10:1&#45;&gt;N11:H</title>
<path fill="none" stroke="#2e3436" d="M2395,-240C2410.86,-240 2413.57,-253.97 2424.09,-259.646"/>
<polygon fill="#2e3436" stroke="#2e3436" points="2434,-262 2423.23,-264.067 2429.14,-260.844 2424.27,-259.689 2424.27,-259.689 2424.27,-259.689 2429.14,-260.844 2425.31,-255.311 2434,-262 2434,-262"/>
</g>
<!-- N9 -->
<g id="node17" class="node"><title>N9</title>
<polygon fill="none" stroke="#2e3436" points="1718.5,-231.5 1718.5,-316.5 1993.5,-316.5 1993.5,-231.5 1718.5,-231.5"/>
<polygon fill="#2e3436" stroke="#2e3436" points="1720,-292 1720,-315 1993,-315 1993,-292 1720,-292"/>
<polygon fill="#2e3436" stroke="#2e3436" points="1720,-292 1720,-315 1721,-315 1721,-292 1720,-292"/>
<polygon fill="#2e3436" stroke="#2e3436" points="1720,-315 1720,-314 1993,-314 1993,-315 1720,-315"/>
<polygon fill="#2e3436" stroke="#2e3436" points="1993,-315 1993,-292 1992,-292 1992,-315 1993,-315"/>
<polygon fill="#2e3436" stroke="#2e3436" points="1993,-292 1993,-293 1720,-293 1720,-292 1993,-292"/>
<text text-anchor="start" x="1724.5" y="-300.233" font-family="Helvetica,sans-Serif" font-size="14.00" fill="white">o.g.l.k.i.model.ItemItemBuildContextFactory</text>
<polygon fill="none" stroke="#2e3436" points="1720,-272 1720,-292 1993,-292 1993,-272 1720,-272"/>
<text text-anchor="start" x="1723" y="-278.733" font-family="Helvetica,sans-Serif" font-size="14.00">o.g.l.d.dao.UserEventDAO</text>
<polygon fill="none" stroke="#2e3436" points="1720,-252 1720,-272 1993,-272 1993,-252 1720,-252"/>
<text text-anchor="start" x="1723" y="-258.733" font-family="Helvetica,sans-Serif" font-size="14.00">o.g.l.t.normalize.UserVectorNormalizer</text>
<polygon fill="none" stroke="#2e3436" points="1720,-232 1720,-252 1993,-252 1993,-232 1720,-232"/>
<text text-anchor="start" x="1723" y="-238.733" font-family="Helvetica,sans-Serif" font-size="14.00">o.g.l.d.history.UserHistorySummarizer</text>
</g>
<!-- N9&#45;&gt;N2 -->
<g id="edge44" class="edge"><title>N9:1&#45;&gt;N2:H</title>
<path fill="none" stroke="#2e3436" d="M1993,-282C2088.23,-282 2735.33,-349.843 2862.9,-353.818"/>
<polygon fill="#2e3436" stroke="#2e3436" points="2873,-354 2862.92,-358.319 2868,-353.91 2863,-353.82 2863,-353.82 2863,-353.82 2868,-353.91 2863.08,-349.321 2873,-354 2873,-354"/>
</g>
<!-- N9&#45;&gt;N13 -->
<g id="edge58" class="edge"><title>N9:3&#45;&gt;N13</title>
<path fill="none" stroke="#2e3436" d="M1993,-242C2011.91,-242 2012.13,-227.166 2030,-221 2200.77,-162.088 2252.1,-177.423 2432,-161 2561.76,-149.154 2709.04,-144.503 2819.98,-142.76"/>
<polygon fill="#2e3436" stroke="#2e3436" points="2830.26,-142.606 2820.33,-147.256 2825.26,-142.681 2820.26,-142.756 2820.26,-142.756 2820.26,-142.756 2825.26,-142.681 2820.19,-138.257 2830.26,-142.606 2830.26,-142.606"/>
</g>
<!-- N9&#45;&gt;N10 -->
<g id="edge56" class="edge"><title>N9:2&#45;&gt;N10:H</title>
<path fill="none" stroke="#2e3436" d="M1993,-262C2006.41,-262 2012.04,-262 2021.92,-262"/>
<polygon fill="#2e3436" stroke="#2e3436" points="2032,-262 2022,-266.5 2027,-262 2022,-262 2022,-262 2022,-262 2027,-262 2022,-257.5 2032,-262 2032,-262"/>
</g>
<!-- N14 -->
<g id="node18" class="node"><title>N14</title>
<polygon fill="none" stroke="#2e3436" points="1735.5,-169.5 1735.5,-214.5 1976.5,-214.5 1976.5,-169.5 1735.5,-169.5"/>
<polygon fill="#4e9a06" stroke="#4e9a06" points="1737,-190 1737,-213 1976,-213 1976,-190 1737,-190"/>
<polygon fill="#2e3436" stroke="#2e3436" points="1737,-190 1737,-213 1738,-213 1738,-190 1737,-190"/>
<polygon fill="#2e3436" stroke="#2e3436" points="1737,-213 1737,-212 1976,-212 1976,-213 1737,-213"/>
<polygon fill="#2e3436" stroke="#2e3436" points="1976,-213 1976,-190 1975,-190 1975,-213 1976,-213"/>
<polygon fill="#2e3436" stroke="#2e3436" points="1976,-190 1976,-191 1737,-191 1737,-190 1976,-190"/>
<text text-anchor="start" x="1764.5" y="-198.233" font-family="Helvetica,sans-Serif" font-size="14.00" fill="white">o.g.l.t.threshold.RealThreshold</text>
<polygon fill="none" stroke="#2e3436" points="1737,-170 1737,-190 1976,-190 1976,-170 1737,-170"/>
<text text-anchor="start" x="1740" y="-176.733" font-family="Helvetica,sans-Serif" font-size="14.00">@o.g.l.t.threshold.ThresholdValue: 0.0</text>
</g>
<!-- N6P -->
<g id="node20" class="node"><title>N6P</title>
<polygon fill="none" stroke="#2e3436" points="1408.5,-263.5 1408.5,-368.5 1681.5,-368.5 1681.5,-263.5 1408.5,-263.5"/>
<polygon fill="#2e3436" stroke="#2e3436" points="1410,-344 1410,-367 1681,-367 1681,-344 1410,-344"/>
<polygon fill="#2e3436" stroke="#2e3436" points="1410,-344 1410,-367 1411,-367 1411,-344 1410,-344"/>
<polygon fill="#2e3436" stroke="#2e3436" points="1410,-367 1410,-366 1681,-366 1681,-367 1410,-367"/>
<polygon fill="#2e3436" stroke="#2e3436" points="1681,-367 1681,-344 1680,-344 1680,-367 1681,-367"/>
<polygon fill="#2e3436" stroke="#2e3436" points="1681,-344 1681,-345 1410,-345 1410,-344 1681,-344"/>
<text text-anchor="start" x="1434.5" y="-352.233" font-family="Helvetica,sans-Serif" font-size="14.00" fill="white">o.g.l.k.i.model.ItemItemModelBuilder</text>
<polygon fill="none" stroke="#2e3436" points="1410,-324 1410,-344 1681,-344 1681,-324 1410,-324"/>
<text text-anchor="start" x="1413" y="-330.733" font-family="Helvetica,sans-Serif" font-size="14.00">o.g.l.k.item.ItemSimilarity</text>
<polygon fill="none" stroke="#2e3436" points="1410,-304 1410,-324 1681,-324 1681,-304 1410,-304"/>
<text text-anchor="start" x="1413" y="-310.733" font-family="Helvetica,sans-Serif" font-size="14.00">o.g.l.k.i.model.ItemItemBuildContextFactory</text>
<polygon fill="none" stroke="#2e3436" points="1410,-284 1410,-304 1681,-304 1681,-284 1410,-284"/>
<text text-anchor="start" x="1413" y="-290.733" font-family="Helvetica,sans-Serif" font-size="14.00">o.g.l.t.threshold.Threshold</text>
<polygon fill="none" stroke="#2e3436" points="1410,-264 1410,-284 1681,-284 1681,-264 1410,-264"/>
<text text-anchor="start" x="1413" y="-270.733" font-family="Helvetica,sans-Serif" font-size="14.00">@o.g.l.k.item.ModelSize: 0</text>
</g>
<!-- N6P&#45;&gt;N7 -->
<g id="edge42" class="edge"><title>N6P:1&#45;&gt;N7:H</title>
<path fill="none" stroke="#2e3436" stroke-dasharray="5,2" d="M1681,-334C1713.56,-334 1718.9,-359.83 1745.93,-365.077"/>
<polygon fill="#2e3436" stroke="#2e3436" points="1756,-366 1745.63,-369.568 1751.02,-365.543 1746.04,-365.087 1746.04,-365.087 1746.04,-365.087 1751.02,-365.543 1746.45,-360.606 1756,-366 1756,-366"/>
</g>
<!-- N6P&#45;&gt;N9 -->
<g id="edge60" class="edge"><title>N6P:2&#45;&gt;N9:H</title>
<path fill="none" stroke="#2e3436" stroke-dasharray="5,2" d="M1681,-314C1694.98,-314 1700,-307.896 1710.06,-305.226"/>
<polygon fill="#2e3436" stroke="#2e3436" points="1720,-304 1710.63,-309.69 1715.04,-304.612 1710.08,-305.224 1710.08,-305.224 1710.08,-305.224 1715.04,-304.612 1709.52,-300.758 1720,-304 1720,-304"/>
</g>
<!-- N6P&#45;&gt;N14 -->
<g id="edge62" class="edge"><title>N6P:3&#45;&gt;N14:H</title>
<path fill="none" stroke="#2e3436" stroke-dasharray="5,2" d="M1681,-294C1724.94,-294 1695.06,-216.475 1726.89,-203.756"/>
<polygon fill="#2e3436" stroke="#2e3436" points="1737,-202 1727.92,-208.145 1732.07,-202.856 1727.15,-203.711 1727.15,-203.711 1727.15,-203.711 1732.07,-202.856 1726.38,-199.278 1737,-202 1737,-202"/>
</g>
<!-- N6 -->
<g id="node21" class="node"><title>N6</title>
<polygon fill="#4e9a06" stroke="#2e3436" points="1329,-360 1095,-360 1095,-324 1329,-324 1329,-360"/>
<text text-anchor="middle" x="1212" y="-338.9" font-family="Helvetica,sans-Serif" font-size="14.00" fill="white">o.g.l.k.i.model.SimilarityMatrixModel</text>
</g>
<!-- N6&#45;&gt;N6P -->
<g id="edge9" class="edge"><title>N6:e&#45;&gt;N6P</title>
<path fill="none" stroke="#2e3436" stroke-dasharray="1,5" d="M1340.19,-341.907C1362.52,-341.505 1385.76,-339.839 1408.24,-337.53"/>
<polygon fill="#2e3436" stroke="#2e3436" points="1339.97,-338.408 1330,-342 1340.03,-345.408 1339.97,-338.408"/>
</g>
<!-- N15 -->
<g id="node23" class="node"><title>N15</title>
<polygon fill="#4e9a06" stroke="#2e3436" points="1371,-206 1053,-206 1053,-170 1371,-170 1371,-206"/>
<text text-anchor="middle" x="1212" y="-184.9" font-family="Helvetica,sans-Serif" font-size="14.00" fill="white">o.g.l.k.item.WeightedAverageNeighborhoodScorer</text>
</g>
<!-- N16 -->
<g id="node24" class="node"><title>N16</title>
<polygon fill="none" stroke="#2e3436" points="1090,-261.5 1090,-306.5 1334,-306.5 1334,-261.5 1090,-261.5"/>
<polygon fill="#4e9a06" stroke="#4e9a06" points="1091,-282 1091,-305 1333,-305 1333,-282 1091,-282"/>
<polygon fill="#2e3436" stroke="#2e3436" points="1091,-282 1091,-305 1092,-305 1092,-282 1091,-282"/>
<polygon fill="#2e3436" stroke="#2e3436" points="1091,-305 1091,-304 1333,-304 1333,-305 1091,-305"/>
<polygon fill="#2e3436" stroke="#2e3436" points="1333,-305 1333,-282 1332,-282 1332,-305 1333,-305"/>
<polygon fill="#2e3436" stroke="#2e3436" points="1333,-282 1333,-283 1091,-283 1091,-282 1333,-282"/>
<text text-anchor="start" x="1095.5" y="-290.233" font-family="Helvetica,sans-Serif" font-size="14.00" fill="white">o.g.l.k.item.DefaultItemScoreAlgorithm</text>
<polygon fill="none" stroke="#2e3436" points="1091,-262 1091,-282 1333,-282 1333,-262 1091,-262"/>
<text text-anchor="start" x="1094" y="-268.733" font-family="Helvetica,sans-Serif" font-size="14.00">@o.g.l.knn.NeighborhoodSize: 20</text>
</g>
<!-- N5&#45;&gt;N2 -->
<g id="edge38" class="edge"><title>N5:1&#45;&gt;N2:H</title>
<path fill="none" stroke="#2e3436" d="M1015,-274C1060.31,-274 1015.58,-342.044 1052,-369 1140.31,-434.359 1435.14,-406 1545,-406 1545,-406 1545,-406 2213,-406 2503.79,-406 2577.05,-355.212 2862.75,-354.021"/>
<polygon fill="#2e3436" stroke="#2e3436" points="2873,-354 2863.01,-358.521 2868,-354.01 2863,-354.021 2863,-354.021 2863,-354.021 2868,-354.01 2862.99,-349.521 2873,-354 2873,-354"/>
</g>
<!-- N5&#45;&gt;N13 -->
<g id="edge66" class="edge"><title>N5:3&#45;&gt;N13</title>
<path fill="none" stroke="#2e3436" d="M1015,-234C1173.89,-234 1214.65,-237.063 1372,-215 1590.56,-184.355 1635.3,-104 1856,-104 1856,-104 1856,-104 2213,-104 2422.01,-104 2662.19,-117.816 2819.96,-128.786"/>
<polygon fill="#2e3436" stroke="#2e3436" points="2830.23,-129.505 2819.94,-133.296 2825.25,-129.156 2820.26,-128.807 2820.26,-128.807 2820.26,-128.807 2825.25,-129.156 2820.57,-124.318 2830.23,-129.505 2830.23,-129.505"/>
</g>
<!-- N5&#45;&gt;N10 -->
<g id="edge72" class="edge"><title>N5:6&#45;&gt;N10:H</title>
<path fill="none" stroke="#2e3436" d="M1015,-174C1032.43,-174 1034.82,-163.931 1052,-161 1258.35,-125.803 1821.88,-41.8581 1994,-161 2030.2,-186.058 1991.55,-250.22 2022.06,-260.578"/>
<polygon fill="#2e3436" stroke="#2e3436" points="2032,-262 2021.46,-265.039 2027.05,-261.292 2022.1,-260.584 2022.1,-260.584 2022.1,-260.584 2027.05,-261.292 2022.74,-256.13 2032,-262 2032,-262"/>
</g>
<!-- N5&#45;&gt;N6 -->
<g id="edge64" class="edge"><title>N5:2&#45;&gt;N6</title>
<path fill="none" stroke="#2e3436" d="M1015,-254C1046.71,-254 1025.77,-297.191 1052,-315 1061.92,-321.737 1072.97,-326.979 1084.5,-331.039"/>
<polygon fill="#2e3436" stroke="#2e3436" points="1094.28,-334.177 1083.38,-335.406 1089.52,-332.649 1084.75,-331.121 1084.75,-331.121 1084.75,-331.121 1089.52,-332.649 1086.13,-326.836 1094.28,-334.177 1094.28,-334.177"/>
</g>
<!-- N5&#45;&gt;N15 -->
<g id="edge68" class="edge"><title>N5:4&#45;&gt;N15</title>
<path fill="none" stroke="#2e3436" d="M1015,-214C1044.09,-214 1075.38,-211.18 1104.27,-207.397"/>
<polygon fill="#2e3436" stroke="#2e3436" points="1114.39,-206.022 1105.08,-211.829 1109.43,-206.696 1104.48,-207.37 1104.48,-207.37 1104.48,-207.37 1109.43,-206.696 1103.87,-202.911 1114.39,-206.022 1114.39,-206.022"/>
</g>
<!-- N5&#45;&gt;N16 -->
<g id="edge70" class="edge"><title>N5:5&#45;&gt;N16:H</title>
<path fill="none" stroke="#2e3436" d="M1015,-194C1044.09,-194 1034.35,-224.874 1052,-248 1065.85,-266.143 1064.96,-286.744 1080.94,-292.46"/>
<polygon fill="#2e3436" stroke="#2e3436" points="1091,-294 1080.43,-296.935 1086.06,-293.243 1081.12,-292.487 1081.12,-292.487 1081.12,-292.487 1086.06,-293.243 1081.8,-288.039 1091,-294 1091,-294"/>
</g>
<!-- N1P -->
<g id="node27" class="node"><title>N1P</title>
<polygon fill="none" stroke="#2e3436" points="425,-368.5 425,-453.5 709,-453.5 709,-368.5 425,-368.5"/>
<polygon fill="#2e3436" stroke="#2e3436" points="426,-429 426,-452 708,-452 708,-429 426,-429"/>
<polygon fill="#2e3436" stroke="#2e3436" points="426,-429 426,-452 427,-452 427,-429 426,-429"/>
<polygon fill="#2e3436" stroke="#2e3436" points="426,-452 426,-451 708,-451 708,-452 426,-452"/>
<polygon fill="#2e3436" stroke="#2e3436" points="708,-452 708,-429 707,-429 707,-452 708,-452"/>
<polygon fill="#2e3436" stroke="#2e3436" points="708,-429 708,-430 426,-430 426,-429 708,-429"/>
<text text-anchor="start" x="430.5" y="-437.233" font-family="Helvetica,sans-Serif" font-size="14.00" fill="white">o.g.l.basic.TopNItemRecommender$Provider</text>
<polygon fill="none" stroke="#2e3436" points="426,-409 426,-429 708,-429 708,-409 426,-409"/>
<text text-anchor="start" x="429" y="-415.733" font-family="Helvetica,sans-Serif" font-size="14.00">o.g.l.d.dao.UserEventDAO</text>
<polygon fill="none" stroke="#2e3436" points="426,-389 426,-409 708,-409 708,-389 426,-389"/>
<text text-anchor="start" x="429" y="-395.733" font-family="Helvetica,sans-Serif" font-size="14.00">o.g.l.d.dao.ItemDAO</text>
<polygon fill="none" stroke="#2e3436" points="426,-369 426,-389 708,-389 708,-369 426,-369"/>
<text text-anchor="start" x="429" y="-375.733" font-family="Helvetica,sans-Serif" font-size="14.00">o.g.lenskit.ItemScorer</text>
</g>
<!-- N1P&#45;&gt;N2 -->
<g id="edge32" class="edge"><title>N1P:1&#45;&gt;N2:H</title>
<path fill="none" stroke="#2e3436" d="M708,-419C932.275,-419 987.725,-444 1212,-444 1212,-444 1212,-444 2213,-444 2472.42,-444 2542.73,-452.496 2794,-388 2827.41,-379.425 2833.73,-358.642 2862.72,-354.664"/>
<polygon fill="#2e3436" stroke="#2e3436" points="2873,-354 2863.31,-359.136 2868.01,-354.323 2863.02,-354.645 2863.02,-354.645 2863.02,-354.645 2868.01,-354.323 2862.73,-350.154 2873,-354 2873,-354"/>
</g>
<!-- N1P&#45;&gt;N4 -->
<g id="edge36" class="edge"><title>N1P:2&#45;&gt;N4:H</title>
<path fill="none" stroke="#2e3436" d="M708,-399C764.289,-399 736.973,-491.285 782.811,-502.821"/>
<polygon fill="#2e3436" stroke="#2e3436" points="793,-504 782.549,-507.32 788.033,-503.425 783.066,-502.85 783.066,-502.85 783.066,-502.85 788.033,-503.425 783.584,-498.38 793,-504 793,-504"/>
</g>
<!-- N1P&#45;&gt;N5 -->
<g id="edge74" class="edge"><title>N1P:3&#45;&gt;N5:H</title>
<path fill="none" stroke="#2e3436" d="M708,-379C751.264,-379 730.999,-309.059 763.84,-297.584"/>
<polygon fill="#2e3436" stroke="#2e3436" points="774,-296 764.813,-301.987 769.06,-296.77 764.119,-297.54 764.119,-297.54 764.119,-297.54 769.06,-296.77 763.426,-293.094 774,-296 774,-296"/>
</g>
<!-- N1&#45;&gt;N1P -->
<g id="edge12" class="edge"><title>N1:e&#45;&gt;N1P</title>
<path fill="none" stroke="#2e3436" stroke-dasharray="1,5" d="M352.126,-399.039C375.92,-399.221 400.795,-400.016 424.831,-401.118"/>
<polygon fill="#2e3436" stroke="#2e3436" points="352.014,-395.539 342,-399 351.986,-402.539 352.014,-395.539"/>
</g>
<!-- N18 -->
<g id="node31" class="node"><title>N18</title>
<ellipse fill="none" stroke="#2e3436" cx="894" cy="-19" rx="27" ry="19.0919"/>
<text text-anchor="middle" x="894" y="-15.9" font-family="Helvetica,sans-Serif" font-size="14.00">null</text>
</g>
<!-- N17P -->
<g id="node33" class="node"><title>N17P</title>
<polygon fill="none" stroke="#2e3436" points="398.5,-79.5 398.5,-164.5 735.5,-164.5 735.5,-79.5 398.5,-79.5"/>
<polygon fill="#2e3436" stroke="#2e3436" points="400,-140 400,-163 735,-163 735,-140 400,-140"/>
<polygon fill="#2e3436" stroke="#2e3436" points="400,-140 400,-163 401,-163 401,-140 400,-140"/>
<polygon fill="#2e3436" stroke="#2e3436" points="400,-163 400,-162 735,-162 735,-163 400,-163"/>
<polygon fill="#2e3436" stroke="#2e3436" points="735,-163 735,-140 734,-140 734,-163 735,-163"/>
<polygon fill="#2e3436" stroke="#2e3436" points="735,-140 735,-141 400,-141 400,-140 735,-140"/>
<text text-anchor="start" x="438.5" y="-148.233" font-family="Helvetica,sans-Serif" font-size="14.00" fill="white">o.g.l.basic.SimpleRatingPredictor$Provider</text>
<polygon fill="none" stroke="#2e3436" points="400,-120 400,-140 735,-140 735,-120 400,-120"/>
<text text-anchor="start" x="403" y="-126.733" font-family="Helvetica,sans-Serif" font-size="14.00">o.g.lenskit.ItemScorer</text>
<polygon fill="none" stroke="#2e3436" points="400,-100 400,-120 735,-120 735,-100 400,-100"/>
<text text-anchor="start" x="403" y="-106.733" font-family="Helvetica,sans-Serif" font-size="14.00">@o.g.l.baseline.BaselineScorer: o.g.lenskit.ItemScorer</text>
<polygon fill="none" stroke="#2e3436" points="400,-80 400,-100 735,-100 735,-80 400,-80"/>
<text text-anchor="start" x="403" y="-86.7333" font-family="Helvetica,sans-Serif" font-size="14.00">o.g.l.d.pref.PreferenceDomain</text>
</g>
<!-- N17P&#45;&gt;N11 -->
<g id="edge78" class="edge"><title>N17P:2&#45;&gt;N11:H</title>
<path fill="none" stroke="#2e3436" d="M735,-110C947.9,-110 999.1,-66 1212,-66 1212,-66 1212,-66 1545,-66 1745.03,-66 1797.35,-60.3888 1994,-97 2177.81,-131.221 2237.71,-121.48 2396,-221 2413.58,-232.055 2410.96,-253.278 2424.14,-259.944"/>
<polygon fill="#2e3436" stroke="#2e3436" points="2434,-262 2423.29,-264.364 2429.11,-260.979 2424.21,-259.958 2424.21,-259.958 2424.21,-259.958 2429.11,-260.979 2425.13,-255.553 2434,-262 2434,-262"/>
</g>
<!-- N17P&#45;&gt;N5 -->
<g id="edge76" class="edge"><title>N17P:1&#45;&gt;N5:H</title>
<path fill="none" stroke="#2e3436" d="M735,-130C806.938,-130 709.161,-279.569 763.862,-294.759"/>
<polygon fill="#2e3436" stroke="#2e3436" points="774,-296 763.527,-299.252 769.037,-295.393 764.074,-294.785 764.074,-294.785 764.074,-294.785 769.037,-295.393 764.621,-290.318 774,-296 774,-296"/>
</g>
<!-- N17P&#45;&gt;N18 -->
<g id="edge80" class="edge"><title>N17P:3&#45;&gt;N18</title>
<path fill="none" stroke="#2e3436" d="M735,-90C758.572,-90 751.679,-63.9461 772,-52 798.267,-36.5584 831.936,-28.159 857.247,-23.7056"/>
<polygon fill="#2e3436" stroke="#2e3436" points="867.192,-22.0814 858.048,-28.1345 862.257,-22.8874 857.322,-23.6933 857.322,-23.6933 857.322,-23.6933 862.257,-22.8874 856.597,-19.2521 867.192,-22.0814 867.192,-22.0814"/>
</g>
<!-- N17&#45;&gt;N17P -->
<g id="edge17" class="edge"><title>N17:e&#45;&gt;N17P</title>
<path fill="none" stroke="#2e3436" stroke-dasharray="1,5" d="M323.14,-165.889C347.808,-165.355 373.384,-162.946 398.283,-159.508"/>
<polygon fill="#2e3436" stroke="#2e3436" points="322.961,-162.39 313,-166 323.038,-169.39 322.961,-162.39"/>
</g>
<!-- N19&#45;&gt;N6 -->
<g id="edge82" class="edge"><title>N19:1&#45;&gt;N6</title>
<path fill="none" stroke="#2e3436" d="M1001,-356C1027.98,-356 1056.85,-354.847 1084.31,-353.202"/>
<polygon fill="#2e3436" stroke="#2e3436" points="1094.35,-352.575 1084.65,-357.689 1089.36,-352.887 1084.37,-353.198 1084.37,-353.198 1084.37,-353.198 1089.36,-352.887 1084.09,-348.707 1094.35,-352.575 1094.35,-352.575"/>
</g>
<!-- N19&#45;&gt;N16 -->
<g id="edge84" class="edge"><title>N19:2&#45;&gt;N16:H</title>
<path fill="none" stroke="#2e3436" d="M1001,-336C1041.52,-336 1046.29,-300.608 1080.95,-294.802"/>
<polygon fill="#2e3436" stroke="#2e3436" points="1091,-294 1081.39,-299.281 1086.02,-294.397 1081.03,-294.795 1081.03,-294.795 1081.03,-294.795 1086.02,-294.397 1080.67,-290.309 1091,-294 1091,-294"/>
</g>
<!-- N20P -->
<g id="node41" class="node"><title>N20P</title>
<polygon fill="none" stroke="#2e3436" points="405,-470.5 405,-535.5 729,-535.5 729,-470.5 405,-470.5"/>
<polygon fill="#2e3436" stroke="#2e3436" points="406,-511 406,-534 728,-534 728,-511 406,-511"/>
<polygon fill="#2e3436" stroke="#2e3436" points="406,-511 406,-534 407,-534 407,-511 406,-511"/>
<polygon fill="#2e3436" stroke="#2e3436" points="406,-534 406,-533 728,-533 728,-534 406,-534"/>
<polygon fill="#2e3436" stroke="#2e3436" points="728,-534 728,-511 727,-511 727,-534 728,-534"/>
<polygon fill="#2e3436" stroke="#2e3436" points="728,-511 728,-512 406,-512 406,-511 728,-511"/>
<text text-anchor="start" x="410.5" y="-519.233" font-family="Helvetica,sans-Serif" font-size="14.00" fill="white">o.g.l.basic.TopNGlobalItemRecommender$Provider</text>
<polygon fill="none" stroke="#2e3436" points="406,-491 406,-511 728,-511 728,-491 406,-491"/>
<text text-anchor="start" x="409" y="-497.733" font-family="Helvetica,sans-Serif" font-size="14.00">o.g.l.d.dao.ItemDAO</text>
<polygon fill="none" stroke="#2e3436" points="406,-471 406,-491 728,-491 728,-471 406,-471"/>
<text text-anchor="start" x="409" y="-477.733" font-family="Helvetica,sans-Serif" font-size="14.00">o.g.lenskit.GlobalItemScorer</text>
</g>
<!-- N20P&#45;&gt;N4 -->
<g id="edge86" class="edge"><title>N20P:1&#45;&gt;N4:H</title>
<path fill="none" stroke="#2e3436" d="M728,-501C753.192,-501 761.873,-503.276 782.808,-503.863"/>
<polygon fill="#2e3436" stroke="#2e3436" points="793,-504 782.941,-508.365 788,-503.933 783.001,-503.866 783.001,-503.866 783.001,-503.866 788,-503.933 783.061,-499.366 793,-504 793,-504"/>
</g>
<!-- N20P&#45;&gt;N19 -->
<g id="edge88" class="edge"><title>N20P:2&#45;&gt;N19:H</title>
<path fill="none" stroke="#2e3436" d="M728,-481C777.046,-481 741.298,-392.722 777.758,-379.618"/>
<polygon fill="#2e3436" stroke="#2e3436" points="788,-378 778.825,-384.005 783.061,-378.78 778.122,-379.56 778.122,-379.56 778.122,-379.56 783.061,-378.78 777.42,-375.116 788,-378 788,-378"/>
</g>
<!-- N20&#45;&gt;N20P -->
<g id="edge26" class="edge"><title>N20:e&#45;&gt;N20P</title>
<path fill="none" stroke="#2e3436" stroke-dasharray="1,5" d="M372.211,-484.076C382.941,-484.232 393.897,-484.622 404.872,-485.189"/>
<polygon fill="#2e3436" stroke="#2e3436" points="372.026,-480.574 362,-484 371.974,-487.574 372.026,-480.574"/>
</g>
</g>
</svg>
