<?xml version="1.0" encoding="UTF-8" standalone="no"?>
<!DOCTYPE svg PUBLIC "-//W3C//DTD SVG 1.1//EN"
 "http://www.w3.org/Graphics/SVG/1.1/DTD/svg11.dtd">
<!-- Generated by graphviz version 2.26.3 (20100126.1600)
 -->
<!-- Title: _anonymous_0 Pages: 1 -->
<svg width="3134pt" height="425pt"
 viewBox="0.00 0.00 3134.00 425.00" xmlns="http://www.w3.org/2000/svg" xmlns:xlink="http://www.w3.org/1999/xlink">
<g id="graph1" class="graph" transform="scale(1 1) rotate(0) translate(4 421)">
<title>_anonymous_0</title>
<polygon fill="white" stroke="white" points="-4,5 -4,-421 3131,-421 3131,5 -4,5"/>
<!-- root -->
<g id="node1" class="node"><title>root</title>
<polyline fill="none" stroke="#2e3436" points="42,-267 12,-267 "/>
<path fill="none" stroke="#2e3436" d="M12,-267C6,-267 1.77636e-14,-261 1.42109e-14,-255"/>
<polyline fill="none" stroke="#2e3436" points="1.42109e-14,-255 7.10543e-15,-243 "/>
<path fill="none" stroke="#2e3436" d="M7.10543e-15,-243C3.55271e-15,-237 6,-231 12,-231"/>
<polyline fill="none" stroke="#2e3436" points="12,-231 42,-231 "/>
<path fill="none" stroke="#2e3436" d="M42,-231C48,-231 54,-237 54,-243"/>
<polyline fill="none" stroke="#2e3436" points="54,-243 54,-255 "/>
<path fill="none" stroke="#2e3436" d="M54,-255C54,-261 48,-267 42,-267"/>
<text text-anchor="middle" x="27" y="-245.9" font-family="Helvetica,sans-Serif" font-size="14.00">root</text>
</g>
<!-- N5 -->
<g id="node17" class="node"><title>N5</title>
<polygon fill="none" stroke="#2e3436" points="772.5,-148.5 772.5,-233.5 999.5,-233.5 999.5,-148.5 772.5,-148.5"/>
<polygon fill="#2e3436" stroke="#2e3436" points="774,-209 774,-232 999,-232 999,-209 774,-209"/>
<polygon fill="#2e3436" stroke="#2e3436" points="774,-209 774,-232 775,-232 775,-209 774,-209"/>
<polygon fill="#2e3436" stroke="#2e3436" points="774,-232 774,-231 999,-231 999,-232 774,-232"/>
<polygon fill="#2e3436" stroke="#2e3436" points="999,-232 999,-209 998,-209 998,-232 999,-232"/>
<polygon fill="#2e3436" stroke="#2e3436" points="999,-209 999,-210 774,-210 774,-209 999,-209"/>
<text text-anchor="start" x="778.5" y="-217.233" font-family="Helvetica,sans-Serif" font-size="14.00" fill="white">o.g.l.slopeone.SlopeOneItemScorer</text>
<polygon fill="none" stroke="#2e3436" points="774,-189 774,-209 999,-209 999,-189 774,-189"/>
<text text-anchor="start" x="777" y="-195.733" font-family="Helvetica,sans-Serif" font-size="14.00">o.g.l.d.dao.UserEventDAO</text>
<polygon fill="none" stroke="#2e3436" points="774,-169 774,-189 999,-189 999,-169 774,-169"/>
<text text-anchor="start" x="777" y="-175.733" font-family="Helvetica,sans-Serif" font-size="14.00">o.g.l.slopeone.SlopeOneModel</text>
<polygon fill="none" stroke="#2e3436" points="774,-149 774,-169 999,-169 999,-149 774,-149"/>
<text text-anchor="start" x="777" y="-155.733" font-family="Helvetica,sans-Serif" font-size="14.00">o.g.l.d.pref.PreferenceDomain</text>
</g>
<!-- root&#45;&gt;N5 -->
<g id="edge26" class="edge"><title>root&#45;&gt;N5:H</title>
<path fill="none" stroke="#2e3436" d="M54.1202,-247.248C150.271,-241.193 484.094,-221.489 763.661,-221.009"/>
<polygon fill="#2e3436" stroke="#2e3436" points="774,-221 764.004,-225.509 769,-221.004 764,-221.009 764,-221.009 764,-221.009 769,-221.004 763.996,-216.509 774,-221 774,-221"/>
</g>
<!-- N1 -->
<g id="node20" class="node"><title>N1</title>
<polygon fill="#2e3436" stroke="#2e3436" points="341,-374 111,-374 111,-338 341,-338 341,-374"/>
<text text-anchor="middle" x="226" y="-352.9" font-family="Helvetica,sans-Serif" font-size="14.00" fill="white">o.g.l.basic.TopNItemRecommender</text>
</g>
<!-- root&#45;&gt;N1 -->
<g id="edge11" class="edge"><title>root&#45;&gt;N1</title>
<path fill="none" stroke="#2e3436" d="M44.74,-267.085C56.7132,-278.529 73.3209,-292.999 90,-303 110.918,-315.542 135.332,-326.145 157.655,-334.495"/>
<polygon fill="#2e3436" stroke="#2e3436" points="167.078,-337.934 156.142,-338.732 162.381,-336.219 157.684,-334.505 157.684,-334.505 157.684,-334.505 162.381,-336.219 159.227,-330.278 167.078,-337.934 167.078,-337.934"/>
</g>
<!-- N12 -->
<g id="node26" class="node"><title>N12</title>
<polygon fill="#2e3436" stroke="#2e3436" points="361,-294 91,-294 91,-258 361,-258 361,-294"/>
<text text-anchor="middle" x="226" y="-272.9" font-family="Helvetica,sans-Serif" font-size="14.00" fill="white">o.g.l.basic.TopNGlobalItemRecommender</text>
</g>
<!-- root&#45;&gt;N12 -->
<g id="edge16" class="edge"><title>root&#45;&gt;N12</title>
<path fill="none" stroke="#2e3436" d="M54.2528,-252.698C62.6472,-253.837 72.5301,-255.177 83.2438,-256.631"/>
<polygon fill="#2e3436" stroke="#2e3436" points="93.2976,-257.995 82.7834,-261.11 88.343,-257.323 83.3884,-256.651 83.3884,-256.651 83.3884,-256.651 88.343,-257.323 83.9934,-252.191 93.2976,-257.995 93.2976,-257.995"/>
</g>
<!-- N14 -->
<g id="node36" class="node"><title>N14</title>
<polygon fill="#2e3436" stroke="#2e3436" points="313,-183 139,-183 139,-147 313,-147 313,-183"/>
<text text-anchor="middle" x="226" y="-161.9" font-family="Helvetica,sans-Serif" font-size="14.00" fill="white">o.g.lenskit.RatingPredictor</text>
</g>
<!-- root&#45;&gt;N14 -->
<g id="edge24" class="edge"><title>root&#45;&gt;N14</title>
<path fill="none" stroke="#2e3436" d="M52.2117,-230.926C63.4116,-223.449 76.9845,-215.116 90,-209 108.626,-200.247 129.456,-192.548 149.108,-186.138"/>
<polygon fill="#2e3436" stroke="#2e3436" points="158.646,-183.096 150.486,-190.422 153.882,-184.615 149.118,-186.135 149.118,-186.135 149.118,-186.135 153.882,-184.615 147.751,-181.848 158.646,-183.096 158.646,-183.096"/>
</g>
<!-- N3P -->
<g id="node3" class="node"><title>N3P</title>
<ellipse fill="none" stroke="#2e3436" stroke-dasharray="5,2" cx="2887" cy="-227" rx="239.002" ry="19.0919"/>
<text text-anchor="middle" x="2887" y="-223.9" font-family="Helvetica,sans-Serif" font-size="14.00">org.grouplens.grapht.util.InstanceProvider@14f6d69a</text>
</g>
<!-- N3 -->
<g id="node4" class="node"><title>N3</title>
<polygon fill="#2e3436" stroke="#2e3436" points="2553,-245 2405,-245 2405,-209 2553,-209 2553,-245"/>
<text text-anchor="middle" x="2479" y="-223.9" font-family="Helvetica,sans-Serif" font-size="14.00" fill="white">o.g.l.d.dao.EventDAO</text>
</g>
<!-- N3&#45;&gt;N3P -->
<g id="edge3" class="edge"><title>N3:e&#45;&gt;N3P</title>
<path fill="none" stroke="#2e3436" stroke-dasharray="1,5" d="M2563.14,-227C2590.8,-227 2619.55,-227 2647.99,-227"/>
<polygon fill="#2e3436" stroke="#2e3436" points="2563,-223.5 2553,-227 2563,-230.5 2563,-223.5"/>
</g>
<!-- N2 -->
<g id="node6" class="node"><title>N2</title>
<polygon fill="none" stroke="#2e3436" points="2028,-216.5 2028,-261.5 2268,-261.5 2268,-216.5 2028,-216.5"/>
<polygon fill="#2e3436" stroke="#2e3436" points="2029,-237 2029,-260 2267,-260 2267,-237 2029,-237"/>
<polygon fill="#2e3436" stroke="#2e3436" points="2029,-237 2029,-260 2030,-260 2030,-237 2029,-237"/>
<polygon fill="#2e3436" stroke="#2e3436" points="2029,-260 2029,-259 2267,-259 2267,-260 2029,-260"/>
<polygon fill="#2e3436" stroke="#2e3436" points="2267,-260 2267,-237 2266,-237 2266,-260 2267,-260"/>
<polygon fill="#2e3436" stroke="#2e3436" points="2267,-237 2267,-238 2029,-238 2029,-237 2267,-237"/>
<text text-anchor="start" x="2033.5" y="-245.233" font-family="Helvetica,sans-Serif" font-size="14.00" fill="white">o.g.l.d.dao.PrefetchingUserEventDAO</text>
<polygon fill="none" stroke="#2e3436" points="2029,-217 2029,-237 2267,-237 2267,-217 2029,-217"/>
<text text-anchor="start" x="2032" y="-223.733" font-family="Helvetica,sans-Serif" font-size="14.00">o.g.l.d.dao.EventDAO</text>
</g>
<!-- N2&#45;&gt;N3 -->
<g id="edge28" class="edge"><title>N2:1&#45;&gt;N3</title>
<path fill="none" stroke="#2e3436" d="M2267,-227C2309.06,-227 2355.82,-227 2394.7,-227"/>
<polygon fill="#2e3436" stroke="#2e3436" points="2404.93,-227 2394.93,-231.5 2399.93,-227 2394.93,-227 2394.93,-227 2394.93,-227 2399.93,-227 2394.93,-222.5 2404.93,-227 2404.93,-227"/>
</g>
<!-- N4 -->
<g id="node7" class="node"><title>N4</title>
<polygon fill="none" stroke="#2e3436" points="1710,-284.5 1710,-329.5 1914,-329.5 1914,-284.5 1710,-284.5"/>
<polygon fill="#2e3436" stroke="#2e3436" points="1711,-305 1711,-328 1913,-328 1913,-305 1711,-305"/>
<polygon fill="#2e3436" stroke="#2e3436" points="1711,-305 1711,-328 1712,-328 1712,-305 1711,-305"/>
<polygon fill="#2e3436" stroke="#2e3436" points="1711,-328 1711,-327 1913,-327 1913,-328 1711,-328"/>
<polygon fill="#2e3436" stroke="#2e3436" points="1913,-328 1913,-305 1912,-305 1912,-328 1913,-328"/>
<polygon fill="#2e3436" stroke="#2e3436" points="1913,-305 1913,-306 1711,-306 1711,-305 1913,-305"/>
<text text-anchor="start" x="1715.5" y="-313.233" font-family="Helvetica,sans-Serif" font-size="14.00" fill="white">o.g.l.d.dao.PrefetchingItemDAO</text>
<polygon fill="none" stroke="#2e3436" points="1711,-285 1711,-305 1913,-305 1913,-285 1711,-285"/>
<text text-anchor="start" x="1714" y="-291.733" font-family="Helvetica,sans-Serif" font-size="14.00">o.g.l.d.dao.EventDAO</text>
</g>
<!-- N4&#45;&gt;N3 -->
<g id="edge32" class="edge"><title>N4:1&#45;&gt;N3</title>
<path fill="none" stroke="#2e3436" d="M1913,-295C2089.79,-295 2135.35,-297.472 2310,-270 2343.05,-264.801 2379.06,-256.078 2409.31,-247.842"/>
<polygon fill="#2e3436" stroke="#2e3436" points="2419.34,-245.074 2410.9,-252.073 2414.52,-246.404 2409.7,-247.735 2409.7,-247.735 2409.7,-247.735 2414.52,-246.404 2408.5,-243.398 2419.34,-245.074 2419.34,-245.074"/>
</g>
<!-- N9 -->
<g id="node8" class="node"><title>N9</title>
<polygon fill="#4e9a06" stroke="#2e3436" points="2611,-181 2347,-181 2347,-145 2611,-145 2611,-181"/>
<text text-anchor="middle" x="2479" y="-159.9" font-family="Helvetica,sans-Serif" font-size="14.00" fill="white">o.g.l.t.normalize.IdentityVectorNormalizer</text>
</g>
<!-- N8 -->
<g id="node9" class="node"><title>N8</title>
<polygon fill="none" stroke="#2e3436" points="2004,-152.5 2004,-197.5 2292,-197.5 2292,-152.5 2004,-152.5"/>
<polygon fill="#4e9a06" stroke="#4e9a06" points="2005,-173 2005,-196 2291,-196 2291,-173 2005,-173"/>
<polygon fill="#2e3436" stroke="#2e3436" points="2005,-173 2005,-196 2006,-196 2006,-173 2005,-173"/>
<polygon fill="#2e3436" stroke="#2e3436" points="2005,-196 2005,-195 2291,-195 2291,-196 2005,-196"/>
<polygon fill="#2e3436" stroke="#2e3436" points="2291,-196 2291,-173 2290,-173 2290,-196 2291,-196"/>
<polygon fill="#2e3436" stroke="#2e3436" points="2291,-173 2291,-174 2005,-174 2005,-173 2291,-173"/>
<text text-anchor="start" x="2009.5" y="-181.233" font-family="Helvetica,sans-Serif" font-size="14.00" fill="white">o.g.l.t.normalize.DefaultUserVectorNormalizer</text>
<polygon fill="none" stroke="#2e3436" points="2005,-153 2005,-173 2291,-173 2291,-153 2005,-153"/>
<text text-anchor="start" x="2008" y="-159.733" font-family="Helvetica,sans-Serif" font-size="14.00">o.g.l.t.normalize.VectorNormalizer</text>
</g>
<!-- N8&#45;&gt;N9 -->
<g id="edge42" class="edge"><title>N8:1&#45;&gt;N9</title>
<path fill="none" stroke="#2e3436" d="M2291,-163C2305.66,-163 2320.96,-163 2336.23,-163"/>
<polygon fill="#2e3436" stroke="#2e3436" points="2346.25,-163 2336.25,-167.5 2341.25,-163 2336.25,-163 2336.25,-163 2336.25,-163 2341.25,-163 2336.25,-158.5 2346.25,-163 2346.25,-163"/>
</g>
<!-- N10 -->
<g id="node10" class="node"><title>N10</title>
<polygon fill="#4e9a06" stroke="#2e3436" points="2309,-135 1987,-135 1987,-99 2309,-99 2309,-135"/>
<text text-anchor="middle" x="2148" y="-113.9" font-family="Helvetica,sans-Serif" font-size="14.00" fill="white">o.g.l.d.history.RatingVectorUserHistorySummarizer</text>
</g>
<!-- N7 -->
<g id="node11" class="node"><title>N7</title>
<polygon fill="none" stroke="#2e3436" points="1674.5,-106.5 1674.5,-191.5 1949.5,-191.5 1949.5,-106.5 1674.5,-106.5"/>
<polygon fill="#2e3436" stroke="#2e3436" points="1676,-167 1676,-190 1949,-190 1949,-167 1676,-167"/>
<polygon fill="#2e3436" stroke="#2e3436" points="1676,-167 1676,-190 1677,-190 1677,-167 1676,-167"/>
<polygon fill="#2e3436" stroke="#2e3436" points="1676,-190 1676,-189 1949,-189 1949,-190 1676,-190"/>
<polygon fill="#2e3436" stroke="#2e3436" points="1949,-190 1949,-167 1948,-167 1948,-190 1949,-190"/>
<polygon fill="#2e3436" stroke="#2e3436" points="1949,-167 1949,-168 1676,-168 1676,-167 1949,-167"/>
<text text-anchor="start" x="1680.5" y="-175.233" font-family="Helvetica,sans-Serif" font-size="14.00" fill="white">o.g.l.k.i.model.ItemItemBuildContextFactory</text>
<polygon fill="none" stroke="#2e3436" points="1676,-147 1676,-167 1949,-167 1949,-147 1676,-147"/>
<text text-anchor="start" x="1679" y="-153.733" font-family="Helvetica,sans-Serif" font-size="14.00">o.g.l.d.dao.UserEventDAO</text>
<polygon fill="none" stroke="#2e3436" points="1676,-127 1676,-147 1949,-147 1949,-127 1676,-127"/>
<text text-anchor="start" x="1679" y="-133.733" font-family="Helvetica,sans-Serif" font-size="14.00">o.g.l.t.normalize.UserVectorNormalizer</text>
<polygon fill="none" stroke="#2e3436" points="1676,-107 1676,-127 1949,-127 1949,-107 1676,-107"/>
<text text-anchor="start" x="1679" y="-113.733" font-family="Helvetica,sans-Serif" font-size="14.00">o.g.l.d.history.UserHistorySummarizer</text>
</g>
<!-- N7&#45;&gt;N2 -->
<g id="edge40" class="edge"><title>N7:1&#45;&gt;N2:H</title>
<path fill="none" stroke="#2e3436" d="M1949,-157C1976.29,-157 1968.09,-185.414 1986,-206 2001.11,-223.362 2002.07,-242.336 2018.71,-247.587"/>
<polygon fill="#2e3436" stroke="#2e3436" points="2029,-249 2018.48,-252.097 2024.05,-248.32 2019.09,-247.639 2019.09,-247.639 2019.09,-247.639 2024.05,-248.32 2019.71,-243.181 2029,-249 2029,-249"/>
</g>
<!-- N7&#45;&gt;N8 -->
<g id="edge44" class="edge"><title>N7:2&#45;&gt;N8:H</title>
<path fill="none" stroke="#2e3436" d="M1949,-137C1977.94,-137 1973.88,-174.409 1995.08,-183.177"/>
<polygon fill="#2e3436" stroke="#2e3436" points="2005,-185 1994.35,-187.618 2000.08,-184.096 1995.16,-183.192 1995.16,-183.192 1995.16,-183.192 2000.08,-184.096 1995.98,-178.766 2005,-185 2005,-185"/>
</g>
<!-- N7&#45;&gt;N10 -->
<g id="edge46" class="edge"><title>N7:3&#45;&gt;N10</title>
<path fill="none" stroke="#2e3436" d="M1949,-117C1957.94,-117 1967.11,-117 1976.37,-117"/>
<polygon fill="#2e3436" stroke="#2e3436" points="1986.45,-117 1976.45,-121.5 1981.45,-117 1976.45,-117 1976.45,-117 1976.45,-117 1981.45,-117 1976.45,-112.5 1986.45,-117 1986.45,-117"/>
</g>
<!-- N6P -->
<g id="node13" class="node"><title>N6P</title>
<polygon fill="none" stroke="#2e3436" points="1320.5,-144.5 1320.5,-229.5 1593.5,-229.5 1593.5,-144.5 1320.5,-144.5"/>
<polygon fill="#2e3436" stroke="#2e3436" points="1322,-205 1322,-228 1593,-228 1593,-205 1322,-205"/>
<polygon fill="#2e3436" stroke="#2e3436" points="1322,-205 1322,-228 1323,-228 1323,-205 1322,-205"/>
<polygon fill="#2e3436" stroke="#2e3436" points="1322,-228 1322,-227 1593,-227 1593,-228 1322,-228"/>
<polygon fill="#2e3436" stroke="#2e3436" points="1593,-228 1593,-205 1592,-205 1592,-228 1593,-228"/>
<polygon fill="#2e3436" stroke="#2e3436" points="1593,-205 1593,-206 1322,-206 1322,-205 1593,-205"/>
<text text-anchor="start" x="1343" y="-213.233" font-family="Helvetica,sans-Serif" font-size="14.00" fill="white">o.g.l.slopeone.SlopeOneModelBuilder</text>
<polygon fill="none" stroke="#2e3436" points="1322,-185 1322,-205 1593,-205 1593,-185 1322,-185"/>
<text text-anchor="start" x="1325" y="-191.733" font-family="Helvetica,sans-Serif" font-size="14.00">o.g.l.d.dao.ItemDAO</text>
<polygon fill="none" stroke="#2e3436" points="1322,-165 1322,-185 1593,-185 1593,-165 1322,-165"/>
<text text-anchor="start" x="1325" y="-171.733" font-family="Helvetica,sans-Serif" font-size="14.00">o.g.l.k.i.model.ItemItemBuildContextFactory</text>
<polygon fill="none" stroke="#2e3436" points="1322,-145 1322,-165 1593,-165 1593,-145 1322,-145"/>
<text text-anchor="start" x="1325" y="-151.733" font-family="Helvetica,sans-Serif" font-size="14.00">@o.g.l.slopeone.DeviationDamping: 0.0</text>
</g>
<!-- N6P&#45;&gt;N4 -->
<g id="edge38" class="edge"><title>N6P:1&#45;&gt;N4:H</title>
<path fill="none" stroke="#2e3436" stroke-dasharray="5,2" d="M1593,-195C1664.75,-195 1638.52,-305.377 1700.7,-316.156"/>
<polygon fill="#2e3436" stroke="#2e3436" points="1711,-317 1700.67,-320.668 1706.02,-316.592 1701.03,-316.183 1701.03,-316.183 1701.03,-316.183 1706.02,-316.592 1701.4,-311.698 1711,-317 1711,-317"/>
</g>
<!-- N6P&#45;&gt;N7 -->
<g id="edge48" class="edge"><title>N6P:2&#45;&gt;N7:H</title>
<path fill="none" stroke="#2e3436" stroke-dasharray="5,2" d="M1593,-175C1626.33,-175 1637.02,-178.257 1665.92,-178.893"/>
<polygon fill="#2e3436" stroke="#2e3436" points="1676,-179 1665.95,-183.393 1671,-178.947 1666,-178.894 1666,-178.894 1666,-178.894 1671,-178.947 1666.05,-174.394 1676,-179 1676,-179"/>
</g>
<!-- N6 -->
<g id="node14" class="node"><title>N6</title>
<polygon fill="#4e9a06" stroke="#2e3436" points="1239,-205 1037,-205 1037,-169 1239,-169 1239,-205"/>
<text text-anchor="middle" x="1138" y="-183.9" font-family="Helvetica,sans-Serif" font-size="14.00" fill="white">o.g.l.slopeone.SlopeOneModel</text>
</g>
<!-- N6&#45;&gt;N6P -->
<g id="edge6" class="edge"><title>N6:e&#45;&gt;N6P</title>
<path fill="none" stroke="#2e3436" stroke-dasharray="1,5" d="M1250.13,-187C1273.13,-187 1297.18,-187 1320.41,-187"/>
<polygon fill="#2e3436" stroke="#2e3436" points="1250,-183.5 1240,-187 1250,-190.5 1250,-183.5"/>
</g>
<!-- N11 -->
<g id="node16" class="node"><title>N11</title>
<ellipse fill="none" stroke="#2e3436" cx="1138" cy="-131" rx="27" ry="19.0919"/>
<text text-anchor="middle" x="1138" y="-127.9" font-family="Helvetica,sans-Serif" font-size="14.00">null</text>
</g>
<!-- N5&#45;&gt;N2 -->
<g id="edge36" class="edge"><title>N5:1&#45;&gt;N2:H</title>
<path fill="none" stroke="#2e3436" d="M999,-199C1016.74,-199 1018.77,-209.741 1036,-214 1140.06,-239.733 1168.98,-231.878 1276,-238 1606.73,-256.918 1692.55,-249.164 2018.78,-249.003"/>
<polygon fill="#2e3436" stroke="#2e3436" points="2029,-249 2019,-253.503 2024,-249.001 2019,-249.003 2019,-249.003 2019,-249.003 2024,-249.001 2019,-244.503 2029,-249 2029,-249"/>
</g>
<!-- N5&#45;&gt;N6 -->
<g id="edge50" class="edge"><title>N5:2&#45;&gt;N6</title>
<path fill="none" stroke="#2e3436" d="M999,-179C1007.88,-179 1017.06,-179.165 1026.29,-179.447"/>
<polygon fill="#2e3436" stroke="#2e3436" points="1036.31,-179.796 1026.16,-183.945 1031.32,-179.622 1026.32,-179.447 1026.32,-179.447 1026.32,-179.447 1031.32,-179.622 1026.48,-174.95 1036.31,-179.796 1036.31,-179.796"/>
</g>
<!-- N5&#45;&gt;N11 -->
<g id="edge52" class="edge"><title>N5:3&#45;&gt;N11</title>
<path fill="none" stroke="#2e3436" d="M999,-159C1035.17,-159 1075.62,-149.774 1103.51,-141.913"/>
<polygon fill="#2e3436" stroke="#2e3436" points="1113.19,-139.099 1104.85,-146.212 1108.39,-140.495 1103.59,-141.891 1103.59,-141.891 1103.59,-141.891 1108.39,-140.495 1102.33,-137.57 1113.19,-139.099 1113.19,-139.099"/>
</g>
<!-- N1P -->
<g id="node19" class="node"><title>N1P</title>
<polygon fill="none" stroke="#2e3436" points="425,-332.5 425,-417.5 709,-417.5 709,-332.5 425,-332.5"/>
<polygon fill="#2e3436" stroke="#2e3436" points="426,-393 426,-416 708,-416 708,-393 426,-393"/>
<polygon fill="#2e3436" stroke="#2e3436" points="426,-393 426,-416 427,-416 427,-393 426,-393"/>
<polygon fill="#2e3436" stroke="#2e3436" points="426,-416 426,-415 708,-415 708,-416 426,-416"/>
<polygon fill="#2e3436" stroke="#2e3436" points="708,-416 708,-393 707,-393 707,-416 708,-416"/>
<polygon fill="#2e3436" stroke="#2e3436" points="708,-393 708,-394 426,-394 426,-393 708,-393"/>
<text text-anchor="start" x="430.5" y="-401.233" font-family="Helvetica,sans-Serif" font-size="14.00" fill="white">o.g.l.basic.TopNItemRecommender$Provider</text>
<polygon fill="none" stroke="#2e3436" points="426,-373 426,-393 708,-393 708,-373 426,-373"/>
<text text-anchor="start" x="429" y="-379.733" font-family="Helvetica,sans-Serif" font-size="14.00">o.g.l.d.dao.UserEventDAO</text>
<polygon fill="none" stroke="#2e3436" points="426,-353 426,-373 708,-373 708,-353 426,-353"/>
<text text-anchor="start" x="429" y="-359.733" font-family="Helvetica,sans-Serif" font-size="14.00">o.g.l.d.dao.ItemDAO</text>
<polygon fill="none" stroke="#2e3436" points="426,-333 426,-353 708,-353 708,-333 426,-333"/>
<text text-anchor="start" x="429" y="-339.733" font-family="Helvetica,sans-Serif" font-size="14.00">o.g.lenskit.ItemScorer</text>
</g>
<!-- N1P&#45;&gt;N2 -->
<g id="edge30" class="edge"><title>N1P:1&#45;&gt;N2:H</title>
<path fill="none" stroke="#2e3436" d="M708,-383C899.163,-383 946.837,-393 1138,-393 1138,-393 1138,-393 1457,-393 1677.47,-393 1754.24,-439.413 1950,-338 1993.66,-315.382 1978.71,-257.895 2018.89,-249.923"/>
<polygon fill="#2e3436" stroke="#2e3436" points="2029,-249 2019.45,-254.39 2024.02,-249.454 2019.04,-249.909 2019.04,-249.909 2019.04,-249.909 2024.02,-249.454 2018.63,-245.427 2029,-249 2029,-249"/>
</g>
<!-- N1P&#45;&gt;N4 -->
<g id="edge34" class="edge"><title>N1P:2&#45;&gt;N4:H</title>
<path fill="none" stroke="#2e3436" d="M708,-363C1121.46,-363 1230.15,-407.901 1638,-340 1667.88,-335.025 1675.46,-320.668 1700.79,-317.587"/>
<polygon fill="#2e3436" stroke="#2e3436" points="1711,-317 1701.27,-322.066 1706.01,-317.287 1701.02,-317.574 1701.02,-317.574 1701.02,-317.574 1706.01,-317.287 1700.76,-313.081 1711,-317 1711,-317"/>
</g>
<!-- N1P&#45;&gt;N5 -->
<g id="edge54" class="edge"><title>N1P:3&#45;&gt;N5:H</title>
<path fill="none" stroke="#2e3436" d="M708,-343C723.039,-343 726.732,-335.844 736,-324 763.604,-288.726 731.433,-231.418 763.713,-222.253"/>
<polygon fill="#2e3436" stroke="#2e3436" points="774,-221 764.618,-226.677 769.037,-221.605 764.073,-222.21 764.073,-222.21 764.073,-222.21 769.037,-221.605 763.529,-217.743 774,-221 774,-221"/>
</g>
<!-- N1&#45;&gt;N1P -->
<g id="edge9" class="edge"><title>N1:e&#45;&gt;N1P</title>
<path fill="none" stroke="#2e3436" stroke-dasharray="1,5" d="M352.146,-356.062C375.984,-356.35 400.88,-357.609 424.923,-359.353"/>
<polygon fill="#2e3436" stroke="#2e3436" points="352.021,-352.562 342,-356 351.978,-359.561 352.021,-352.562"/>
</g>
<!-- N13 -->
<g id="node23" class="node"><title>N13</title>
<ellipse fill="none" stroke="#2e3436" cx="886" cy="-270" rx="27" ry="19.0919"/>
<text text-anchor="middle" x="886" y="-266.9" font-family="Helvetica,sans-Serif" font-size="14.00">null</text>
</g>
<!-- N12P -->
<g id="node25" class="node"><title>N12P</title>
<polygon fill="none" stroke="#2e3436" points="405,-250.5 405,-315.5 729,-315.5 729,-250.5 405,-250.5"/>
<polygon fill="#2e3436" stroke="#2e3436" points="406,-291 406,-314 728,-314 728,-291 406,-291"/>
<polygon fill="#2e3436" stroke="#2e3436" points="406,-291 406,-314 407,-314 407,-291 406,-291"/>
<polygon fill="#2e3436" stroke="#2e3436" points="406,-314 406,-313 728,-313 728,-314 406,-314"/>
<polygon fill="#2e3436" stroke="#2e3436" points="728,-314 728,-291 727,-291 727,-314 728,-314"/>
<polygon fill="#2e3436" stroke="#2e3436" points="728,-291 728,-292 406,-292 406,-291 728,-291"/>
<text text-anchor="start" x="410.5" y="-299.233" font-family="Helvetica,sans-Serif" font-size="14.00" fill="white">o.g.l.basic.TopNGlobalItemRecommender$Provider</text>
<polygon fill="none" stroke="#2e3436" points="406,-271 406,-291 728,-291 728,-271 406,-271"/>
<text text-anchor="start" x="409" y="-277.733" font-family="Helvetica,sans-Serif" font-size="14.00">o.g.l.d.dao.ItemDAO</text>
<polygon fill="none" stroke="#2e3436" points="406,-251 406,-271 728,-271 728,-251 406,-251"/>
<text text-anchor="start" x="409" y="-257.733" font-family="Helvetica,sans-Serif" font-size="14.00">o.g.lenskit.GlobalItemScorer</text>
</g>
<!-- N12P&#45;&gt;N4 -->
<g id="edge56" class="edge"><title>N12P:1&#45;&gt;N4:H</title>
<path fill="none" stroke="#2e3436" d="M728,-281C748.964,-281 751.431,-293.949 772,-298 1178.25,-378.012 1291.76,-317.984 1700.97,-317.012"/>
<polygon fill="#2e3436" stroke="#2e3436" points="1711,-317 1701.01,-321.512 1706,-317.006 1701,-317.012 1701,-317.012 1701,-317.012 1706,-317.006 1700.99,-312.512 1711,-317 1711,-317"/>
</g>
<!-- N12P&#45;&gt;N13 -->
<g id="edge58" class="edge"><title>N12P:2&#45;&gt;N13</title>
<path fill="none" stroke="#2e3436" d="M728,-261C769.47,-261 816.964,-264.129 848.962,-266.697"/>
<polygon fill="#2e3436" stroke="#2e3436" points="859.188,-267.541 848.852,-271.203 854.205,-267.129 849.222,-266.718 849.222,-266.718 849.222,-266.718 854.205,-267.129 849.593,-262.233 859.188,-267.541 859.188,-267.541"/>
</g>
<!-- N12&#45;&gt;N12P -->
<g id="edge14" class="edge"><title>N12:e&#45;&gt;N12P</title>
<path fill="none" stroke="#2e3436" stroke-dasharray="1,5" d="M372.176,-276.028C382.873,-276.085 393.804,-276.229 404.761,-276.438"/>
<polygon fill="#2e3436" stroke="#2e3436" points="372.01,-272.528 362,-276 371.99,-279.527 372.01,-272.528"/>
</g>
<!-- N16P -->
<g id="node30" class="node"><title>N16P</title>
<polygon fill="none" stroke="#2e3436" points="1992,-16.5 1992,-81.5 2304,-81.5 2304,-16.5 1992,-16.5"/>
<polygon fill="#2e3436" stroke="#2e3436" points="1993,-57 1993,-80 2303,-80 2303,-57 1993,-57"/>
<polygon fill="#2e3436" stroke="#2e3436" points="1993,-57 1993,-80 1994,-80 1994,-57 1993,-57"/>
<polygon fill="#2e3436" stroke="#2e3436" points="1993,-80 1993,-79 2303,-79 2303,-80 1993,-80"/>
<polygon fill="#2e3436" stroke="#2e3436" points="2303,-80 2303,-57 2302,-57 2302,-80 2303,-80"/>
<polygon fill="#2e3436" stroke="#2e3436" points="2303,-57 2303,-58 1993,-58 1993,-57 2303,-57"/>
<text text-anchor="start" x="1997.5" y="-65.2333" font-family="Helvetica,sans-Serif" font-size="14.00" fill="white">o.g.l.baseline.ItemMeanRatingItemScorer$Builder</text>
<polygon fill="none" stroke="#2e3436" points="1993,-37 1993,-57 2303,-57 2303,-37 1993,-37"/>
<text text-anchor="start" x="1996" y="-43.7333" font-family="Helvetica,sans-Serif" font-size="14.00">o.g.l.d.dao.EventDAO</text>
<polygon fill="none" stroke="#2e3436" points="1993,-17 1993,-37 2303,-37 2303,-17 1993,-17"/>
<text text-anchor="start" x="1996" y="-23.7333" font-family="Helvetica,sans-Serif" font-size="14.00">@o.g.l.baseline.MeanDamping: 0.0</text>
</g>
<!-- N16P&#45;&gt;N3 -->
<g id="edge64" class="edge"><title>N16P:1&#45;&gt;N3</title>
<path fill="none" stroke="#2e3436" stroke-dasharray="5,2" d="M2303,-47C2369.37,-47 2298.59,-143.561 2346,-190 2359.36,-203.089 2376.94,-211.636 2394.92,-217.194"/>
<polygon fill="#2e3436" stroke="#2e3436" points="2404.93,-219.984 2394.08,-221.632 2400.11,-218.641 2395.29,-217.298 2395.29,-217.298 2395.29,-217.298 2400.11,-218.641 2396.5,-212.963 2404.93,-219.984 2404.93,-219.984"/>
</g>
<!-- N16 -->
<g id="node31" class="node"><title>N16</title>
<polygon fill="#4e9a06" stroke="#2e3436" points="1945,-81 1679,-81 1679,-45 1945,-45 1945,-81"/>
<text text-anchor="middle" x="1812" y="-59.9" font-family="Helvetica,sans-Serif" font-size="14.00" fill="white">o.g.l.baseline.ItemMeanRatingItemScorer</text>
</g>
<!-- N16&#45;&gt;N16P -->
<g id="edge19" class="edge"><title>N16:e&#45;&gt;N16P</title>
<path fill="none" stroke="#2e3436" stroke-dasharray="1,5" d="M1956.18,-62.9427C1967.85,-62.8141 1979.8,-62.4744 1991.75,-61.9819"/>
<polygon fill="#2e3436" stroke="#2e3436" points="1955.98,-59.4437 1946,-63 1956.02,-66.4436 1955.98,-59.4437"/>
</g>
<!-- N15 -->
<g id="node33" class="node"><title>N15</title>
<polygon fill="none" stroke="#2e3436" points="1276.5,0.5 1276.5,-104.5 1637.5,-104.5 1637.5,0.5 1276.5,0.5"/>
<polygon fill="#2e3436" stroke="#2e3436" points="1278,-80 1278,-103 1637,-103 1637,-80 1278,-80"/>
<polygon fill="#2e3436" stroke="#2e3436" points="1278,-80 1278,-103 1279,-103 1279,-80 1278,-80"/>
<polygon fill="#2e3436" stroke="#2e3436" points="1278,-103 1278,-102 1637,-102 1637,-103 1278,-103"/>
<polygon fill="#2e3436" stroke="#2e3436" points="1637,-103 1637,-80 1636,-80 1636,-103 1637,-103"/>
<polygon fill="#2e3436" stroke="#2e3436" points="1637,-80 1637,-81 1278,-81 1278,-80 1637,-80"/>
<text text-anchor="start" x="1350.5" y="-88.2333" font-family="Helvetica,sans-Serif" font-size="14.00" fill="white">o.g.l.baseline.UserMeanItemScorer</text>
<polygon fill="none" stroke="#2e3436" points="1278,-60 1278,-80 1637,-80 1637,-60 1278,-60"/>
<text text-anchor="start" x="1281" y="-66.7333" font-family="Helvetica,sans-Serif" font-size="14.00">o.g.l.d.dao.UserEventDAO</text>
<polygon fill="none" stroke="#2e3436" points="1278,-40 1278,-60 1637,-60 1637,-40 1278,-40"/>
<text text-anchor="start" x="1281" y="-46.7333" font-family="Helvetica,sans-Serif" font-size="14.00">@o.g.l.baseline.UserMeanBaseline: o.g.lenskit.ItemScorer</text>
<polygon fill="none" stroke="#2e3436" points="1278,-20 1278,-40 1637,-40 1637,-20 1278,-20"/>
<text text-anchor="start" x="1281" y="-26.7333" font-family="Helvetica,sans-Serif" font-size="14.00">o.g.l.d.history.UserHistorySummarizer</text>
<polygon fill="none" stroke="#2e3436" points="1278,-0 1278,-20 1637,-20 1637,-0 1278,-0"/>
<text text-anchor="start" x="1281" y="-6.73333" font-family="Helvetica,sans-Serif" font-size="14.00">@o.g.l.baseline.MeanDamping: 0.0</text>
</g>
<!-- N15&#45;&gt;N2 -->
<g id="edge62" class="edge"><title>N15:1&#45;&gt;N2:H</title>
<path fill="none" stroke="#2e3436" d="M1637,-70C1697.07,-70 1628.65,-160.6 1674,-200 1687.83,-212.012 1959.79,-243.39 2018.75,-248.339"/>
<polygon fill="#2e3436" stroke="#2e3436" points="2029,-249 2018.73,-252.847 2024.01,-248.678 2019.02,-248.356 2019.02,-248.356 2019.02,-248.356 2024.01,-248.678 2019.31,-243.865 2029,-249 2029,-249"/>
</g>
<!-- N15&#45;&gt;N10 -->
<g id="edge68" class="edge"><title>N15:3&#45;&gt;N10</title>
<path fill="none" stroke="#2e3436" d="M1637,-30C1776.14,-30 1827.96,30.8253 1950,-36 1975.3,-49.8536 1961.78,-74.3383 1986,-90 1988.33,-91.5083 1990.72,-92.9408 1993.16,-94.3013"/>
<polygon fill="#2e3436" stroke="#2e3436" points="2002.19,-98.9182 1991.24,-98.374 1997.74,-96.6426 1993.29,-94.3671 1993.29,-94.3671 1993.29,-94.3671 1997.74,-96.6426 1995.34,-90.3601 2002.19,-98.9182 2002.19,-98.9182"/>
</g>
<!-- N15&#45;&gt;N16 -->
<g id="edge66" class="edge"><title>N15:2&#45;&gt;N16</title>
<path fill="none" stroke="#2e3436" d="M1637,-50C1647.16,-50 1657.64,-50.2205 1668.19,-50.6042"/>
<polygon fill="#2e3436" stroke="#2e3436" points="1678.31,-51.0201 1668.13,-55.1057 1673.32,-50.8148 1668.32,-50.6095 1668.32,-50.6095 1668.32,-50.6095 1673.32,-50.8148 1668.5,-46.1133 1678.31,-51.0201 1678.31,-51.0201"/>
</g>
<!-- N14P -->
<g id="node35" class="node"><title>N14P</title>
<polygon fill="none" stroke="#2e3436" points="398.5,-110.5 398.5,-195.5 735.5,-195.5 735.5,-110.5 398.5,-110.5"/>
<polygon fill="#2e3436" stroke="#2e3436" points="400,-171 400,-194 735,-194 735,-171 400,-171"/>
<polygon fill="#2e3436" stroke="#2e3436" points="400,-171 400,-194 401,-194 401,-171 400,-171"/>
<polygon fill="#2e3436" stroke="#2e3436" points="400,-194 400,-193 735,-193 735,-194 400,-194"/>
<polygon fill="#2e3436" stroke="#2e3436" points="735,-194 735,-171 734,-171 734,-194 735,-194"/>
<polygon fill="#2e3436" stroke="#2e3436" points="735,-171 735,-172 400,-172 400,-171 735,-171"/>
<text text-anchor="start" x="438.5" y="-179.233" font-family="Helvetica,sans-Serif" font-size="14.00" fill="white">o.g.l.basic.SimpleRatingPredictor$Provider</text>
<polygon fill="none" stroke="#2e3436" points="400,-151 400,-171 735,-171 735,-151 400,-151"/>
<text text-anchor="start" x="403" y="-157.733" font-family="Helvetica,sans-Serif" font-size="14.00">o.g.lenskit.ItemScorer</text>
<polygon fill="none" stroke="#2e3436" points="400,-131 400,-151 735,-151 735,-131 400,-131"/>
<text text-anchor="start" x="403" y="-137.733" font-family="Helvetica,sans-Serif" font-size="14.00">@o.g.l.baseline.BaselineScorer: o.g.lenskit.ItemScorer</text>
<polygon fill="none" stroke="#2e3436" points="400,-111 400,-131 735,-131 735,-111 400,-111"/>
<text text-anchor="start" x="403" y="-117.733" font-family="Helvetica,sans-Serif" font-size="14.00">o.g.l.d.pref.PreferenceDomain</text>
</g>
<!-- N14P&#45;&gt;N11 -->
<g id="edge72" class="edge"><title>N14P:3&#45;&gt;N11</title>
<path fill="none" stroke="#2e3436" d="M735,-121C869.47,-121 1029.1,-126.633 1100.38,-129.444"/>
<polygon fill="#2e3436" stroke="#2e3436" points="1110.64,-129.853 1100.47,-133.951 1105.65,-129.654 1100.65,-129.454 1100.65,-129.454 1100.65,-129.454 1105.65,-129.654 1100.83,-124.958 1110.64,-129.853 1110.64,-129.853"/>
</g>
<!-- N14P&#45;&gt;N5 -->
<g id="edge60" class="edge"><title>N14P:1&#45;&gt;N5:H</title>
<path fill="none" stroke="#2e3436" d="M735,-161C762.581,-161 747.737,-206.121 764.049,-218.106"/>
<polygon fill="#2e3436" stroke="#2e3436" points="774,-221 763.141,-222.529 769.199,-219.604 764.398,-218.208 764.398,-218.208 764.398,-218.208 769.199,-219.604 765.654,-213.887 774,-221 774,-221"/>
</g>
<!-- N14P&#45;&gt;N15 -->
<g id="edge70" class="edge"><title>N14P:2&#45;&gt;N15:H</title>
<path fill="none" stroke="#2e3436" d="M735,-141C754.363,-141 753.539,-123.841 772,-118 983.444,-51.0927 1050.78,-90.7556 1267.88,-91.9717"/>
<polygon fill="#2e3436" stroke="#2e3436" points="1278,-92 1267.99,-96.4719 1273,-91.986 1268,-91.9719 1268,-91.9719 1268,-91.9719 1273,-91.986 1268.01,-87.4719 1278,-92 1278,-92"/>
</g>
<!-- N14&#45;&gt;N14P -->
<g id="edge22" class="edge"><title>N14:e&#45;&gt;N14P</title>
<path fill="none" stroke="#2e3436" stroke-dasharray="1,5" d="M323.092,-164.969C347.666,-164.821 373.297,-164.154 398.317,-163.203"/>
<polygon fill="#2e3436" stroke="#2e3436" points="322.989,-161.469 313,-165 323.011,-168.469 322.989,-161.469"/>
</g>
</g>
</svg>
