<?xml version="1.0" encoding="UTF-8" standalone="no"?>
<!DOCTYPE svg PUBLIC "-//W3C//DTD SVG 1.1//EN"
 "http://www.w3.org/Graphics/SVG/1.1/DTD/svg11.dtd">
<!-- Generated by graphviz version 2.26.3 (20100126.1600)
 -->
<!-- Title: _anonymous_0 Pages: 1 -->
<svg width="3966pt" height="522pt"
 viewBox="0.00 0.00 3966.00 522.16" xmlns="http://www.w3.org/2000/svg" xmlns:xlink="http://www.w3.org/1999/xlink">
<g id="graph1" class="graph" transform="scale(1 1) rotate(0) translate(4 518.164)">
<title>_anonymous_0</title>
<polygon fill="white" stroke="white" points="-4,5 -4,-518.164 3963,-518.164 3963,5 -4,5"/>
<!-- root -->
<g id="node1" class="node"><title>root</title>
<polyline fill="none" stroke="#2e3436" points="42,-258 12,-258 "/>
<path fill="none" stroke="#2e3436" d="M12,-258C6,-258 1.77636e-14,-252 1.42109e-14,-246"/>
<polyline fill="none" stroke="#2e3436" points="1.42109e-14,-246 7.10543e-15,-234 "/>
<path fill="none" stroke="#2e3436" d="M7.10543e-15,-234C3.55271e-15,-228 6,-222 12,-222"/>
<polyline fill="none" stroke="#2e3436" points="12,-222 42,-222 "/>
<path fill="none" stroke="#2e3436" d="M42,-222C48,-222 54,-228 54,-234"/>
<polyline fill="none" stroke="#2e3436" points="54,-234 54,-246 "/>
<path fill="none" stroke="#2e3436" d="M54,-246C54,-252 48,-258 42,-258"/>
<text text-anchor="middle" x="27" y="-236.9" font-family="Helvetica,sans-Serif" font-size="14.00">root</text>
</g>
<!-- N2 -->
<g id="node25" class="node"><title>N2</title>
<polygon fill="none" stroke="#2e3436" points="772.5,-247.5 772.5,-352.5 1217.5,-352.5 1217.5,-247.5 772.5,-247.5"/>
<polygon fill="#2e3436" stroke="#2e3436" points="774,-328 774,-351 1217,-351 1217,-328 774,-328"/>
<polygon fill="#2e3436" stroke="#2e3436" points="774,-328 774,-351 775,-351 775,-328 774,-328"/>
<polygon fill="#2e3436" stroke="#2e3436" points="774,-351 774,-350 1217,-350 1217,-351 774,-351"/>
<polygon fill="#2e3436" stroke="#2e3436" points="1217,-351 1217,-328 1216,-328 1216,-351 1217,-351"/>
<polygon fill="#2e3436" stroke="#2e3436" points="1217,-328 1217,-329 774,-329 774,-328 1217,-328"/>
<text text-anchor="start" x="885.5" y="-336.233" font-family="Helvetica,sans-Serif" font-size="14.00" fill="white">o.g.l.m.funksvd.FunkSVDItemScorer</text>
<polygon fill="none" stroke="#2e3436" points="774,-308 774,-328 1217,-328 1217,-308 774,-308"/>
<text text-anchor="start" x="777" y="-314.733" font-family="Helvetica,sans-Serif" font-size="14.00">o.g.l.d.dao.UserEventDAO</text>
<polygon fill="none" stroke="#2e3436" points="774,-288 774,-308 1217,-308 1217,-288 774,-288"/>
<text text-anchor="start" x="777" y="-294.733" font-family="Helvetica,sans-Serif" font-size="14.00">o.g.l.m.funksvd.FunkSVDModel</text>
<polygon fill="none" stroke="#2e3436" points="774,-268 774,-288 1217,-288 1217,-268 774,-268"/>
<text text-anchor="start" x="777" y="-274.733" font-family="Helvetica,sans-Serif" font-size="14.00">@o.g.l.baseline.BaselineScorer: o.g.lenskit.ItemScorer</text>
<polygon fill="none" stroke="#2e3436" points="774,-248 774,-268 1217,-268 1217,-248 774,-248"/>
<text text-anchor="start" x="777" y="-254.733" font-family="Helvetica,sans-Serif" font-size="14.00">@o.g.l.m.funksvd.RuntimeUpdate: o.g.l.m.funksvd.FunkSVDUpdateRule</text>
</g>
<!-- root&#45;&gt;N2 -->
<g id="edge29" class="edge"><title>root&#45;&gt;N2:H</title>
<path fill="none" stroke="#2e3436" d="M38.8554,-258.203C50.0434,-273.723 68.3103,-295.186 90,-306 347.346,-434.305 448.543,-349.559 736,-342 748.944,-341.66 754.429,-340.668 763.879,-340.222"/>
<polygon fill="#2e3436" stroke="#2e3436" points="774,-340 764.101,-344.718 769.001,-340.11 764.002,-340.219 764.002,-340.219 764.002,-340.219 769.001,-340.11 763.904,-335.72 774,-340 774,-340"/>
</g>
<!-- N1 -->
<g id="node29" class="node"><title>N1</title>
<polygon fill="#2e3436" stroke="#2e3436" points="313,-219 139,-219 139,-183 313,-183 313,-219"/>
<text text-anchor="middle" x="226" y="-197.9" font-family="Helvetica,sans-Serif" font-size="14.00" fill="white">o.g.lenskit.RatingPredictor</text>
</g>
<!-- root&#45;&gt;N1 -->
<g id="edge17" class="edge"><title>root&#45;&gt;N1</title>
<path fill="none" stroke="#2e3436" d="M54.2528,-234.659C73.7826,-230.832 101.369,-225.425 128.731,-220.063"/>
<polygon fill="#2e3436" stroke="#2e3436" points="138.786,-218.092 129.838,-224.432 133.879,-219.054 128.973,-220.016 128.973,-220.016 128.973,-220.016 133.879,-219.054 128.107,-215.6 138.786,-218.092 138.786,-218.092"/>
</g>
<!-- N15 -->
<g id="node36" class="node"><title>N15</title>
<polygon fill="#2e3436" stroke="#2e3436" points="361,-146 91,-146 91,-110 361,-110 361,-146"/>
<text text-anchor="middle" x="226" y="-124.9" font-family="Helvetica,sans-Serif" font-size="14.00" fill="white">o.g.l.basic.TopNGlobalItemRecommender</text>
</g>
<!-- root&#45;&gt;N15 -->
<g id="edge22" class="edge"><title>root&#45;&gt;N15</title>
<path fill="none" stroke="#2e3436" d="M40.1527,-221.992C51.7771,-207.235 69.9625,-186.77 90,-174 105.696,-163.997 123.806,-155.916 141.587,-149.486"/>
<polygon fill="#2e3436" stroke="#2e3436" points="151.414,-146.083 143.437,-153.608 146.689,-147.719 141.964,-149.356 141.964,-149.356 141.964,-149.356 146.689,-147.719 140.491,-145.103 151.414,-146.083 151.414,-146.083"/>
</g>
<!-- N18 -->
<g id="node41" class="node"><title>N18</title>
<polygon fill="#2e3436" stroke="#2e3436" points="341,-297 111,-297 111,-261 341,-261 341,-297"/>
<text text-anchor="middle" x="226" y="-275.9" font-family="Helvetica,sans-Serif" font-size="14.00" fill="white">o.g.l.basic.TopNItemRecommender</text>
</g>
<!-- root&#45;&gt;N18 -->
<g id="edge27" class="edge"><title>root&#45;&gt;N18</title>
<path fill="none" stroke="#2e3436" d="M54.2528,-245.341C72.6587,-248.948 98.2207,-253.958 124.006,-259.011"/>
<polygon fill="#2e3436" stroke="#2e3436" points="133.885,-260.947 123.206,-263.44 128.979,-259.986 124.072,-259.024 124.072,-259.024 124.072,-259.024 128.979,-259.986 124.937,-254.608 133.885,-260.947 133.885,-260.947"/>
</g>
<!-- N4P -->
<g id="node3" class="node"><title>N4P</title>
<ellipse fill="none" stroke="#2e3436" stroke-dasharray="5,2" cx="3719" cy="-334" rx="239.002" ry="19.0919"/>
<text text-anchor="middle" x="3719" y="-330.9" font-family="Helvetica,sans-Serif" font-size="14.00">org.grouplens.grapht.util.InstanceProvider@4f003a57</text>
</g>
<!-- N4 -->
<g id="node4" class="node"><title>N4</title>
<polygon fill="#2e3436" stroke="#2e3436" points="3444,-352 3296,-352 3296,-316 3444,-316 3444,-352"/>
<text text-anchor="middle" x="3370" y="-330.9" font-family="Helvetica,sans-Serif" font-size="14.00" fill="white">o.g.l.d.dao.EventDAO</text>
</g>
<!-- N4&#45;&gt;N4P -->
<g id="edge3" class="edge"><title>N4:e&#45;&gt;N4P</title>
<path fill="none" stroke="#2e3436" stroke-dasharray="1,5" d="M3454.21,-334C3462.63,-334 3471.17,-334 3479.77,-334"/>
<polygon fill="#2e3436" stroke="#2e3436" points="3454,-330.5 3444,-334 3454,-337.5 3454,-330.5"/>
</g>
<!-- N3 -->
<g id="node6" class="node"><title>N3</title>
<polygon fill="none" stroke="#2e3436" points="2606,-442.5 2606,-487.5 2846,-487.5 2846,-442.5 2606,-442.5"/>
<polygon fill="#2e3436" stroke="#2e3436" points="2607,-463 2607,-486 2845,-486 2845,-463 2607,-463"/>
<polygon fill="#2e3436" stroke="#2e3436" points="2607,-463 2607,-486 2608,-486 2608,-463 2607,-463"/>
<polygon fill="#2e3436" stroke="#2e3436" points="2607,-486 2607,-485 2845,-485 2845,-486 2607,-486"/>
<polygon fill="#2e3436" stroke="#2e3436" points="2845,-486 2845,-463 2844,-463 2844,-486 2845,-486"/>
<polygon fill="#2e3436" stroke="#2e3436" points="2845,-463 2845,-464 2607,-464 2607,-463 2845,-463"/>
<text text-anchor="start" x="2611.5" y="-471.233" font-family="Helvetica,sans-Serif" font-size="14.00" fill="white">o.g.l.d.dao.PrefetchingUserEventDAO</text>
<polygon fill="none" stroke="#2e3436" points="2607,-443 2607,-463 2845,-463 2845,-443 2607,-443"/>
<text text-anchor="start" x="2610" y="-449.733" font-family="Helvetica,sans-Serif" font-size="14.00">o.g.l.d.dao.EventDAO</text>
</g>
<!-- N3&#45;&gt;N4 -->
<g id="edge31" class="edge"><title>N3:1&#45;&gt;N4</title>
<path fill="none" stroke="#2e3436" d="M2845,-453C3030.1,-453 3087.3,-484.616 3260,-418 3293.2,-405.194 3324.8,-379.097 3345.54,-359.37"/>
<polygon fill="#2e3436" stroke="#2e3436" points="3352.93,-352.162 3348.91,-362.364 3349.35,-355.651 3345.77,-359.14 3345.77,-359.14 3345.77,-359.14 3349.35,-355.651 3342.63,-355.917 3352.93,-352.162 3352.93,-352.162"/>
</g>
<!-- N6P -->
<g id="node8" class="node"><title>N6P</title>
<polygon fill="none" stroke="#2e3436" points="2924,-364.5 2924,-409.5 3260,-409.5 3260,-364.5 2924,-364.5"/>
<polygon fill="#2e3436" stroke="#2e3436" points="2925,-385 2925,-408 3259,-408 3259,-385 2925,-385"/>
<polygon fill="#2e3436" stroke="#2e3436" points="2925,-385 2925,-408 2926,-408 2926,-385 2925,-385"/>
<polygon fill="#2e3436" stroke="#2e3436" points="2925,-408 2925,-407 3259,-407 3259,-408 2925,-408"/>
<polygon fill="#2e3436" stroke="#2e3436" points="3259,-408 3259,-385 3258,-385 3258,-408 3259,-408"/>
<polygon fill="#2e3436" stroke="#2e3436" points="3259,-385 3259,-386 2925,-386 2925,-385 3259,-385"/>
<text text-anchor="start" x="2929.5" y="-393.233" font-family="Helvetica,sans-Serif" font-size="14.00" fill="white">o.g.l.d.snapshot.PackedPreferenceSnapshot$Provider</text>
<polygon fill="none" stroke="#2e3436" points="2925,-365 2925,-385 3259,-385 3259,-365 2925,-365"/>
<text text-anchor="start" x="2928" y="-371.733" font-family="Helvetica,sans-Serif" font-size="14.00">o.g.l.d.dao.EventDAO</text>
</g>
<!-- N6P&#45;&gt;N4 -->
<g id="edge35" class="edge"><title>N6P:1&#45;&gt;N4</title>
<path fill="none" stroke="#2e3436" stroke-dasharray="5,2" d="M3259,-375C3283.58,-375 3309.44,-366.04 3330.01,-356.498"/>
<polygon fill="#2e3436" stroke="#2e3436" points="3339.06,-352.103 3332.03,-360.518 3334.56,-354.286 3330.06,-356.47 3330.06,-356.47 3330.06,-356.47 3334.56,-354.286 3328.1,-352.422 3339.06,-352.103 3339.06,-352.103"/>
</g>
<!-- N6 -->
<g id="node9" class="node"><title>N6</title>
<polygon fill="#4e9a06" stroke="#2e3436" points="2103,-448 1819,-448 1819,-412 2103,-412 2103,-448"/>
<text text-anchor="middle" x="1961" y="-426.9" font-family="Helvetica,sans-Serif" font-size="14.00" fill="white">o.g.l.d.snapshot.PackedPreferenceSnapshot</text>
</g>
<!-- N6&#45;&gt;N6P -->
<g id="edge6" class="edge"><title>N6:e&#45;&gt;N6P</title>
<path fill="none" stroke="#2e3436" stroke-dasharray="1,5" d="M2113.16,-429.992C2399.36,-429.567 2729.24,-411.36 2923.66,-398.778"/>
<polygon fill="#2e3436" stroke="#2e3436" points="2113,-426.492 2103,-430 2113,-433.492 2113,-426.492"/>
</g>
<!-- N9P -->
<g id="node12" class="node"><title>N9P</title>
<polygon fill="none" stroke="#2e3436" points="2936,-262.5 2936,-327.5 3248,-327.5 3248,-262.5 2936,-262.5"/>
<polygon fill="#2e3436" stroke="#2e3436" points="2937,-303 2937,-326 3247,-326 3247,-303 2937,-303"/>
<polygon fill="#2e3436" stroke="#2e3436" points="2937,-303 2937,-326 2938,-326 2938,-303 2937,-303"/>
<polygon fill="#2e3436" stroke="#2e3436" points="2937,-326 2937,-325 3247,-325 3247,-326 2937,-326"/>
<polygon fill="#2e3436" stroke="#2e3436" points="3247,-326 3247,-303 3246,-303 3246,-326 3247,-326"/>
<polygon fill="#2e3436" stroke="#2e3436" points="3247,-303 3247,-304 2937,-304 2937,-303 3247,-303"/>
<text text-anchor="start" x="2941.5" y="-311.233" font-family="Helvetica,sans-Serif" font-size="14.00" fill="white">o.g.l.baseline.ItemMeanRatingItemScorer$Builder</text>
<polygon fill="none" stroke="#2e3436" points="2937,-283 2937,-303 3247,-303 3247,-283 2937,-283"/>
<text text-anchor="start" x="2940" y="-289.733" font-family="Helvetica,sans-Serif" font-size="14.00">o.g.l.d.dao.EventDAO</text>
<polygon fill="none" stroke="#2e3436" points="2937,-263 2937,-283 3247,-283 3247,-263 2937,-263"/>
<text text-anchor="start" x="2940" y="-269.733" font-family="Helvetica,sans-Serif" font-size="14.00">@o.g.l.baseline.MeanDamping: 0.0</text>
</g>
<!-- N9P&#45;&gt;N4 -->
<g id="edge41" class="edge"><title>N9P:1&#45;&gt;N4</title>
<path fill="none" stroke="#2e3436" stroke-dasharray="5,2" d="M3247,-293C3274.18,-293 3303.08,-302.122 3326.04,-311.76"/>
<polygon fill="#2e3436" stroke="#2e3436" points="3335.49,-315.897 3324.53,-316.01 3330.91,-313.892 3326.33,-311.887 3326.33,-311.887 3326.33,-311.887 3330.91,-313.892 3328.14,-307.765 3335.49,-315.897 3335.49,-315.897"/>
</g>
<!-- N9 -->
<g id="node13" class="node"><title>N9</title>
<polygon fill="#4e9a06" stroke="#2e3436" points="2859,-308 2593,-308 2593,-272 2859,-272 2859,-308"/>
<text text-anchor="middle" x="2726" y="-286.9" font-family="Helvetica,sans-Serif" font-size="14.00" fill="white">o.g.l.baseline.ItemMeanRatingItemScorer</text>
</g>
<!-- N9&#45;&gt;N9P -->
<g id="edge9" class="edge"><title>N9:e&#45;&gt;N9P</title>
<path fill="none" stroke="#2e3436" stroke-dasharray="1,5" d="M2870.11,-290.015C2891.55,-290.08 2913.86,-290.34 2935.7,-290.711"/>
<polygon fill="#2e3436" stroke="#2e3436" points="2870.01,-286.515 2860,-290 2869.99,-293.515 2870.01,-286.515"/>
</g>
<!-- N10 -->
<g id="node15" class="node"><title>N10</title>
<polygon fill="#4e9a06" stroke="#2e3436" points="2887,-214 2565,-214 2565,-178 2887,-178 2887,-214"/>
<text text-anchor="middle" x="2726" y="-192.9" font-family="Helvetica,sans-Serif" font-size="14.00" fill="white">o.g.l.d.history.RatingVectorUserHistorySummarizer</text>
</g>
<!-- N8 -->
<g id="node16" class="node"><title>N8</title>
<polygon fill="none" stroke="#2e3436" points="2166.5,-165.5 2166.5,-270.5 2527.5,-270.5 2527.5,-165.5 2166.5,-165.5"/>
<polygon fill="#2e3436" stroke="#2e3436" points="2168,-246 2168,-269 2527,-269 2527,-246 2168,-246"/>
<polygon fill="#2e3436" stroke="#2e3436" points="2168,-246 2168,-269 2169,-269 2169,-246 2168,-246"/>
<polygon fill="#2e3436" stroke="#2e3436" points="2168,-269 2168,-268 2527,-268 2527,-269 2168,-269"/>
<polygon fill="#2e3436" stroke="#2e3436" points="2527,-269 2527,-246 2526,-246 2526,-269 2527,-269"/>
<polygon fill="#2e3436" stroke="#2e3436" points="2527,-246 2527,-247 2168,-247 2168,-246 2527,-246"/>
<text text-anchor="start" x="2240.5" y="-254.233" font-family="Helvetica,sans-Serif" font-size="14.00" fill="white">o.g.l.baseline.UserMeanItemScorer</text>
<polygon fill="none" stroke="#2e3436" points="2168,-226 2168,-246 2527,-246 2527,-226 2168,-226"/>
<text text-anchor="start" x="2171" y="-232.733" font-family="Helvetica,sans-Serif" font-size="14.00">o.g.l.d.dao.UserEventDAO</text>
<polygon fill="none" stroke="#2e3436" points="2168,-206 2168,-226 2527,-226 2527,-206 2168,-206"/>
<text text-anchor="start" x="2171" y="-212.733" font-family="Helvetica,sans-Serif" font-size="14.00">@o.g.l.baseline.UserMeanBaseline: o.g.lenskit.ItemScorer</text>
<polygon fill="none" stroke="#2e3436" points="2168,-186 2168,-206 2527,-206 2527,-186 2168,-186"/>
<text text-anchor="start" x="2171" y="-192.733" font-family="Helvetica,sans-Serif" font-size="14.00">o.g.l.d.history.UserHistorySummarizer</text>
<polygon fill="none" stroke="#2e3436" points="2168,-166 2168,-186 2527,-186 2527,-166 2168,-166"/>
<text text-anchor="start" x="2171" y="-172.733" font-family="Helvetica,sans-Serif" font-size="14.00">@o.g.l.baseline.MeanDamping: 0.0</text>
</g>
<!-- N8&#45;&gt;N3 -->
<g id="edge39" class="edge"><title>N8:1&#45;&gt;N3:H</title>
<path fill="none" stroke="#2e3436" d="M2527,-236C2579.4,-236 2554.75,-445.184 2597.22,-472.149"/>
<polygon fill="#2e3436" stroke="#2e3436" points="2607,-475 2596.14,-476.522 2602.2,-473.601 2597.4,-472.202 2597.4,-472.202 2597.4,-472.202 2602.2,-473.601 2598.66,-467.881 2607,-475 2607,-475"/>
</g>
<!-- N8&#45;&gt;N9 -->
<g id="edge43" class="edge"><title>N8:2&#45;&gt;N9</title>
<path fill="none" stroke="#2e3436" d="M2527,-216C2556.98,-216 2629.2,-245.874 2677.88,-267.66"/>
<polygon fill="#2e3436" stroke="#2e3436" points="2687.28,-271.898 2676.32,-271.891 2682.72,-269.843 2678.16,-267.788 2678.16,-267.788 2678.16,-267.788 2682.72,-269.843 2680.01,-263.686 2687.28,-271.898 2687.28,-271.898"/>
</g>
<!-- N8&#45;&gt;N10 -->
<g id="edge45" class="edge"><title>N8:3&#45;&gt;N10</title>
<path fill="none" stroke="#2e3436" d="M2527,-196C2535.94,-196 2545.11,-196 2554.37,-196"/>
<polygon fill="#2e3436" stroke="#2e3436" points="2564.45,-196 2554.45,-200.5 2559.45,-196 2554.45,-196 2554.45,-196 2554.45,-196 2559.45,-196 2554.45,-191.5 2564.45,-196 2564.45,-196"/>
</g>
<!-- N11 -->
<g id="node17" class="node"><title>N11</title>
<polygon fill="#4e9a06" stroke="#2e3436" points="2470,-386 2224,-386 2224,-350 2470,-350 2470,-386"/>
<text text-anchor="middle" x="2347" y="-364.9" font-family="Helvetica,sans-Serif" font-size="14.00" fill="white">o.g.l.t.clamp.IdentityClampingFunction</text>
</g>
<!-- N12 -->
<g id="node18" class="node"><title>N12</title>
<polygon fill="none" stroke="#2e3436" points="2203.5,-287.5 2203.5,-332.5 2490.5,-332.5 2490.5,-287.5 2203.5,-287.5"/>
<polygon fill="#4e9a06" stroke="#4e9a06" points="2205,-308 2205,-331 2490,-331 2490,-308 2205,-308"/>
<polygon fill="#2e3436" stroke="#2e3436" points="2205,-308 2205,-331 2206,-331 2206,-308 2205,-308"/>
<polygon fill="#2e3436" stroke="#2e3436" points="2205,-331 2205,-330 2490,-330 2490,-331 2205,-331"/>
<polygon fill="#2e3436" stroke="#2e3436" points="2490,-331 2490,-308 2489,-308 2489,-331 2490,-331"/>
<polygon fill="#2e3436" stroke="#2e3436" points="2490,-308 2490,-309 2205,-309 2205,-308 2490,-308"/>
<text text-anchor="start" x="2209.5" y="-316.233" font-family="Helvetica,sans-Serif" font-size="14.00" fill="white">o.g.l.iterative.IterationCountStoppingCondition</text>
<polygon fill="none" stroke="#2e3436" points="2205,-288 2205,-308 2490,-308 2490,-288 2205,-288"/>
<text text-anchor="start" x="2208" y="-294.733" font-family="Helvetica,sans-Serif" font-size="14.00">@o.g.l.iterative.IterationCount: 125</text>
</g>
<!-- N7 -->
<g id="node19" class="node"><title>N7</title>
<polygon fill="none" stroke="#2e3436" points="1792.5,-249.5 1792.5,-394.5 2129.5,-394.5 2129.5,-249.5 1792.5,-249.5"/>
<polygon fill="#4e9a06" stroke="#4e9a06" points="1794,-370 1794,-393 2129,-393 2129,-370 1794,-370"/>
<polygon fill="#2e3436" stroke="#2e3436" points="1794,-370 1794,-393 1795,-393 1795,-370 1794,-370"/>
<polygon fill="#2e3436" stroke="#2e3436" points="1794,-393 1794,-392 2129,-392 2129,-393 1794,-393"/>
<polygon fill="#2e3436" stroke="#2e3436" points="2129,-393 2129,-370 2128,-370 2128,-393 2129,-393"/>
<polygon fill="#2e3436" stroke="#2e3436" points="2129,-370 2129,-371 1794,-371 1794,-370 2129,-370"/>
<text text-anchor="start" x="1849" y="-378.233" font-family="Helvetica,sans-Serif" font-size="14.00" fill="white">o.g.l.m.funksvd.FunkSVDUpdateRule</text>
<polygon fill="none" stroke="#2e3436" points="1794,-350 1794,-370 2129,-370 2129,-350 1794,-350"/>
<text text-anchor="start" x="1797" y="-356.733" font-family="Helvetica,sans-Serif" font-size="14.00">@o.g.l.baseline.BaselineScorer: o.g.lenskit.ItemScorer</text>
<polygon fill="none" stroke="#2e3436" points="1794,-330 1794,-350 2129,-350 2129,-330 1794,-330"/>
<text text-anchor="start" x="1797" y="-336.733" font-family="Helvetica,sans-Serif" font-size="14.00">o.g.l.t.clamp.ClampingFunction</text>
<polygon fill="none" stroke="#2e3436" points="1794,-310 1794,-330 2129,-330 2129,-310 1794,-310"/>
<text text-anchor="start" x="1797" y="-316.733" font-family="Helvetica,sans-Serif" font-size="14.00">o.g.l.iterative.StoppingCondition</text>
<polygon fill="none" stroke="#2e3436" points="1794,-290 1794,-310 2129,-310 2129,-290 1794,-290"/>
<text text-anchor="start" x="1797" y="-296.733" font-family="Helvetica,sans-Serif" font-size="14.00">@o.g.l.iterative.LearningRate: 0.001</text>
<polygon fill="none" stroke="#2e3436" points="1794,-270 1794,-290 2129,-290 2129,-270 1794,-270"/>
<text text-anchor="start" x="1797" y="-276.733" font-family="Helvetica,sans-Serif" font-size="14.00">@o.g.l.iterative.RegularizationTerm: 0.015</text>
<polygon fill="none" stroke="#2e3436" points="1794,-250 1794,-270 2129,-270 2129,-250 1794,-250"/>
<text text-anchor="start" x="1797" y="-256.733" font-family="Helvetica,sans-Serif" font-size="14.00">@o.g.l.m.funksvd.UseTrailingEstimate: true</text>
</g>
<!-- N7&#45;&gt;N8 -->
<g id="edge47" class="edge"><title>N7:1&#45;&gt;N8:H</title>
<path fill="none" stroke="#2e3436" d="M2129,-360C2173.55,-360 2128.28,-274.048 2158.09,-259.947"/>
<polygon fill="#2e3436" stroke="#2e3436" points="2168,-258 2159.05,-264.343 2163.09,-258.964 2158.19,-259.928 2158.19,-259.928 2158.19,-259.928 2163.09,-258.964 2157.32,-255.512 2168,-258 2168,-258"/>
</g>
<!-- N7&#45;&gt;N11 -->
<g id="edge49" class="edge"><title>N7:2&#45;&gt;N11</title>
<path fill="none" stroke="#2e3436" d="M2129,-340C2164.86,-340 2203.77,-343.773 2238.65,-348.549"/>
<polygon fill="#2e3436" stroke="#2e3436" points="2248.86,-349.99 2238.33,-353.048 2243.91,-349.291 2238.96,-348.592 2238.96,-348.592 2238.96,-348.592 2243.91,-349.291 2239.59,-344.136 2248.86,-349.99 2248.86,-349.99"/>
</g>
<!-- N7&#45;&gt;N12 -->
<g id="edge51" class="edge"><title>N7:3&#45;&gt;N12:H</title>
<path fill="none" stroke="#2e3436" d="M2129,-320C2159.08,-320 2169.07,-320 2194.76,-320"/>
<polygon fill="#2e3436" stroke="#2e3436" points="2205,-320 2195,-324.5 2200,-320 2195,-320 2195,-320 2195,-320 2200,-320 2195,-315.5 2205,-320 2205,-320"/>
</g>
<!-- N5P -->
<g id="node21" class="node"><title>N5P</title>
<polygon fill="none" stroke="#2e3436" points="1498,-331.5 1498,-436.5 1756,-436.5 1756,-331.5 1498,-331.5"/>
<polygon fill="#2e3436" stroke="#2e3436" points="1499,-412 1499,-435 1755,-435 1755,-412 1499,-412"/>
<polygon fill="#2e3436" stroke="#2e3436" points="1499,-412 1499,-435 1500,-435 1500,-412 1499,-412"/>
<polygon fill="#2e3436" stroke="#2e3436" points="1499,-435 1499,-434 1755,-434 1755,-435 1499,-435"/>
<polygon fill="#2e3436" stroke="#2e3436" points="1755,-435 1755,-412 1754,-412 1754,-435 1755,-435"/>
<polygon fill="#2e3436" stroke="#2e3436" points="1755,-412 1755,-413 1499,-413 1499,-412 1755,-412"/>
<text text-anchor="start" x="1510.5" y="-420.233" font-family="Helvetica,sans-Serif" font-size="14.00" fill="white">o.g.l.m.funksvd.FunkSVDModelBuilder</text>
<polygon fill="none" stroke="#2e3436" points="1499,-392 1499,-412 1755,-412 1755,-392 1499,-392"/>
<text text-anchor="start" x="1502" y="-398.733" font-family="Helvetica,sans-Serif" font-size="14.00">o.g.l.d.snapshot.PreferenceSnapshot</text>
<polygon fill="none" stroke="#2e3436" points="1499,-372 1499,-392 1755,-392 1755,-372 1499,-372"/>
<text text-anchor="start" x="1502" y="-378.733" font-family="Helvetica,sans-Serif" font-size="14.00">o.g.l.m.funksvd.FunkSVDUpdateRule</text>
<polygon fill="none" stroke="#2e3436" points="1499,-352 1499,-372 1755,-372 1755,-352 1499,-352"/>
<text text-anchor="start" x="1502" y="-358.733" font-family="Helvetica,sans-Serif" font-size="14.00">@o.g.l.m.funksvd.FeatureCount: 25</text>
<polygon fill="none" stroke="#2e3436" points="1499,-332 1499,-352 1755,-352 1755,-332 1499,-332"/>
<text text-anchor="start" x="1502" y="-338.733" font-family="Helvetica,sans-Serif" font-size="14.00">@o.g.l.m.funksvd.InitialFeatureValue: 0.1</text>
</g>
<!-- N5P&#45;&gt;N6 -->
<g id="edge37" class="edge"><title>N5P:1&#45;&gt;N6</title>
<path fill="none" stroke="#2e3436" stroke-dasharray="5,2" d="M1755,-402C1788.77,-402 1825.38,-405.741 1858.23,-410.488"/>
<polygon fill="#2e3436" stroke="#2e3436" points="1868.3,-411.99 1857.75,-414.965 1863.36,-411.252 1858.41,-410.514 1858.41,-410.514 1858.41,-410.514 1863.36,-411.252 1859.07,-406.063 1868.3,-411.99 1868.3,-411.99"/>
</g>
<!-- N5P&#45;&gt;N7 -->
<g id="edge53" class="edge"><title>N5P:2&#45;&gt;N7:H</title>
<path fill="none" stroke="#2e3436" stroke-dasharray="5,2" d="M1755,-382C1768.41,-382 1774.04,-382 1783.92,-382"/>
<polygon fill="#2e3436" stroke="#2e3436" points="1794,-382 1784,-386.5 1789,-382 1784,-382 1784,-382 1784,-382 1789,-382 1784,-377.5 1794,-382 1794,-382"/>
</g>
<!-- N5 -->
<g id="node22" class="node"><title>N5</title>
<polygon fill="#4e9a06" stroke="#2e3436" points="1461,-372 1255,-372 1255,-336 1461,-336 1461,-372"/>
<text text-anchor="middle" x="1358" y="-350.9" font-family="Helvetica,sans-Serif" font-size="14.00" fill="white">o.g.l.m.funksvd.FunkSVDModel</text>
</g>
<!-- N5&#45;&gt;N5P -->
<g id="edge12" class="edge"><title>N5:e&#45;&gt;N5P</title>
<path fill="none" stroke="#2e3436" stroke-dasharray="1,5" d="M1472.19,-354.178C1480.6,-354.466 1489.16,-355.09 1497.7,-355.968"/>
<polygon fill="#2e3436" stroke="#2e3436" points="1472.06,-350.675 1462,-354 1471.94,-357.674 1472.06,-350.675"/>
</g>
<!-- N13 -->
<g id="node24" class="node"><title>N13</title>
<ellipse fill="none" stroke="#2e3436" cx="1358" cy="-231" rx="27" ry="19.0919"/>
<text text-anchor="middle" x="1358" y="-227.9" font-family="Helvetica,sans-Serif" font-size="14.00">null</text>
</g>
<!-- N2&#45;&gt;N3 -->
<g id="edge33" class="edge"><title>N2:1&#45;&gt;N3:H</title>
<path fill="none" stroke="#2e3436" d="M1217,-318C1249.47,-318 1228.11,-361.397 1254,-381 1390.38,-484.276 1455.93,-476 1627,-476 1627,-476 1627,-476 1961,-476 2244.75,-476 2318.18,-475.023 2596.99,-475"/>
<polygon fill="#2e3436" stroke="#2e3436" points="2607,-475 2597,-479.501 2602,-475 2597,-475.001 2597,-475.001 2597,-475.001 2602,-475 2597,-470.501 2607,-475 2607,-475"/>
</g>
<!-- N2&#45;&gt;N8 -->
<g id="edge57" class="edge"><title>N2:3&#45;&gt;N8:H</title>
<path fill="none" stroke="#2e3436" d="M1217,-278C1473.08,-278 1536.05,-249.226 1792,-241 1942.14,-236.174 1983.09,-209.636 2130,-241 2144.14,-244.018 2148.09,-252.696 2157.96,-256.349"/>
<polygon fill="#2e3436" stroke="#2e3436" points="2168,-258 2157.4,-260.818 2163.07,-257.189 2158.13,-256.377 2158.13,-256.377 2158.13,-256.377 2163.07,-257.189 2158.86,-251.937 2168,-258 2168,-258"/>
</g>
<!-- N2&#45;&gt;N5 -->
<g id="edge55" class="edge"><title>N2:2&#45;&gt;N5</title>
<path fill="none" stroke="#2e3436" d="M1217,-298C1254.63,-298 1294.16,-315.437 1321.77,-330.851"/>
<polygon fill="#2e3436" stroke="#2e3436" points="1330.65,-335.973 1319.74,-334.876 1326.32,-333.475 1321.99,-330.978 1321.99,-330.978 1321.99,-330.978 1326.32,-333.475 1324.23,-327.079 1330.65,-335.973 1330.65,-335.973"/>
</g>
<!-- N2&#45;&gt;N13 -->
<g id="edge59" class="edge"><title>N2:4&#45;&gt;N13</title>
<path fill="none" stroke="#2e3436" d="M1217,-258C1253.74,-258 1294.91,-249.049 1323.24,-241.455"/>
<polygon fill="#2e3436" stroke="#2e3436" points="1333.06,-238.737 1324.62,-245.741 1328.24,-240.07 1323.42,-241.404 1323.42,-241.404 1323.42,-241.404 1328.24,-240.07 1322.22,-237.067 1333.06,-238.737 1333.06,-238.737"/>
</g>
<!-- N14 -->
<g id="node26" class="node"><title>N14</title>
<ellipse fill="none" stroke="#2e3436" cx="995" cy="-137" rx="27" ry="19.0919"/>
<text text-anchor="middle" x="995" y="-133.9" font-family="Helvetica,sans-Serif" font-size="14.00">null</text>
</g>
<!-- N1P -->
<g id="node28" class="node"><title>N1P</title>
<polygon fill="none" stroke="#2e3436" points="398.5,-146.5 398.5,-231.5 735.5,-231.5 735.5,-146.5 398.5,-146.5"/>
<polygon fill="#2e3436" stroke="#2e3436" points="400,-207 400,-230 735,-230 735,-207 400,-207"/>
<polygon fill="#2e3436" stroke="#2e3436" points="400,-207 400,-230 401,-230 401,-207 400,-207"/>
<polygon fill="#2e3436" stroke="#2e3436" points="400,-230 400,-229 735,-229 735,-230 400,-230"/>
<polygon fill="#2e3436" stroke="#2e3436" points="735,-230 735,-207 734,-207 734,-230 735,-230"/>
<polygon fill="#2e3436" stroke="#2e3436" points="735,-207 735,-208 400,-208 400,-207 735,-207"/>
<text text-anchor="start" x="438.5" y="-215.233" font-family="Helvetica,sans-Serif" font-size="14.00" fill="white">o.g.l.basic.SimpleRatingPredictor$Provider</text>
<polygon fill="none" stroke="#2e3436" points="400,-187 400,-207 735,-207 735,-187 400,-187"/>
<text text-anchor="start" x="403" y="-193.733" font-family="Helvetica,sans-Serif" font-size="14.00">o.g.lenskit.ItemScorer</text>
<polygon fill="none" stroke="#2e3436" points="400,-167 400,-187 735,-187 735,-167 400,-167"/>
<text text-anchor="start" x="403" y="-173.733" font-family="Helvetica,sans-Serif" font-size="14.00">@o.g.l.baseline.BaselineScorer: o.g.lenskit.ItemScorer</text>
<polygon fill="none" stroke="#2e3436" points="400,-147 400,-167 735,-167 735,-147 400,-147"/>
<text text-anchor="start" x="403" y="-153.733" font-family="Helvetica,sans-Serif" font-size="14.00">o.g.l.d.pref.PreferenceDomain</text>
</g>
<!-- N1P&#45;&gt;N8 -->
<g id="edge63" class="edge"><title>N1P:2&#45;&gt;N8:H</title>
<path fill="none" stroke="#2e3436" d="M735,-177C1011.91,-177 1081.09,-184 1358,-184 1358,-184 1358,-184 1627,-184 1851.16,-184 1925.57,-129.035 2130,-221 2147.63,-228.933 2146.05,-248.749 2157.92,-255.614"/>
<polygon fill="#2e3436" stroke="#2e3436" points="2168,-258 2157.23,-260.076 2163.13,-256.848 2158.27,-255.697 2158.27,-255.697 2158.27,-255.697 2163.13,-256.848 2159.31,-251.318 2168,-258 2168,-258"/>
</g>
<!-- N1P&#45;&gt;N2 -->
<g id="edge61" class="edge"><title>N1P:1&#45;&gt;N2:H</title>
<path fill="none" stroke="#2e3436" d="M735,-197C797.017,-197 718.448,-323.733 763.99,-338.585"/>
<polygon fill="#2e3436" stroke="#2e3436" points="774,-340 763.468,-343.056 769.049,-339.3 764.098,-338.6 764.098,-338.6 764.098,-338.6 769.049,-339.3 764.729,-334.144 774,-340 774,-340"/>
</g>
<!-- N1P&#45;&gt;N14 -->
<g id="edge65" class="edge"><title>N1P:3&#45;&gt;N14</title>
<path fill="none" stroke="#2e3436" d="M735,-157C814.671,-157 907.672,-147.549 958.026,-141.64"/>
<polygon fill="#2e3436" stroke="#2e3436" points="968.103,-140.438 958.707,-146.091 963.138,-141.03 958.174,-141.623 958.174,-141.623 958.174,-141.623 963.138,-141.03 957.641,-137.155 968.103,-140.438 968.103,-140.438"/>
</g>
<!-- N1&#45;&gt;N1P -->
<g id="edge15" class="edge"><title>N1:e&#45;&gt;N1P</title>
<path fill="none" stroke="#2e3436" stroke-dasharray="1,5" d="M323.092,-200.969C347.666,-200.821 373.297,-200.154 398.317,-199.203"/>
<polygon fill="#2e3436" stroke="#2e3436" points="322.989,-197.469 313,-201 323.011,-204.469 322.989,-197.469"/>
</g>
<!-- N16 -->
<g id="node32" class="node"><title>N16</title>
<polygon fill="none" stroke="#2e3436" points="893,-55.5 893,-100.5 1097,-100.5 1097,-55.5 893,-55.5"/>
<polygon fill="#2e3436" stroke="#2e3436" points="894,-76 894,-99 1096,-99 1096,-76 894,-76"/>
<polygon fill="#2e3436" stroke="#2e3436" points="894,-76 894,-99 895,-99 895,-76 894,-76"/>
<polygon fill="#2e3436" stroke="#2e3436" points="894,-99 894,-98 1096,-98 1096,-99 894,-99"/>
<polygon fill="#2e3436" stroke="#2e3436" points="1096,-99 1096,-76 1095,-76 1095,-99 1096,-99"/>
<polygon fill="#2e3436" stroke="#2e3436" points="1096,-76 1096,-77 894,-77 894,-76 1096,-76"/>
<text text-anchor="start" x="898.5" y="-84.2333" font-family="Helvetica,sans-Serif" font-size="14.00" fill="white">o.g.l.d.dao.PrefetchingItemDAO</text>
<polygon fill="none" stroke="#2e3436" points="894,-56 894,-76 1096,-76 1096,-56 894,-56"/>
<text text-anchor="start" x="897" y="-62.7333" font-family="Helvetica,sans-Serif" font-size="14.00">o.g.l.d.dao.EventDAO</text>
</g>
<!-- N16&#45;&gt;N4 -->
<g id="edge67" class="edge"><title>N16:1&#45;&gt;N4</title>
<path fill="none" stroke="#2e3436" d="M1096,-66C1332.54,-66 1390.46,-102 1627,-102 1627,-102 1627,-102 2726,-102 2972.76,-102 3038.13,-145.99 3260,-254 3290.12,-268.664 3320.64,-291.646 3341.87,-309.221"/>
<polygon fill="#2e3436" stroke="#2e3436" points="3349.53,-315.664 3338.98,-312.671 3345.7,-312.446 3341.87,-309.227 3341.87,-309.227 3341.87,-309.227 3345.7,-312.446 3344.77,-305.783 3349.53,-315.664 3349.53,-315.664"/>
</g>
<!-- N17 -->
<g id="node33" class="node"><title>N17</title>
<ellipse fill="none" stroke="#2e3436" cx="995" cy="-19" rx="27" ry="19.0919"/>
<text text-anchor="middle" x="995" y="-15.9" font-family="Helvetica,sans-Serif" font-size="14.00">null</text>
</g>
<!-- N15P -->
<g id="node35" class="node"><title>N15P</title>
<polygon fill="none" stroke="#2e3436" points="405,-57.5 405,-122.5 729,-122.5 729,-57.5 405,-57.5"/>
<polygon fill="#2e3436" stroke="#2e3436" points="406,-98 406,-121 728,-121 728,-98 406,-98"/>
<polygon fill="#2e3436" stroke="#2e3436" points="406,-98 406,-121 407,-121 407,-98 406,-98"/>
<polygon fill="#2e3436" stroke="#2e3436" points="406,-121 406,-120 728,-120 728,-121 406,-121"/>
<polygon fill="#2e3436" stroke="#2e3436" points="728,-121 728,-98 727,-98 727,-121 728,-121"/>
<polygon fill="#2e3436" stroke="#2e3436" points="728,-98 728,-99 406,-99 406,-98 728,-98"/>
<text text-anchor="start" x="410.5" y="-106.233" font-family="Helvetica,sans-Serif" font-size="14.00" fill="white">o.g.l.basic.TopNGlobalItemRecommender$Provider</text>
<polygon fill="none" stroke="#2e3436" points="406,-78 406,-98 728,-98 728,-78 406,-78"/>
<text text-anchor="start" x="409" y="-84.7333" font-family="Helvetica,sans-Serif" font-size="14.00">o.g.l.d.dao.ItemDAO</text>
<polygon fill="none" stroke="#2e3436" points="406,-58 406,-78 728,-78 728,-58 406,-58"/>
<text text-anchor="start" x="409" y="-64.7333" font-family="Helvetica,sans-Serif" font-size="14.00">o.g.lenskit.GlobalItemScorer</text>
</g>
<!-- N15P&#45;&gt;N16 -->
<g id="edge69" class="edge"><title>N15P:1&#45;&gt;N16:H</title>
<path fill="none" stroke="#2e3436" d="M728,-88C798.319,-88 818.371,-88 883.978,-88"/>
<polygon fill="#2e3436" stroke="#2e3436" points="894,-88 884,-92.5001 889,-88 884,-88.0001 884,-88.0001 884,-88.0001 889,-88 884,-83.5001 894,-88 894,-88"/>
</g>
<!-- N15P&#45;&gt;N17 -->
<g id="edge71" class="edge"><title>N15P:2&#45;&gt;N17</title>
<path fill="none" stroke="#2e3436" d="M728,-68C749.669,-68 751.206,-53.0945 772,-47 835.61,-28.3565 912.998,-22.1264 957.866,-20.0446"/>
<polygon fill="#2e3436" stroke="#2e3436" points="968.006,-19.6197 958.204,-24.5345 963.011,-19.8291 958.015,-20.0385 958.015,-20.0385 958.015,-20.0385 963.011,-19.8291 957.827,-15.5424 968.006,-19.6197 968.006,-19.6197"/>
</g>
<!-- N15&#45;&gt;N15P -->
<g id="edge20" class="edge"><title>N15:e&#45;&gt;N15P</title>
<path fill="none" stroke="#2e3436" stroke-dasharray="1,5" d="M372.155,-127.854C392.319,-127.283 413.17,-125.088 433.4,-122.021"/>
<polygon fill="#2e3436" stroke="#2e3436" points="371.948,-124.356 362,-128 372.049,-131.355 371.948,-124.356"/>
</g>
<!-- N18P -->
<g id="node40" class="node"><title>N18P</title>
<polygon fill="none" stroke="#2e3436" points="425,-248.5 425,-333.5 709,-333.5 709,-248.5 425,-248.5"/>
<polygon fill="#2e3436" stroke="#2e3436" points="426,-309 426,-332 708,-332 708,-309 426,-309"/>
<polygon fill="#2e3436" stroke="#2e3436" points="426,-309 426,-332 427,-332 427,-309 426,-309"/>
<polygon fill="#2e3436" stroke="#2e3436" points="426,-332 426,-331 708,-331 708,-332 426,-332"/>
<polygon fill="#2e3436" stroke="#2e3436" points="708,-332 708,-309 707,-309 707,-332 708,-332"/>
<polygon fill="#2e3436" stroke="#2e3436" points="708,-309 708,-310 426,-310 426,-309 708,-309"/>
<text text-anchor="start" x="430.5" y="-317.233" font-family="Helvetica,sans-Serif" font-size="14.00" fill="white">o.g.l.basic.TopNItemRecommender$Provider</text>
<polygon fill="none" stroke="#2e3436" points="426,-289 426,-309 708,-309 708,-289 426,-289"/>
<text text-anchor="start" x="429" y="-295.733" font-family="Helvetica,sans-Serif" font-size="14.00">o.g.l.d.dao.UserEventDAO</text>
<polygon fill="none" stroke="#2e3436" points="426,-269 426,-289 708,-289 708,-269 426,-269"/>
<text text-anchor="start" x="429" y="-275.733" font-family="Helvetica,sans-Serif" font-size="14.00">o.g.l.d.dao.ItemDAO</text>
<polygon fill="none" stroke="#2e3436" points="426,-249 426,-269 708,-269 708,-249 426,-249"/>
<text text-anchor="start" x="429" y="-255.733" font-family="Helvetica,sans-Serif" font-size="14.00">o.g.lenskit.ItemScorer</text>
</g>
<!-- N18P&#45;&gt;N3 -->
<g id="edge73" class="edge"><title>N18P:1&#45;&gt;N3:H</title>
<path fill="none" stroke="#2e3436" d="M708,-299C747.603,-299 737.484,-341.582 772,-361 1006.6,-492.982 1088.82,-514 1358,-514 1358,-514 1358,-514 1961,-514 2213.24,-514 2277.27,-516.623 2528,-489 2559.84,-485.492 2569.45,-476.987 2596.94,-475.295"/>
<polygon fill="#2e3436" stroke="#2e3436" points="2607,-475 2597.14,-479.792 2602,-475.147 2597,-475.293 2597,-475.293 2597,-475.293 2602,-475.147 2596.87,-470.795 2607,-475 2607,-475"/>
</g>
<!-- N18P&#45;&gt;N2 -->
<g id="edge77" class="edge"><title>N18P:3&#45;&gt;N2:H</title>
<path fill="none" stroke="#2e3436" d="M708,-259C750.628,-259 731.478,-327.256 763.971,-338.454"/>
<polygon fill="#2e3436" stroke="#2e3436" points="774,-340 763.431,-342.924 769.058,-339.238 764.117,-338.477 764.117,-338.477 764.117,-338.477 769.058,-339.238 764.802,-334.029 774,-340 774,-340"/>
</g>
<!-- N18P&#45;&gt;N16 -->
<g id="edge75" class="edge"><title>N18P:2&#45;&gt;N16:H</title>
<path fill="none" stroke="#2e3436" d="M708,-279C729.338,-279 726.807,-259.256 736,-240 762.015,-185.511 727.27,-149.559 772,-109 810.132,-74.424 835.54,-86.1627 883.709,-87.8196"/>
<polygon fill="#2e3436" stroke="#2e3436" points="894,-88 883.923,-92.3239 889.001,-87.9123 884.002,-87.8246 884.002,-87.8246 884.002,-87.8246 889.001,-87.9123 884.08,-83.3253 894,-88 894,-88"/>
</g>
<!-- N18&#45;&gt;N18P -->
<g id="edge25" class="edge"><title>N18:e&#45;&gt;N18P</title>
<path fill="none" stroke="#2e3436" stroke-dasharray="1,5" d="M352.126,-279.039C375.92,-279.221 400.795,-280.016 424.831,-281.118"/>
<polygon fill="#2e3436" stroke="#2e3436" points="352.014,-275.539 342,-279 351.986,-282.539 352.014,-275.539"/>
</g>
</g>
</svg>
